<?xml version="1.0" encoding="UTF-8"?>
<svg xmlns="http://www.w3.org/2000/svg" version="1.1" width="200" height="200" viewBox="0 0 200 200"><rect x="0" y="0" width="200" height="200" fill="#ffffff"/><g transform="scale(4.444)"><g transform="translate(0,0)"><path fill-rule="evenodd" d="M8 0L8 1L9 1L9 0ZM11 0L11 1L10 1L10 2L12 2L12 0ZM13 0L13 2L15 2L15 3L13 3L13 4L12 4L12 3L10 3L10 4L9 4L9 6L8 6L8 8L9 8L9 6L10 6L10 7L11 7L11 6L12 6L12 7L13 7L13 8L14 8L14 7L15 7L15 8L16 8L16 9L15 9L15 10L18 10L18 9L19 9L19 8L20 8L20 9L21 9L21 11L22 11L22 12L20 12L20 11L16 11L16 12L18 12L18 13L19 13L19 12L20 12L20 16L22 16L22 18L21 18L21 19L20 19L20 18L19 18L19 19L20 19L20 20L18 20L18 19L17 19L17 18L18 18L18 17L19 17L19 16L17 16L17 15L16 15L16 16L15 16L15 14L16 14L16 13L15 13L15 12L12 12L12 11L14 11L14 9L13 9L13 10L12 10L12 9L10 9L10 10L11 10L11 12L10 12L10 13L11 13L11 15L8 15L8 16L6 16L6 15L7 15L7 14L9 14L9 13L7 13L7 12L6 12L6 11L7 11L7 10L8 10L8 12L9 12L9 10L8 10L8 9L7 9L7 8L6 8L6 9L5 9L5 8L3 8L3 9L2 9L2 8L0 8L0 10L3 10L3 11L0 11L0 13L1 13L1 12L2 12L2 13L4 13L4 14L1 14L1 15L0 15L0 16L1 16L1 17L3 17L3 18L2 18L2 19L1 19L1 18L0 18L0 19L1 19L1 20L0 20L0 21L1 21L1 20L4 20L4 21L3 21L3 22L2 22L2 23L3 23L3 24L4 24L4 26L3 26L3 27L4 27L4 28L2 28L2 26L1 26L1 25L0 25L0 27L1 27L1 28L0 28L0 29L3 29L3 30L5 30L5 31L3 31L3 32L2 32L2 31L1 31L1 32L0 32L0 34L2 34L2 33L4 33L4 32L5 32L5 34L4 34L4 35L1 35L1 36L0 36L0 37L1 37L1 36L3 36L3 37L5 37L5 34L6 34L6 35L7 35L7 36L6 36L6 37L8 37L8 38L10 38L10 39L9 39L9 40L8 40L8 42L9 42L9 43L8 43L8 45L11 45L11 44L9 44L9 43L10 43L10 42L9 42L9 41L11 41L11 42L12 42L12 44L13 44L13 41L14 41L14 40L12 40L12 39L13 39L13 38L14 38L14 39L16 39L16 40L15 40L15 41L16 41L16 42L14 42L14 44L15 44L15 45L16 45L16 44L18 44L18 45L19 45L19 44L20 44L20 43L19 43L19 40L20 40L20 41L21 41L21 43L22 43L22 42L23 42L23 41L24 41L24 43L25 43L25 44L24 44L24 45L27 45L27 43L28 43L28 42L29 42L29 43L30 43L30 44L31 44L31 45L32 45L32 41L34 41L34 42L35 42L35 40L36 40L36 41L37 41L37 42L36 42L36 43L35 43L35 45L40 45L40 44L41 44L41 45L42 45L42 44L45 44L45 43L44 43L44 41L41 41L41 35L40 35L40 34L41 34L41 33L40 33L40 32L39 32L39 34L38 34L38 31L40 31L40 30L41 30L41 29L42 29L42 32L44 32L44 33L43 33L43 34L42 34L42 36L43 36L43 35L45 35L45 34L44 34L44 33L45 33L45 29L44 29L44 30L43 30L43 29L42 29L42 28L44 28L44 25L45 25L45 22L44 22L44 19L45 19L45 17L43 17L43 18L40 18L40 17L39 17L39 16L40 16L40 15L39 15L39 12L37 12L37 13L36 13L36 12L35 12L35 11L38 11L38 10L39 10L39 8L38 8L38 9L36 9L36 10L35 10L35 9L34 9L34 8L33 8L33 9L32 9L32 10L31 10L31 6L32 6L32 7L33 7L33 6L34 6L34 7L35 7L35 8L37 8L37 6L36 6L36 7L35 7L35 6L34 6L34 5L37 5L37 3L36 3L36 1L37 1L37 0L36 0L36 1L35 1L35 4L34 4L34 2L33 2L33 1L34 1L34 0L32 0L32 3L31 3L31 2L30 2L30 3L31 3L31 4L30 4L30 5L31 5L31 6L30 6L30 7L29 7L29 6L28 6L28 5L29 5L29 2L28 2L28 3L24 3L24 4L20 4L20 7L19 7L19 3L17 3L17 1L18 1L18 2L20 2L20 3L21 3L21 2L22 2L22 3L23 3L23 2L22 2L22 1L24 1L24 2L25 2L25 1L28 1L28 0L25 0L25 1L24 1L24 0L22 0L22 1L21 1L21 0L19 0L19 1L18 1L18 0L15 0L15 1L14 1L14 0ZM30 0L30 1L31 1L31 0ZM15 1L15 2L16 2L16 1ZM15 3L15 4L13 4L13 7L14 7L14 6L15 6L15 7L16 7L16 8L17 8L17 9L18 9L18 8L19 8L19 7L18 7L18 6L17 6L17 7L16 7L16 5L17 5L17 3ZM10 4L10 5L11 5L11 4ZM27 4L27 5L26 5L26 6L25 6L25 7L26 7L26 6L27 6L27 7L28 7L28 6L27 6L27 5L28 5L28 4ZM33 4L33 5L32 5L32 6L33 6L33 5L34 5L34 4ZM21 5L21 8L24 8L24 5ZM22 6L22 7L23 7L23 6ZM26 8L26 9L22 9L22 11L23 11L23 12L22 12L22 13L21 13L21 15L22 15L22 14L23 14L23 15L24 15L24 14L26 14L26 15L25 15L25 17L24 17L24 16L23 16L23 18L22 18L22 20L25 20L25 21L27 21L27 22L28 22L28 24L30 24L30 25L32 25L32 27L31 27L31 26L30 26L30 27L27 27L27 28L26 28L26 26L24 26L24 25L23 25L23 26L24 26L24 27L18 27L18 26L20 26L20 25L18 25L18 26L17 26L17 25L16 25L16 26L15 26L15 28L17 28L17 29L18 29L18 30L16 30L16 31L15 31L15 32L14 32L14 31L13 31L13 32L14 32L14 33L16 33L16 32L17 32L17 31L18 31L18 30L19 30L19 29L23 29L23 30L20 30L20 34L18 34L18 35L17 35L17 34L16 34L16 35L15 35L15 36L16 36L16 35L17 35L17 37L16 37L16 38L19 38L19 39L20 39L20 38L19 38L19 37L20 37L20 35L22 35L22 36L23 36L23 35L25 35L25 34L26 34L26 35L30 35L30 37L29 37L29 39L27 39L27 40L25 40L25 43L27 43L27 41L29 41L29 42L30 42L30 43L31 43L31 42L30 42L30 41L32 41L32 40L35 40L35 38L36 38L36 37L33 37L33 38L34 38L34 39L32 39L32 38L30 38L30 37L31 37L31 36L32 36L32 35L33 35L33 36L38 36L38 35L37 35L37 34L36 34L36 32L35 32L35 30L34 30L34 31L32 31L32 33L31 33L31 34L32 34L32 35L30 35L30 34L28 34L28 33L27 33L27 34L26 34L26 32L25 32L25 33L24 33L24 31L25 31L25 30L24 30L24 29L25 29L25 28L26 28L26 30L27 30L27 28L28 28L28 30L29 30L29 31L31 31L31 30L32 30L32 29L31 29L31 28L34 28L34 29L35 29L35 28L34 28L34 27L35 27L35 25L32 25L32 24L31 24L31 23L32 23L32 22L33 22L33 23L34 23L34 22L33 22L33 19L32 19L32 20L31 20L31 21L32 21L32 22L30 22L30 21L29 21L29 22L28 22L28 20L29 20L29 18L30 18L30 19L31 19L31 18L30 18L30 16L29 16L29 15L32 15L32 16L33 16L33 17L35 17L35 13L34 13L34 12L33 12L33 13L32 13L32 12L29 12L29 13L28 13L28 11L29 11L29 9L30 9L30 8L29 8L29 9L27 9L27 8ZM44 8L44 9L42 9L42 10L41 10L41 9L40 9L40 10L41 10L41 11L40 11L40 13L42 13L42 12L43 12L43 11L45 11L45 10L44 10L44 9L45 9L45 8ZM3 9L3 10L4 10L4 11L6 11L6 10L7 10L7 9L6 9L6 10L4 10L4 9ZM26 9L26 10L24 10L24 12L23 12L23 13L24 13L24 12L25 12L25 13L26 13L26 14L27 14L27 13L26 13L26 12L25 12L25 11L26 11L26 10L27 10L27 11L28 11L28 10L27 10L27 9ZM30 10L30 11L31 11L31 10ZM42 10L42 11L41 11L41 12L42 12L42 11L43 11L43 10ZM4 12L4 13L5 13L5 14L7 14L7 13L5 13L5 12ZM11 12L11 13L12 13L12 15L11 15L11 16L10 16L10 18L15 18L15 19L14 19L14 21L13 21L13 20L12 20L12 21L13 21L13 22L14 22L14 23L13 23L13 25L15 25L15 24L17 24L17 22L15 22L15 21L17 21L17 19L16 19L16 18L15 18L15 17L14 17L14 16L13 16L13 15L14 15L14 14L15 14L15 13L14 13L14 14L13 14L13 13L12 13L12 12ZM44 12L44 13L43 13L43 14L41 14L41 16L43 16L43 15L44 15L44 13L45 13L45 12ZM29 13L29 14L28 14L28 15L29 15L29 14L31 14L31 13ZM37 13L37 15L38 15L38 13ZM32 14L32 15L34 15L34 14ZM1 15L1 16L4 16L4 18L3 18L3 19L4 19L4 20L7 20L7 19L8 19L8 20L9 20L9 18L8 18L8 17L6 17L6 16L5 16L5 15ZM26 15L26 16L27 16L27 17L28 17L28 16L27 16L27 15ZM16 16L16 17L17 17L17 16ZM36 16L36 17L37 17L37 16ZM5 17L5 18L4 18L4 19L7 19L7 18L6 18L6 17ZM38 17L38 19L37 19L37 18L36 18L36 19L35 19L35 18L34 18L34 19L35 19L35 20L34 20L34 21L36 21L36 19L37 19L37 20L38 20L38 19L39 19L39 20L40 20L40 19L39 19L39 17ZM24 18L24 19L25 19L25 20L26 20L26 19L25 19L25 18ZM27 18L27 20L28 20L28 18ZM43 18L43 19L44 19L44 18ZM15 19L15 20L16 20L16 19ZM10 20L10 21L9 21L9 23L11 23L11 25L10 25L10 24L9 24L9 25L10 25L10 26L8 26L8 25L5 25L5 26L4 26L4 27L5 27L5 26L8 26L8 29L9 29L9 30L10 30L10 31L11 31L11 32L10 32L10 33L12 33L12 35L11 35L11 36L12 36L12 37L14 37L14 38L15 38L15 37L14 37L14 34L13 34L13 33L12 33L12 29L13 29L13 30L14 30L14 26L13 26L13 28L12 28L12 27L11 27L11 26L12 26L12 23L11 23L11 22L10 22L10 21L11 21L11 20ZM41 20L41 22L42 22L42 21L43 21L43 20ZM5 21L5 24L8 24L8 21ZM18 21L18 22L19 22L19 21ZM21 21L21 24L24 24L24 21ZM37 21L37 24L40 24L40 21ZM3 22L3 23L4 23L4 22ZM6 22L6 23L7 23L7 22ZM22 22L22 23L23 23L23 22ZM29 22L29 23L30 23L30 22ZM35 22L35 23L36 23L36 22ZM38 22L38 23L39 23L39 22ZM43 22L43 24L42 24L42 23L41 23L41 24L42 24L42 25L40 25L40 26L38 26L38 25L36 25L36 26L37 26L37 27L38 27L38 28L39 28L39 29L36 29L36 30L37 30L37 31L38 31L38 30L39 30L39 29L40 29L40 26L41 26L41 27L43 27L43 26L42 26L42 25L43 25L43 24L44 24L44 22ZM14 23L14 24L15 24L15 23ZM18 23L18 24L20 24L20 23ZM25 23L25 24L26 24L26 25L27 25L27 26L28 26L28 25L27 25L27 23ZM21 25L21 26L22 26L22 25ZM16 26L16 27L17 27L17 26ZM33 26L33 27L34 27L34 26ZM6 27L6 28L7 28L7 27ZM24 27L24 28L23 28L23 29L24 29L24 28L25 28L25 27ZM30 27L30 28L29 28L29 30L31 30L31 29L30 29L30 28L31 28L31 27ZM4 28L4 29L5 29L5 28ZM9 28L9 29L10 29L10 28ZM11 28L11 29L12 29L12 28ZM18 28L18 29L19 29L19 28ZM6 29L6 30L7 30L7 29ZM23 30L23 31L22 31L22 33L23 33L23 34L22 34L22 35L23 35L23 34L24 34L24 33L23 33L23 31L24 31L24 30ZM5 31L5 32L7 32L7 31ZM8 31L8 32L9 32L9 31ZM27 31L27 32L28 32L28 31ZM29 32L29 33L30 33L30 32ZM33 32L33 33L32 33L32 34L33 34L33 33L34 33L34 35L36 35L36 34L35 34L35 33L34 33L34 32ZM6 33L6 34L7 34L7 33ZM8 34L8 36L10 36L10 34ZM18 35L18 37L19 37L19 35ZM25 36L25 37L26 37L26 36ZM27 36L27 38L28 38L28 36ZM44 36L44 37L42 37L42 38L44 38L44 37L45 37L45 36ZM21 37L21 40L24 40L24 37ZM37 37L37 40L40 40L40 37ZM22 38L22 39L23 39L23 38ZM38 38L38 39L39 39L39 38ZM17 39L17 41L18 41L18 39ZM29 39L29 40L30 40L30 39ZM42 39L42 40L45 40L45 39ZM11 40L11 41L12 41L12 40ZM38 41L38 42L37 42L37 44L38 44L38 42L41 42L41 43L43 43L43 42L41 42L41 41ZM17 42L17 43L18 43L18 42ZM15 43L15 44L16 44L16 43ZM39 43L39 44L40 44L40 43ZM22 44L22 45L23 45L23 44ZM28 44L28 45L29 45L29 44ZM33 44L33 45L34 45L34 44ZM0 0L0 7L7 7L7 0ZM1 1L1 6L6 6L6 1ZM2 2L2 5L5 5L5 2ZM38 0L38 7L45 7L45 0ZM39 1L39 6L44 6L44 1ZM40 2L40 5L43 5L43 2ZM0 38L0 45L7 45L7 38ZM1 39L1 44L6 44L6 39ZM2 40L2 43L5 43L5 40Z" fill="#000000"/></g></g></svg>
