<?xml version="1.0" encoding="UTF-8"?>
<svg xmlns="http://www.w3.org/2000/svg" version="1.1" width="200" height="200" viewBox="0 0 200 200"><rect x="0" y="0" width="200" height="200" fill="#ffffff"/><g transform="scale(4.444)"><g transform="translate(0,0)"><path fill-rule="evenodd" d="M9 0L9 1L8 1L8 2L10 2L10 3L11 3L11 4L10 4L10 5L8 5L8 7L9 7L9 6L10 6L10 7L11 7L11 9L12 9L12 10L13 10L13 12L11 12L11 13L12 13L12 14L10 14L10 13L9 13L9 12L10 12L10 11L9 11L9 10L10 10L10 9L9 9L9 8L6 8L6 9L5 9L5 8L0 8L0 10L1 10L1 9L3 9L3 10L2 10L2 11L0 11L0 12L2 12L2 13L0 13L0 16L1 16L1 15L2 15L2 16L3 16L3 18L6 18L6 19L7 19L7 20L4 20L4 21L3 21L3 20L2 20L2 21L0 21L0 22L1 22L1 24L2 24L2 22L3 22L3 23L4 23L4 25L7 25L7 26L5 26L5 27L3 27L3 25L1 25L1 26L2 26L2 27L0 27L0 32L1 32L1 31L2 31L2 34L3 34L3 33L4 33L4 35L1 35L1 36L0 36L0 37L1 37L1 36L3 36L3 37L5 37L5 34L6 34L6 35L8 35L8 36L9 36L9 35L10 35L10 36L12 36L12 35L13 35L13 37L12 37L12 38L15 38L15 39L14 39L14 40L15 40L15 39L16 39L16 41L14 41L14 44L15 44L15 45L20 45L20 44L21 44L21 45L25 45L25 43L27 43L27 44L26 44L26 45L28 45L28 44L30 44L30 45L32 45L32 44L34 44L34 45L37 45L37 44L38 44L38 45L42 45L42 44L43 44L43 45L44 45L44 44L43 44L43 43L40 43L40 42L41 42L41 41L42 41L42 42L44 42L44 43L45 43L45 42L44 42L44 41L42 41L42 40L43 40L43 39L44 39L44 40L45 40L45 39L44 39L44 38L45 38L45 36L44 36L44 34L45 34L45 33L44 33L44 30L45 30L45 27L42 27L42 28L40 28L40 27L38 27L38 26L37 26L37 25L41 25L41 24L43 24L43 25L42 25L42 26L43 26L43 25L44 25L44 26L45 26L45 24L44 24L44 22L45 22L45 21L44 21L44 22L43 22L43 21L42 21L42 23L41 23L41 19L40 19L40 18L42 18L42 20L43 20L43 19L44 19L44 20L45 20L45 19L44 19L44 18L45 18L45 17L43 17L43 18L42 18L42 16L44 16L44 14L45 14L45 13L44 13L44 12L43 12L43 11L44 11L44 10L45 10L45 9L44 9L44 8L43 8L43 10L41 10L41 11L40 11L40 12L43 12L43 13L44 13L44 14L41 14L41 13L40 13L40 14L41 14L41 15L40 15L40 16L41 16L41 17L40 17L40 18L38 18L38 15L39 15L39 14L38 14L38 11L39 11L39 10L40 10L40 8L39 8L39 10L38 10L38 8L37 8L37 9L36 9L36 11L35 11L35 10L33 10L33 11L32 11L32 10L31 10L31 9L32 9L32 8L33 8L33 9L35 9L35 8L34 8L34 7L35 7L35 6L34 6L34 7L33 7L33 6L32 6L32 5L31 5L31 4L32 4L32 3L34 3L34 1L33 1L33 2L32 2L32 0L27 0L27 1L24 1L24 2L23 2L23 3L22 3L22 2L21 2L21 1L20 1L20 0L19 0L19 3L18 3L18 4L20 4L20 8L19 8L19 6L18 6L18 5L17 5L17 6L16 6L16 5L15 5L15 4L17 4L17 3L15 3L15 4L14 4L14 2L16 2L16 0L14 0L14 2L13 2L13 0L11 0L11 1L10 1L10 0ZM36 0L36 1L35 1L35 4L34 4L34 5L37 5L37 3L36 3L36 1L37 1L37 0ZM11 1L11 2L12 2L12 4L13 4L13 5L12 5L12 6L11 6L11 7L12 7L12 8L14 8L14 13L15 13L15 15L14 15L14 14L12 14L12 15L10 15L10 14L9 14L9 13L8 13L8 12L7 12L7 11L6 11L6 12L7 12L7 13L6 13L6 14L5 14L5 13L4 13L4 14L2 14L2 15L3 15L3 16L4 16L4 17L5 17L5 16L7 16L7 17L6 17L6 18L7 18L7 19L8 19L8 20L9 20L9 22L11 22L11 23L13 23L13 21L12 21L12 20L11 20L11 21L10 21L10 19L8 19L8 18L7 18L7 17L8 17L8 16L7 16L7 15L6 15L6 14L7 14L7 13L8 13L8 14L9 14L9 16L10 16L10 17L9 17L9 18L10 18L10 17L11 17L11 16L12 16L12 17L13 17L13 18L12 18L12 19L13 19L13 20L14 20L14 21L15 21L15 22L14 22L14 25L12 25L12 24L10 24L10 23L9 23L9 24L10 24L10 25L9 25L9 28L10 28L10 31L12 31L12 32L9 32L9 31L8 31L8 30L9 30L9 29L6 29L6 30L5 30L5 28L3 28L3 27L2 27L2 29L1 29L1 30L2 30L2 31L3 31L3 32L4 32L4 31L3 31L3 30L5 30L5 31L6 31L6 32L5 32L5 33L6 33L6 34L7 34L7 33L6 33L6 32L8 32L8 34L10 34L10 35L11 35L11 34L12 34L12 32L13 32L13 31L14 31L14 33L15 33L15 30L16 30L16 32L17 32L17 28L20 28L20 29L21 29L21 28L20 28L20 26L19 26L19 25L20 25L20 21L18 21L18 22L19 22L19 23L16 23L16 22L17 22L17 21L16 21L16 20L19 20L19 19L18 19L18 18L19 18L19 17L18 17L18 18L17 18L17 17L15 17L15 16L17 16L17 14L19 14L19 16L20 16L20 18L22 18L22 20L24 20L24 19L23 19L23 18L24 18L24 16L25 16L25 18L27 18L27 17L26 17L26 16L27 16L27 15L29 15L29 13L31 13L31 12L32 12L32 15L34 15L34 14L35 14L35 13L34 13L34 12L35 12L35 11L34 11L34 12L32 12L32 11L31 11L31 10L28 10L28 11L26 11L26 13L24 13L24 12L25 12L25 11L24 11L24 12L23 12L23 11L22 11L22 12L23 12L23 13L22 13L22 14L23 14L23 15L22 15L22 16L23 16L23 18L22 18L22 17L21 17L21 15L20 15L20 14L21 14L21 13L20 13L20 12L21 12L21 9L15 9L15 8L18 8L18 6L17 6L17 7L16 7L16 6L15 6L15 5L14 5L14 4L13 4L13 2L12 2L12 1ZM28 1L28 2L24 2L24 3L23 3L23 4L24 4L24 3L27 3L27 4L26 4L26 5L25 5L25 10L27 10L27 8L28 8L28 9L30 9L30 8L28 8L28 6L29 6L29 7L30 7L30 6L31 6L31 7L32 7L32 6L31 6L31 5L30 5L30 4L29 4L29 3L28 3L28 2L31 2L31 1ZM8 3L8 4L9 4L9 3ZM27 4L27 5L26 5L26 7L27 7L27 6L28 6L28 5L29 5L29 4ZM21 5L21 8L24 8L24 5ZM12 6L12 7L13 7L13 6ZM14 6L14 7L15 7L15 6ZM22 6L22 7L23 7L23 6ZM36 6L36 7L37 7L37 6ZM41 8L41 9L42 9L42 8ZM6 9L6 10L9 10L9 9ZM22 9L22 10L24 10L24 9ZM3 10L3 12L5 12L5 11L4 11L4 10ZM15 10L15 11L16 11L16 13L19 13L19 12L20 12L20 10L18 10L18 11L19 11L19 12L17 12L17 10ZM28 11L28 12L30 12L30 11ZM36 11L36 13L37 13L37 11ZM23 13L23 14L24 14L24 15L25 15L25 14L24 14L24 13ZM4 14L4 16L5 16L5 14ZM26 14L26 15L27 15L27 14ZM30 14L30 15L31 15L31 14ZM12 15L12 16L13 16L13 17L14 17L14 18L15 18L15 19L14 19L14 20L16 20L16 19L17 19L17 18L15 18L15 17L14 17L14 15ZM28 16L28 17L29 17L29 16ZM32 16L32 17L33 17L33 18L29 18L29 20L28 20L28 19L25 19L25 22L27 22L27 23L25 23L25 24L28 24L28 25L31 25L31 26L30 26L30 27L29 27L29 26L28 26L28 27L29 27L29 28L27 28L27 29L26 29L26 26L27 26L27 25L25 25L25 26L24 26L24 25L23 25L23 26L24 26L24 27L22 27L22 26L21 26L21 27L22 27L22 29L23 29L23 28L24 28L24 27L25 27L25 30L22 30L22 31L23 31L23 32L20 32L20 30L19 30L19 29L18 29L18 30L19 30L19 33L16 33L16 34L17 34L17 35L19 35L19 37L16 37L16 38L18 38L18 39L17 39L17 41L16 41L16 42L17 42L17 43L16 43L16 44L17 44L17 43L18 43L18 42L19 42L19 44L20 44L20 42L21 42L21 44L22 44L22 42L23 42L23 41L20 41L20 40L19 40L19 41L18 41L18 39L19 39L19 38L20 38L20 36L21 36L21 35L20 35L20 34L19 34L19 33L23 33L23 34L22 34L22 35L23 35L23 36L24 36L24 35L25 35L25 37L26 37L26 38L25 38L25 42L29 42L29 43L30 43L30 44L32 44L32 42L33 42L33 43L34 43L34 44L35 44L35 43L34 43L34 42L35 42L35 41L34 41L34 42L33 42L33 40L32 40L32 39L34 39L34 38L36 38L36 36L38 36L38 35L39 35L39 34L41 34L41 35L40 35L40 36L41 36L41 40L42 40L42 39L43 39L43 38L44 38L44 36L42 36L42 35L43 35L43 32L42 32L42 31L40 31L40 32L41 32L41 33L38 33L38 31L39 31L39 30L41 30L41 29L40 29L40 28L38 28L38 27L37 27L37 28L38 28L38 29L36 29L36 28L35 28L35 27L36 27L36 26L35 26L35 25L36 25L36 23L35 23L35 21L36 21L36 19L38 19L38 20L39 20L39 19L38 19L38 18L36 18L36 17L37 17L37 16ZM0 18L0 19L2 19L2 18ZM33 18L33 19L32 19L32 20L31 20L31 19L30 19L30 21L28 21L28 24L30 24L30 23L29 23L29 22L31 22L31 25L32 25L32 26L33 26L33 27L32 27L32 28L33 28L33 29L34 29L34 27L35 27L35 26L34 26L34 24L33 24L33 23L34 23L34 22L33 22L33 21L32 21L32 20L34 20L34 21L35 21L35 20L34 20L34 19L35 19L35 18ZM20 19L20 20L21 20L21 19ZM26 20L26 21L27 21L27 20ZM5 21L5 24L8 24L8 21ZM11 21L11 22L12 22L12 21ZM21 21L21 24L24 24L24 21ZM31 21L31 22L32 22L32 21ZM37 21L37 24L40 24L40 21ZM6 22L6 23L7 23L7 22ZM22 22L22 23L23 23L23 22ZM38 22L38 23L39 23L39 22ZM16 24L16 25L14 25L14 26L15 26L15 27L14 27L14 28L13 28L13 29L12 29L12 31L13 31L13 29L14 29L14 30L15 30L15 29L16 29L16 27L17 27L17 26L16 26L16 25L19 25L19 24ZM32 24L32 25L33 25L33 24ZM11 25L11 26L12 26L12 25ZM7 26L7 27L6 27L6 28L8 28L8 26ZM18 26L18 27L19 27L19 26ZM10 27L10 28L12 28L12 27ZM14 28L14 29L15 29L15 28ZM30 28L30 30L31 30L31 28ZM42 28L42 29L43 29L43 30L44 30L44 28ZM28 29L28 30L26 30L26 31L24 31L24 32L23 32L23 33L24 33L24 34L23 34L23 35L24 35L24 34L25 34L25 35L27 35L27 36L26 36L26 37L27 37L27 40L26 40L26 41L27 41L27 40L29 40L29 42L31 42L31 41L30 41L30 39L28 39L28 38L29 38L29 37L27 37L27 36L29 36L29 35L30 35L30 36L31 36L31 37L30 37L30 38L31 38L31 39L32 39L32 36L33 36L33 34L34 34L34 35L35 35L35 36L36 36L36 35L35 35L35 34L37 34L37 35L38 35L38 33L37 33L37 32L36 32L36 31L35 31L35 30L34 30L34 31L32 31L32 32L33 32L33 34L31 34L31 31L28 31L28 30L29 30L29 29ZM6 30L6 31L7 31L7 30ZM37 30L37 31L38 31L38 30ZM34 31L34 32L35 32L35 33L34 33L34 34L35 34L35 33L36 33L36 32L35 32L35 31ZM24 32L24 33L25 33L25 34L27 34L27 35L29 35L29 33L30 33L30 32L28 32L28 34L27 34L27 32L26 32L26 33L25 33L25 32ZM0 33L0 34L1 34L1 33ZM10 33L10 34L11 34L11 33ZM14 34L14 37L15 37L15 34ZM6 36L6 37L7 37L7 36ZM8 37L8 39L9 39L9 40L8 40L8 45L9 45L9 44L10 44L10 42L9 42L9 40L10 40L10 41L11 41L11 42L13 42L13 41L12 41L12 40L13 40L13 39L12 39L12 40L11 40L11 39L10 39L10 38L11 38L11 37L10 37L10 38L9 38L9 37ZM21 37L21 40L24 40L24 37ZM37 37L37 40L40 40L40 37ZM42 37L42 38L43 38L43 37ZM22 38L22 39L23 39L23 38ZM38 38L38 39L39 39L39 38ZM19 41L19 42L20 42L20 41ZM36 41L36 42L37 42L37 41ZM38 41L38 44L39 44L39 41ZM12 43L12 44L13 44L13 43ZM0 0L0 7L7 7L7 0ZM1 1L1 6L6 6L6 1ZM2 2L2 5L5 5L5 2ZM38 0L38 7L45 7L45 0ZM39 1L39 6L44 6L44 1ZM40 2L40 5L43 5L43 2ZM0 38L0 45L7 45L7 38ZM1 39L1 44L6 44L6 39ZM2 40L2 43L5 43L5 40Z" fill="#000000"/></g></g></svg>
