<?xml version="1.0" encoding="UTF-8"?>
<svg xmlns="http://www.w3.org/2000/svg" version="1.1" width="200" height="200" viewBox="0 0 200 200"><rect x="0" y="0" width="200" height="200" fill="#ffffff"/><g transform="scale(4.444)"><g transform="translate(0,0)"><path fill-rule="evenodd" d="M8 0L8 1L10 1L10 0ZM13 0L13 1L12 1L12 2L13 2L13 3L12 3L12 4L13 4L13 5L11 5L11 4L10 4L10 3L9 3L9 4L10 4L10 5L9 5L9 6L8 6L8 8L9 8L9 6L10 6L10 10L9 10L9 9L8 9L8 10L5 10L5 11L8 11L8 14L5 14L5 13L4 13L4 10L3 10L3 9L5 9L5 8L3 8L3 9L2 9L2 8L0 8L0 10L1 10L1 9L2 9L2 10L3 10L3 11L2 11L2 12L1 12L1 11L0 11L0 12L1 12L1 14L2 14L2 16L1 16L1 15L0 15L0 17L1 17L1 18L0 18L0 19L1 19L1 18L2 18L2 21L3 21L3 22L0 22L0 25L1 25L1 26L0 26L0 28L1 28L1 27L3 27L3 28L2 28L2 29L1 29L1 31L3 31L3 32L1 32L1 33L3 33L3 34L4 34L4 35L1 35L1 36L0 36L0 37L1 37L1 36L3 36L3 37L5 37L5 32L6 32L6 33L7 33L7 34L6 34L6 35L7 35L7 34L8 34L8 33L9 33L9 34L10 34L10 35L9 35L9 36L8 36L8 38L9 38L9 37L10 37L10 39L9 39L9 40L8 40L8 42L9 42L9 43L8 43L8 45L11 45L11 42L12 42L12 44L13 44L13 45L14 45L14 43L15 43L15 44L16 44L16 43L17 43L17 45L20 45L20 43L19 43L19 42L18 42L18 41L19 41L19 40L20 40L20 41L21 41L21 43L22 43L22 42L24 42L24 43L25 43L25 44L24 44L24 45L27 45L27 44L28 44L28 45L31 45L31 44L32 44L32 43L33 43L33 44L34 44L34 45L40 45L40 44L41 44L41 45L42 45L42 44L45 44L45 43L44 43L44 41L45 41L45 39L42 39L42 40L43 40L43 41L42 41L42 42L38 42L38 41L41 41L41 35L42 35L42 36L43 36L43 35L45 35L45 34L44 34L44 33L45 33L45 29L44 29L44 33L42 33L42 34L41 34L41 33L40 33L40 32L39 32L39 34L37 34L37 33L38 33L38 31L40 31L40 30L41 30L41 29L42 29L42 32L43 32L43 29L42 29L42 28L44 28L44 25L45 25L45 24L44 24L44 23L45 23L45 22L43 22L43 21L44 21L44 19L45 19L45 17L41 17L41 18L40 18L40 17L39 17L39 16L40 16L40 15L41 15L41 16L45 16L45 15L43 15L43 14L44 14L44 13L45 13L45 12L44 12L44 13L43 13L43 14L41 14L41 13L42 13L42 12L43 12L43 11L45 11L45 10L44 10L44 9L45 9L45 8L44 8L44 9L43 9L43 10L42 10L42 9L40 9L40 10L41 10L41 12L40 12L40 15L39 15L39 13L38 13L38 14L37 14L37 13L35 13L35 14L36 14L36 16L35 16L35 17L33 17L33 16L32 16L32 14L33 14L33 15L34 15L34 13L33 13L33 11L34 11L34 12L35 12L35 11L37 11L37 12L39 12L39 11L38 11L38 10L39 10L39 8L38 8L38 9L36 9L36 10L35 10L35 9L34 9L34 8L33 8L33 10L32 10L32 9L31 9L31 6L30 6L30 5L31 5L31 4L29 4L29 3L28 3L28 2L27 2L27 3L28 3L28 4L19 4L19 2L20 2L20 3L21 3L21 2L22 2L22 3L23 3L23 2L22 2L22 1L23 1L23 0L22 0L22 1L21 1L21 0L19 0L19 2L18 2L18 0L15 0L15 1L14 1L14 0ZM25 0L25 1L24 1L24 3L26 3L26 2L25 2L25 1L28 1L28 0ZM30 0L30 1L29 1L29 2L30 2L30 3L32 3L32 7L33 7L33 6L34 6L34 7L35 7L35 8L37 8L37 6L36 6L36 7L35 7L35 6L34 6L34 5L37 5L37 3L36 3L36 1L37 1L37 0L36 0L36 1L35 1L35 4L34 4L34 0ZM13 1L13 2L14 2L14 3L15 3L15 2L16 2L16 1L15 1L15 2L14 2L14 1ZM30 1L30 2L32 2L32 1ZM14 4L14 5L13 5L13 7L14 7L14 8L12 8L12 9L11 9L11 10L12 10L12 11L10 11L10 12L9 12L9 13L10 13L10 12L12 12L12 13L11 13L11 14L9 14L9 15L8 15L8 17L6 17L6 16L7 16L7 15L6 15L6 16L5 16L5 14L4 14L4 16L2 16L2 18L3 18L3 17L4 17L4 18L5 18L5 17L6 17L6 18L7 18L7 19L4 19L4 20L3 20L3 21L4 21L4 20L9 20L9 21L10 21L10 22L9 22L9 23L11 23L11 24L9 24L9 25L6 25L6 26L7 26L7 27L5 27L5 31L6 31L6 32L7 32L7 33L8 33L8 32L9 32L9 33L12 33L12 35L10 35L10 36L12 36L12 37L11 37L11 39L10 39L10 40L9 40L9 41L10 41L10 42L11 42L11 41L12 41L12 40L14 40L14 41L13 41L13 42L16 42L16 41L15 41L15 40L16 40L16 39L17 39L17 41L18 41L18 40L19 40L19 39L20 39L20 38L19 38L19 39L18 39L18 36L19 36L19 37L20 37L20 34L19 34L19 33L18 33L18 34L19 34L19 35L18 35L18 36L16 36L16 35L17 35L17 34L16 34L16 35L15 35L15 34L14 34L14 35L15 35L15 37L14 37L14 38L13 38L13 39L12 39L12 37L13 37L13 33L12 33L12 31L13 31L13 32L14 32L14 33L16 33L16 32L17 32L17 30L15 30L15 31L16 31L16 32L14 32L14 31L13 31L13 30L14 30L14 29L13 29L13 28L19 28L19 29L18 29L18 30L19 30L19 29L23 29L23 30L24 30L24 31L23 31L23 33L21 33L21 32L22 32L22 30L20 30L20 33L21 33L21 35L22 35L22 36L23 36L23 35L25 35L25 34L26 34L26 36L25 36L25 37L26 37L26 36L27 36L27 38L28 38L28 36L29 36L29 37L32 37L32 36L31 36L31 35L32 35L32 34L29 34L29 35L28 35L28 36L27 36L27 34L26 34L26 32L25 32L25 33L24 33L24 31L25 31L25 30L24 30L24 27L25 27L25 28L26 28L26 30L27 30L27 29L28 29L28 30L30 30L30 32L29 32L29 33L31 33L31 31L32 31L32 33L33 33L33 35L34 35L34 39L33 39L33 38L30 38L30 39L32 39L32 40L31 40L31 41L32 41L32 42L33 42L33 43L34 43L34 44L35 44L35 43L36 43L36 44L38 44L38 42L37 42L37 41L36 41L36 40L35 40L35 38L36 38L36 37L35 37L35 36L37 36L37 34L36 34L36 33L37 33L37 31L38 31L38 30L39 30L39 29L40 29L40 28L42 28L42 27L43 27L43 24L42 24L42 23L41 23L41 24L42 24L42 25L40 25L40 26L41 26L41 27L40 27L40 28L39 28L39 26L38 26L38 25L36 25L36 26L37 26L37 27L38 27L38 28L39 28L39 29L36 29L36 30L37 30L37 31L36 31L36 32L35 32L35 30L34 30L34 29L35 29L35 28L34 28L34 27L35 27L35 25L33 25L33 26L34 26L34 27L32 27L32 26L29 26L29 25L30 25L30 23L31 23L31 24L32 24L32 23L34 23L34 22L33 22L33 21L34 21L34 20L35 20L35 23L36 23L36 19L37 19L37 20L38 20L38 19L39 19L39 20L40 20L40 19L39 19L39 17L38 17L38 19L37 19L37 18L36 18L36 19L35 19L35 18L34 18L34 20L33 20L33 19L31 19L31 18L32 18L32 17L31 17L31 18L30 18L30 17L29 17L29 15L31 15L31 14L30 14L30 13L29 13L29 15L28 15L28 17L26 17L26 15L27 15L27 14L28 14L28 13L27 13L27 10L29 10L29 9L27 9L27 10L26 10L26 9L23 9L23 10L22 10L22 11L21 11L21 10L20 10L20 9L18 9L18 8L20 8L20 5L19 5L19 4L18 4L18 5L19 5L19 7L18 7L18 6L17 6L17 7L16 7L16 5L17 5L17 4ZM33 4L33 5L34 5L34 4ZM10 5L10 6L11 6L11 7L12 7L12 6L11 6L11 5ZM21 5L21 8L24 8L24 5ZM25 5L25 7L26 7L26 6L27 6L27 8L28 8L28 6L29 6L29 7L30 7L30 6L29 6L29 5ZM14 6L14 7L15 7L15 6ZM22 6L22 7L23 7L23 6ZM6 8L6 9L7 9L7 8ZM12 9L12 10L13 10L13 11L12 11L12 12L14 12L14 13L12 13L12 14L14 14L14 15L12 15L12 16L10 16L10 17L8 17L8 19L10 19L10 18L11 18L11 19L13 19L13 20L12 20L12 21L11 21L11 22L12 22L12 23L14 23L14 24L15 24L15 25L13 25L13 24L12 24L12 26L11 26L11 25L9 25L9 26L11 26L11 27L10 27L10 28L9 28L9 27L7 27L7 28L6 28L6 29L7 29L7 30L6 30L6 31L10 31L10 32L11 32L11 31L12 31L12 30L13 30L13 29L12 29L12 28L13 28L13 26L16 26L16 27L17 27L17 26L18 26L18 25L21 25L21 27L20 27L20 26L19 26L19 28L21 28L21 27L24 27L24 26L26 26L26 28L27 28L27 25L29 25L29 24L27 24L27 25L26 25L26 24L25 24L25 22L26 22L26 23L27 23L27 22L29 22L29 23L30 23L30 22L31 22L31 23L32 23L32 22L31 22L31 21L29 21L29 19L30 19L30 20L31 20L31 19L30 19L30 18L27 18L27 19L25 19L25 18L24 18L24 19L25 19L25 20L21 20L21 19L20 19L20 18L22 18L22 19L23 19L23 17L24 17L24 16L25 16L25 14L24 14L24 12L25 12L25 13L26 13L26 14L27 14L27 13L26 13L26 12L25 12L25 11L26 11L26 10L24 10L24 12L23 12L23 11L22 11L22 12L23 12L23 14L22 14L22 15L21 15L21 12L20 12L20 11L19 11L19 10L18 10L18 9L15 9L15 10L14 10L14 9ZM8 10L8 11L9 11L9 10ZM15 10L15 11L14 11L14 12L16 12L16 13L14 13L14 14L16 14L16 16L19 16L19 17L18 17L18 18L19 18L19 17L22 17L22 16L19 16L19 14L20 14L20 12L19 12L19 13L17 13L17 12L18 12L18 10ZM30 10L30 11L28 11L28 12L31 12L31 13L32 13L32 10ZM16 11L16 12L17 12L17 11ZM2 12L2 13L3 13L3 12ZM6 12L6 13L7 13L7 12ZM23 14L23 15L24 15L24 14ZM4 16L4 17L5 17L5 16ZM13 16L13 19L16 19L16 21L18 21L18 22L19 22L19 21L18 21L18 20L20 20L20 19L16 19L16 18L15 18L15 17L14 17L14 16ZM36 16L36 17L37 17L37 16ZM11 17L11 18L12 18L12 17ZM42 18L42 19L41 19L41 20L42 20L42 21L41 21L41 22L42 22L42 21L43 21L43 20L42 20L42 19L44 19L44 18ZM27 19L27 20L28 20L28 19ZM0 20L0 21L1 21L1 20ZM13 20L13 21L12 21L12 22L14 22L14 23L15 23L15 24L16 24L16 26L17 26L17 22L15 22L15 20ZM25 20L25 21L26 21L26 20ZM5 21L5 24L8 24L8 21ZM21 21L21 24L24 24L24 21ZM37 21L37 24L40 24L40 21ZM6 22L6 23L7 23L7 22ZM22 22L22 23L23 23L23 22ZM38 22L38 23L39 23L39 22ZM1 23L1 25L2 25L2 26L3 26L3 27L4 27L4 26L5 26L5 25L4 25L4 24L2 24L2 23ZM18 23L18 24L20 24L20 23ZM3 25L3 26L4 26L4 25ZM23 25L23 26L24 26L24 25ZM28 26L28 27L29 27L29 26ZM11 27L11 28L12 28L12 27ZM30 27L30 28L31 28L31 27ZM7 28L7 29L9 29L9 28ZM32 28L32 29L30 29L30 30L32 30L32 31L34 31L34 30L32 30L32 29L34 29L34 28ZM3 29L3 31L4 31L4 29ZM11 29L11 30L12 30L12 29ZM18 31L18 32L19 32L19 31ZM27 31L27 33L28 33L28 31ZM3 32L3 33L4 33L4 32ZM33 32L33 33L34 33L34 35L35 35L35 33L34 33L34 32ZM23 33L23 34L22 34L22 35L23 35L23 34L24 34L24 33ZM39 34L39 35L41 35L41 34ZM42 34L42 35L43 35L43 34ZM6 36L6 37L7 37L7 36ZM44 36L44 37L42 37L42 38L44 38L44 37L45 37L45 36ZM15 37L15 38L14 38L14 39L16 39L16 37ZM21 37L21 40L24 40L24 37ZM37 37L37 40L40 40L40 37ZM22 38L22 39L23 39L23 38ZM38 38L38 39L39 39L39 38ZM11 39L11 40L10 40L10 41L11 41L11 40L12 40L12 39ZM27 39L27 41L24 41L24 42L25 42L25 43L30 43L30 41L29 41L29 39ZM32 40L32 41L34 41L34 42L36 42L36 43L37 43L37 42L36 42L36 41L35 41L35 40ZM27 41L27 42L28 42L28 41ZM17 42L17 43L18 43L18 42ZM9 43L9 44L10 44L10 43ZM39 43L39 44L40 44L40 43ZM21 44L21 45L22 45L22 44ZM0 0L0 7L7 7L7 0ZM1 1L1 6L6 6L6 1ZM2 2L2 5L5 5L5 2ZM38 0L38 7L45 7L45 0ZM39 1L39 6L44 6L44 1ZM40 2L40 5L43 5L43 2ZM0 38L0 45L7 45L7 38ZM1 39L1 44L6 44L6 39ZM2 40L2 43L5 43L5 40Z" fill="#000000"/></g></g></svg>
