<?xml version="1.0" encoding="UTF-8"?>
<svg xmlns="http://www.w3.org/2000/svg" version="1.1" width="200" height="200" viewBox="0 0 200 200"><rect x="0" y="0" width="200" height="200" fill="#ffffff"/><g transform="scale(4.444)"><g transform="translate(0,0)"><path fill-rule="evenodd" d="M10 0L10 1L11 1L11 2L12 2L12 3L13 3L13 4L12 4L12 7L11 7L11 6L10 6L10 5L11 5L11 4L10 4L10 2L9 2L9 1L8 1L8 2L9 2L9 3L8 3L8 4L9 4L9 5L8 5L8 7L9 7L9 6L10 6L10 7L11 7L11 8L12 8L12 9L14 9L14 10L15 10L15 11L12 11L12 10L11 10L11 9L10 9L10 8L6 8L6 9L5 9L5 8L0 8L0 12L1 12L1 13L0 13L0 15L1 15L1 16L2 16L2 17L0 17L0 18L3 18L3 19L4 19L4 18L5 18L5 16L6 16L6 17L7 17L7 18L6 18L6 19L10 19L10 20L11 20L11 19L13 19L13 20L12 20L12 21L14 21L14 22L15 22L15 25L14 25L14 23L13 23L13 22L12 22L12 23L11 23L11 22L10 22L10 21L9 21L9 20L3 20L3 21L4 21L4 22L3 22L3 23L4 23L4 26L3 26L3 25L1 25L1 23L0 23L0 25L1 25L1 26L3 26L3 27L4 27L4 26L5 26L5 27L7 27L7 26L5 26L5 25L9 25L9 22L10 22L10 26L8 26L8 29L9 29L9 31L8 31L8 32L9 32L9 33L10 33L10 34L12 34L12 33L13 33L13 32L12 32L12 33L10 33L10 32L9 32L9 31L10 31L10 28L9 28L9 27L12 27L12 28L13 28L13 29L12 29L12 30L13 30L13 29L14 29L14 30L15 30L15 29L14 29L14 28L16 28L16 29L17 29L17 31L18 31L18 33L19 33L19 34L20 34L20 33L19 33L19 31L18 31L18 29L19 29L19 30L20 30L20 31L22 31L22 32L21 32L21 33L22 33L22 34L21 34L21 35L24 35L24 36L20 36L20 35L19 35L19 36L18 36L18 37L19 37L19 36L20 36L20 38L18 38L18 39L19 39L19 40L18 40L18 41L17 41L17 40L16 40L16 39L17 39L17 38L15 38L15 37L17 37L17 36L16 36L16 35L17 35L17 34L16 34L16 33L17 33L17 32L16 32L16 33L14 33L14 34L15 34L15 35L13 35L13 37L12 37L12 35L9 35L9 34L8 34L8 33L7 33L7 32L5 32L5 31L7 31L7 30L5 30L5 28L3 28L3 30L1 30L1 29L2 29L2 28L0 28L0 31L2 31L2 32L0 32L0 33L2 33L2 34L4 34L4 35L1 35L1 36L0 36L0 37L1 37L1 36L3 36L3 37L5 37L5 33L7 33L7 34L6 34L6 35L7 35L7 34L8 34L8 35L9 35L9 37L8 37L8 39L9 39L9 40L8 40L8 45L9 45L9 40L12 40L12 42L10 42L10 43L11 43L11 44L12 44L12 43L13 43L13 42L14 42L14 43L15 43L15 44L16 44L16 45L19 45L19 44L17 44L17 42L18 42L18 43L20 43L20 44L21 44L21 45L22 45L22 44L21 44L21 43L23 43L23 42L21 42L21 43L20 43L20 41L26 41L26 40L30 40L30 41L28 41L28 43L27 43L27 42L24 42L24 43L27 43L27 44L24 44L24 45L27 45L27 44L29 44L29 43L30 43L30 44L31 44L31 45L32 45L32 44L34 44L34 45L37 45L37 44L38 44L38 45L42 45L42 44L43 44L43 45L44 45L44 44L43 44L43 43L42 43L42 44L41 44L41 43L40 43L40 42L41 42L41 41L42 41L42 42L44 42L44 43L45 43L45 42L44 42L44 41L42 41L42 40L43 40L43 39L42 39L42 40L41 40L41 34L42 34L42 36L43 36L43 35L44 35L44 34L45 34L45 32L43 32L43 29L41 29L41 28L44 28L44 30L45 30L45 27L43 27L43 26L39 26L39 27L37 27L37 26L38 26L38 25L41 25L41 24L43 24L43 23L44 23L44 24L45 24L45 23L44 23L44 22L45 22L45 21L44 21L44 22L43 22L43 21L42 21L42 23L41 23L41 20L43 20L43 19L44 19L44 20L45 20L45 19L44 19L44 18L45 18L45 17L44 17L44 14L45 14L45 13L44 13L44 12L43 12L43 11L44 11L44 10L45 10L45 9L44 9L44 8L43 8L43 10L42 10L42 8L41 8L41 11L40 11L40 12L43 12L43 13L44 13L44 14L38 14L38 13L35 13L35 14L33 14L33 13L34 13L34 11L35 11L35 12L36 12L36 11L39 11L39 10L40 10L40 8L39 8L39 10L38 10L38 8L37 8L37 6L36 6L36 8L37 8L37 9L36 9L36 11L35 11L35 10L33 10L33 9L35 9L35 8L34 8L34 7L35 7L35 6L34 6L34 5L37 5L37 3L36 3L36 1L37 1L37 0L36 0L36 1L35 1L35 4L32 4L32 3L34 3L34 2L32 2L32 1L31 1L31 0L27 0L27 1L24 1L24 0L23 0L23 1L22 1L22 0L21 0L21 2L19 2L19 1L20 1L20 0L19 0L19 1L18 1L18 2L17 2L17 3L16 3L16 1L15 1L15 4L14 4L14 3L13 3L13 2L12 2L12 1L14 1L14 0L12 0L12 1L11 1L11 0ZM33 0L33 1L34 1L34 0ZM23 1L23 2L22 2L22 3L25 3L25 2L24 2L24 1ZM28 1L28 2L29 2L29 3L27 3L27 2L26 2L26 4L25 4L25 9L21 9L21 11L20 11L20 10L19 10L19 9L18 9L18 11L20 11L20 12L21 12L21 14L22 14L22 16L23 16L23 15L24 15L24 14L27 14L27 13L30 13L30 12L28 12L28 11L25 11L25 13L24 13L24 14L22 14L22 12L23 12L23 11L24 11L24 10L27 10L27 9L26 9L26 8L27 8L27 7L28 7L28 6L29 6L29 7L30 7L30 6L31 6L31 7L32 7L32 6L33 6L33 7L34 7L34 6L33 6L33 5L30 5L30 6L29 6L29 5L28 5L28 4L29 4L29 3L32 3L32 2L31 2L31 1L30 1L30 2L29 2L29 1ZM19 3L19 4L16 4L16 5L19 5L19 8L20 8L20 5L19 5L19 4L20 4L20 3ZM13 5L13 7L12 7L12 8L13 8L13 7L14 7L14 9L15 9L15 7L16 7L16 8L17 8L17 7L18 7L18 6L17 6L17 7L16 7L16 6L15 6L15 7L14 7L14 5ZM21 5L21 8L24 8L24 5ZM26 5L26 7L27 7L27 6L28 6L28 5ZM22 6L22 7L23 7L23 6ZM28 8L28 9L29 9L29 8ZM32 8L32 9L33 9L33 8ZM2 9L2 10L1 10L1 11L2 11L2 12L4 12L4 11L5 11L5 13L6 13L6 14L7 14L7 15L6 15L6 16L7 16L7 15L9 15L9 16L8 16L8 18L9 18L9 17L10 17L10 16L11 16L11 17L13 17L13 19L14 19L14 21L15 21L15 22L16 22L16 23L17 23L17 22L19 22L19 25L15 25L15 26L17 26L17 27L16 27L16 28L17 28L17 29L18 29L18 28L20 28L20 27L21 27L21 26L22 26L22 27L23 27L23 28L21 28L21 30L22 30L22 31L24 31L24 30L22 30L22 29L23 29L23 28L24 28L24 27L25 27L25 29L26 29L26 30L25 30L25 32L27 32L27 33L25 33L25 34L24 34L24 32L22 32L22 33L23 33L23 34L24 34L24 35L25 35L25 37L26 37L26 39L27 39L27 38L28 38L28 39L31 39L31 38L30 38L30 36L31 36L31 34L30 34L30 36L27 36L27 35L26 35L26 34L29 34L29 33L32 33L32 35L34 35L34 34L35 34L35 35L36 35L36 36L32 36L32 39L34 39L34 38L36 38L36 36L39 36L39 34L38 34L38 33L39 33L39 32L38 32L38 31L39 31L39 30L41 30L41 29L40 29L40 28L41 28L41 27L40 27L40 28L38 28L38 29L36 29L36 28L35 28L35 27L36 27L36 23L33 23L33 22L35 22L35 21L34 21L34 20L32 20L32 19L33 19L33 18L35 18L35 20L36 20L36 19L37 19L37 20L38 20L38 18L40 18L40 19L41 19L41 18L42 18L42 17L43 17L43 16L42 16L42 17L41 17L41 16L40 16L40 15L38 15L38 14L36 14L36 15L38 15L38 18L36 18L36 17L37 17L37 16L32 16L32 17L31 17L31 18L28 18L28 19L27 19L27 21L26 21L26 19L24 19L24 20L25 20L25 26L24 26L24 25L23 25L23 26L22 26L22 25L20 25L20 22L19 22L19 21L20 21L20 20L21 20L21 18L24 18L24 17L20 17L20 16L21 16L21 15L20 15L20 14L19 14L19 13L16 13L16 12L17 12L17 9L16 9L16 11L15 11L15 12L14 12L14 13L13 13L13 14L12 14L12 15L10 15L10 14L7 14L7 13L12 13L12 12L11 12L11 10L9 10L9 9L8 9L8 12L7 12L7 11L5 11L5 10L3 10L3 9ZM6 9L6 10L7 10L7 9ZM2 10L2 11L3 11L3 10ZM29 10L29 11L33 11L33 10ZM9 11L9 12L10 12L10 11ZM21 11L21 12L22 12L22 11ZM6 12L6 13L7 13L7 12ZM26 12L26 13L27 13L27 12ZM32 12L32 13L31 13L31 14L28 14L28 15L25 15L25 18L27 18L27 16L28 16L28 17L30 17L30 16L28 16L28 15L31 15L31 14L32 14L32 13L33 13L33 12ZM2 13L2 14L1 14L1 15L2 15L2 16L3 16L3 15L4 15L4 16L5 16L5 14L4 14L4 13ZM14 13L14 14L13 14L13 15L12 15L12 16L13 16L13 17L14 17L14 18L15 18L15 19L16 19L16 20L15 20L15 21L17 21L17 20L18 20L18 21L19 21L19 20L20 20L20 18L15 18L15 17L19 17L19 16L20 16L20 15L19 15L19 14L16 14L16 16L15 16L15 17L14 17L14 14L15 14L15 13ZM17 15L17 16L19 16L19 15ZM32 17L32 18L33 18L33 17ZM40 17L40 18L41 18L41 17ZM1 19L1 20L0 20L0 21L1 21L1 22L2 22L2 21L1 21L1 20L2 20L2 19ZM22 19L22 20L23 20L23 19ZM28 19L28 20L29 20L29 21L30 21L30 22L31 22L31 19ZM5 21L5 24L8 24L8 21ZM21 21L21 24L24 24L24 21ZM32 21L32 22L33 22L33 21ZM37 21L37 24L40 24L40 21ZM6 22L6 23L7 23L7 22ZM22 22L22 23L23 23L23 22ZM26 22L26 23L27 23L27 24L26 24L26 25L27 25L27 26L25 26L25 27L27 27L27 26L28 26L28 24L29 24L29 26L31 26L31 27L30 27L30 28L34 28L34 27L35 27L35 26L34 26L34 24L33 24L33 23L32 23L32 24L33 24L33 26L31 26L31 23L27 23L27 22ZM38 22L38 23L39 23L39 22ZM11 25L11 26L12 26L12 25ZM19 25L19 26L18 26L18 27L19 27L19 26L20 26L20 25ZM44 25L44 26L45 26L45 25ZM23 26L23 27L24 27L24 26ZM13 27L13 28L14 28L14 27ZM28 27L28 28L29 28L29 27ZM6 28L6 29L7 29L7 28ZM26 28L26 29L27 29L27 28ZM28 29L28 31L27 31L27 32L30 32L30 31L29 31L29 29ZM30 29L30 30L31 30L31 31L32 31L32 32L33 32L33 34L34 34L34 33L35 33L35 32L34 32L34 31L35 31L35 30L33 30L33 29L32 29L32 30L31 30L31 29ZM4 30L4 31L3 31L3 32L2 32L2 33L3 33L3 32L4 32L4 33L5 33L5 32L4 32L4 31L5 31L5 30ZM32 30L32 31L33 31L33 30ZM37 30L37 31L38 31L38 30ZM14 31L14 32L15 32L15 31ZM40 31L40 32L41 32L41 33L40 33L40 34L41 34L41 33L42 33L42 34L43 34L43 32L42 32L42 31ZM37 32L37 33L38 33L38 32ZM37 34L37 35L38 35L38 34ZM6 36L6 37L7 37L7 36ZM10 36L10 37L9 37L9 38L11 38L11 36ZM14 36L14 37L13 37L13 40L14 40L14 41L15 41L15 40L14 40L14 39L15 39L15 38L14 38L14 37L15 37L15 36ZM26 36L26 37L27 37L27 36ZM44 36L44 38L45 38L45 36ZM21 37L21 40L24 40L24 37ZM28 37L28 38L29 38L29 37ZM37 37L37 40L40 40L40 37ZM42 37L42 38L43 38L43 37ZM22 38L22 39L23 39L23 38ZM38 38L38 39L39 39L39 38ZM44 39L44 40L45 40L45 39ZM19 40L19 41L18 41L18 42L19 42L19 41L20 41L20 40ZM31 40L31 41L32 41L32 42L31 42L31 44L32 44L32 43L34 43L34 44L37 44L37 43L34 43L34 42L35 42L35 41L34 41L34 42L33 42L33 40ZM16 41L16 42L17 42L17 41ZM38 41L38 44L39 44L39 41ZM13 44L13 45L14 45L14 44ZM0 0L0 7L7 7L7 0ZM1 1L1 6L6 6L6 1ZM2 2L2 5L5 5L5 2ZM38 0L38 7L45 7L45 0ZM39 1L39 6L44 6L44 1ZM40 2L40 5L43 5L43 2ZM0 38L0 45L7 45L7 38ZM1 39L1 44L6 44L6 39ZM2 40L2 43L5 43L5 40Z" fill="#000000"/></g></g></svg>
