<?xml version="1.0" encoding="UTF-8"?>
<svg xmlns="http://www.w3.org/2000/svg" version="1.1" width="200" height="200" viewBox="0 0 200 200"><rect x="0" y="0" width="200" height="200" fill="#ffffff"/><g transform="scale(4.444)"><g transform="translate(0,0)"><path fill-rule="evenodd" d="M9 0L9 1L8 1L8 3L9 3L9 4L8 4L8 8L6 8L6 9L7 9L7 10L5 10L5 9L4 9L4 8L3 8L3 9L2 9L2 8L0 8L0 9L1 9L1 10L0 10L0 12L2 12L2 13L3 13L3 14L1 14L1 13L0 13L0 14L1 14L1 15L0 15L0 16L1 16L1 17L2 17L2 18L0 18L0 19L1 19L1 20L0 20L0 23L1 23L1 22L2 22L2 24L4 24L4 26L3 26L3 25L0 25L0 27L3 27L3 29L4 29L4 30L6 30L6 31L4 31L4 32L3 32L3 33L2 33L2 31L3 31L3 30L2 30L2 28L1 28L1 29L0 29L0 30L2 30L2 31L1 31L1 32L0 32L0 34L4 34L4 35L1 35L1 36L0 36L0 37L1 37L1 36L3 36L3 37L5 37L5 34L4 34L4 33L5 33L5 32L6 32L6 33L7 33L7 34L6 34L6 35L8 35L8 36L11 36L11 37L12 37L12 36L13 36L13 37L14 37L14 38L12 38L12 39L13 39L13 40L11 40L11 41L13 41L13 42L9 42L9 41L8 41L8 42L9 42L9 43L8 43L8 45L9 45L9 43L11 43L11 45L12 45L12 43L13 43L13 42L15 42L15 45L16 45L16 44L18 44L18 45L19 45L19 42L20 42L20 44L21 44L21 45L23 45L23 44L24 44L24 45L29 45L29 44L24 44L24 43L26 43L26 42L27 42L27 43L28 43L28 42L29 42L29 43L30 43L30 44L33 44L33 43L34 43L34 44L35 44L35 43L37 43L37 44L36 44L36 45L37 45L37 44L38 44L38 45L39 45L39 44L40 44L40 43L41 43L41 44L42 44L42 43L41 43L41 41L42 41L42 37L41 37L41 34L40 34L40 33L38 33L38 32L41 32L41 33L42 33L42 35L43 35L43 37L44 37L44 38L45 38L45 36L44 36L44 35L45 35L45 32L43 32L43 33L42 33L42 31L43 31L43 30L44 30L44 31L45 31L45 30L44 30L44 28L45 28L45 27L44 27L44 28L43 28L43 30L42 30L42 29L41 29L41 28L40 28L40 27L39 27L39 28L38 28L38 26L39 26L39 25L40 25L40 26L42 26L42 27L43 27L43 25L41 25L41 24L42 24L42 23L43 23L43 24L44 24L44 26L45 26L45 24L44 24L44 23L45 23L45 21L43 21L43 22L42 22L42 20L40 20L40 19L44 19L44 20L45 20L45 18L41 18L41 17L42 17L42 16L41 16L41 15L40 15L40 16L38 16L38 18L39 18L39 17L40 17L40 19L39 19L39 20L38 20L38 19L37 19L37 20L36 20L36 19L35 19L35 20L34 20L34 19L33 19L33 18L32 18L32 17L34 17L34 16L36 16L36 15L39 15L39 14L35 14L35 12L37 12L37 13L40 13L40 14L42 14L42 15L44 15L44 14L45 14L45 9L44 9L44 8L42 8L42 10L41 10L41 11L40 11L40 9L41 9L41 8L38 8L38 9L39 9L39 12L38 12L38 11L37 11L37 10L36 10L36 8L37 8L37 6L36 6L36 7L35 7L35 6L34 6L34 5L37 5L37 3L36 3L36 1L37 1L37 0L36 0L36 1L35 1L35 4L30 4L30 7L31 7L31 8L30 8L30 9L32 9L32 10L31 10L31 11L33 11L33 12L31 12L31 14L32 14L32 17L31 17L31 16L30 16L30 17L27 17L27 16L26 16L26 15L25 15L25 14L26 14L26 13L24 13L24 12L23 12L23 13L24 13L24 14L22 14L22 10L21 10L21 9L23 9L23 10L24 10L24 11L25 11L25 12L28 12L28 14L27 14L27 15L28 15L28 16L29 16L29 15L30 15L30 13L29 13L29 8L28 8L28 7L29 7L29 6L28 6L28 5L29 5L29 4L28 4L28 2L29 2L29 1L30 1L30 3L31 3L31 2L32 2L32 3L33 3L33 2L32 2L32 1L34 1L34 0L32 0L32 1L31 1L31 0L29 0L29 1L27 1L27 0L26 0L26 1L25 1L25 2L26 2L26 3L25 3L25 4L23 4L23 3L24 3L24 0L22 0L22 1L21 1L21 0L19 0L19 1L20 1L20 2L18 2L18 1L17 1L17 0L15 0L15 1L16 1L16 2L15 2L15 4L17 4L17 2L18 2L18 3L19 3L19 4L20 4L20 5L19 5L19 6L18 6L18 5L12 5L12 7L13 7L13 8L12 8L12 11L11 11L11 12L10 12L10 11L9 11L9 10L8 10L8 8L10 8L10 10L11 10L11 8L10 8L10 7L11 7L11 5L9 5L9 4L12 4L12 3L9 3L9 2L11 2L11 1L12 1L12 0L11 0L11 1L10 1L10 0ZM22 1L22 2L23 2L23 1ZM20 2L20 3L21 3L21 4L22 4L22 3L21 3L21 2ZM27 4L27 5L26 5L26 6L25 6L25 9L26 9L26 10L25 10L25 11L28 11L28 10L27 10L27 9L28 9L28 8L27 8L27 7L28 7L28 6L27 6L27 5L28 5L28 4ZM21 5L21 8L24 8L24 5ZM31 5L31 7L32 7L32 5ZM9 6L9 7L10 7L10 6ZM13 6L13 7L14 7L14 9L13 9L13 10L14 10L14 9L15 9L15 10L16 10L16 11L17 11L17 9L18 9L18 8L20 8L20 6L19 6L19 7L18 7L18 6L17 6L17 8L15 8L15 7L16 7L16 6L15 6L15 7L14 7L14 6ZM22 6L22 7L23 7L23 6ZM26 6L26 7L27 7L27 6ZM33 6L33 7L34 7L34 6ZM26 8L26 9L27 9L27 8ZM32 8L32 9L33 9L33 11L34 11L34 12L35 12L35 11L36 11L36 10L35 10L35 8ZM19 9L19 10L18 10L18 12L20 12L20 11L21 11L21 10L20 10L20 9ZM43 9L43 11L42 11L42 12L41 12L41 13L43 13L43 14L44 14L44 13L43 13L43 11L44 11L44 9ZM1 10L1 11L2 11L2 12L3 12L3 13L4 13L4 14L3 14L3 17L4 17L4 18L5 18L5 19L4 19L4 20L5 20L5 19L6 19L6 20L9 20L9 19L10 19L10 20L11 20L11 21L12 21L12 22L10 22L10 21L9 21L9 23L10 23L10 24L13 24L13 21L12 21L12 20L11 20L11 19L14 19L14 21L15 21L15 23L14 23L14 24L15 24L15 25L17 25L17 26L18 26L18 22L17 22L17 20L19 20L19 21L20 21L20 20L21 20L21 19L24 19L24 17L22 17L22 16L25 16L25 15L20 15L20 14L21 14L21 13L20 13L20 14L16 14L16 13L17 13L17 12L16 12L16 13L15 13L15 14L14 14L14 13L13 13L13 12L15 12L15 11L12 11L12 13L10 13L10 14L11 14L11 15L15 15L15 16L16 16L16 17L14 17L14 18L13 18L13 17L12 17L12 18L10 18L10 16L8 16L8 15L9 15L9 11L6 11L6 12L4 12L4 11L5 11L5 10L4 10L4 11L3 11L3 10ZM34 10L34 11L35 11L35 10ZM6 12L6 13L7 13L7 14L6 14L6 15L4 15L4 17L5 17L5 18L6 18L6 19L7 19L7 18L8 18L8 17L7 17L7 16L6 16L6 15L8 15L8 12ZM12 13L12 14L13 14L13 13ZM32 13L32 14L33 14L33 15L35 15L35 14L34 14L34 13ZM15 14L15 15L16 15L16 16L18 16L18 18L16 18L16 19L15 19L15 18L14 18L14 19L15 19L15 20L17 20L17 19L19 19L19 20L20 20L20 19L19 19L19 18L21 18L21 17L20 17L20 16L18 16L18 15L16 15L16 14ZM1 15L1 16L2 16L2 15ZM40 16L40 17L41 17L41 16ZM44 16L44 17L45 17L45 16ZM6 17L6 18L7 18L7 17ZM30 17L30 18L29 18L29 19L28 19L28 18L26 18L26 19L25 19L25 23L26 23L26 22L27 22L27 23L30 23L30 24L31 24L31 25L29 25L29 26L30 26L30 28L28 28L28 27L26 27L26 28L25 28L25 26L27 26L27 25L28 25L28 24L25 24L25 25L24 25L24 26L23 26L23 25L20 25L20 22L19 22L19 25L20 25L20 26L19 26L19 27L21 27L21 28L22 28L22 29L23 29L23 27L24 27L24 28L25 28L25 29L24 29L24 30L23 30L23 31L24 31L24 32L23 32L23 34L22 34L22 32L20 32L20 33L19 33L19 34L17 34L17 32L16 32L16 31L15 31L15 30L17 30L17 31L21 31L21 29L20 29L20 28L19 28L19 30L17 30L17 29L18 29L18 28L17 28L17 27L16 27L16 26L15 26L15 28L17 28L17 29L14 29L14 28L13 28L13 27L12 27L12 26L13 26L13 25L12 25L12 26L9 26L9 25L8 25L8 26L7 26L7 25L5 25L5 26L7 26L7 27L6 27L6 28L5 28L5 27L4 27L4 29L6 29L6 30L7 30L7 31L6 31L6 32L9 32L9 30L10 30L10 31L13 31L13 29L14 29L14 32L13 32L13 33L14 33L14 34L15 34L15 35L13 35L13 34L12 34L12 33L10 33L10 34L8 34L8 35L10 35L10 34L11 34L11 35L13 35L13 36L15 36L15 39L16 39L16 40L17 40L17 41L15 41L15 40L13 40L13 41L15 41L15 42L16 42L16 43L18 43L18 42L17 42L17 41L18 41L18 40L17 40L17 38L16 38L16 37L18 37L18 35L19 35L19 37L20 37L20 35L19 35L19 34L21 34L21 36L25 36L25 37L26 37L26 38L25 38L25 41L26 41L26 39L27 39L27 38L28 38L28 37L26 37L26 36L25 36L25 33L24 33L24 32L27 32L27 31L28 31L28 32L30 32L30 33L26 33L26 35L27 35L27 36L28 36L28 34L30 34L30 35L29 35L29 36L30 36L30 37L29 37L29 38L30 38L30 39L29 39L29 40L28 40L28 41L27 41L27 42L28 42L28 41L30 41L30 42L31 42L31 43L32 43L32 41L30 41L30 40L32 40L32 39L33 39L33 38L34 38L34 39L35 39L35 40L36 40L36 38L34 38L34 37L33 37L33 38L32 38L32 36L35 36L35 37L36 37L36 36L35 36L35 35L37 35L37 36L38 36L38 34L37 34L37 33L36 33L36 34L35 34L35 32L36 32L36 28L37 28L37 29L38 29L38 28L37 28L37 27L35 27L35 26L33 26L33 25L34 25L34 24L36 24L36 23L32 23L32 24L31 24L31 22L32 22L32 21L33 21L33 22L35 22L35 21L33 21L33 20L32 20L32 18L31 18L31 17ZM2 18L2 19L3 19L3 18ZM27 19L27 20L26 20L26 21L28 21L28 22L30 22L30 21L32 21L32 20L31 20L31 19L30 19L30 20L28 20L28 19ZM1 20L1 21L3 21L3 22L4 22L4 21L3 21L3 20ZM5 21L5 24L8 24L8 21ZM21 21L21 24L24 24L24 21ZM37 21L37 24L40 24L40 21ZM6 22L6 23L7 23L7 22ZM22 22L22 23L23 23L23 22ZM38 22L38 23L39 23L39 22ZM41 22L41 23L42 23L42 22ZM43 22L43 23L44 23L44 22ZM15 23L15 24L17 24L17 23ZM32 24L32 25L33 25L33 24ZM36 25L36 26L38 26L38 25ZM8 26L8 27L7 27L7 28L6 28L6 29L7 29L7 28L8 28L8 27L9 27L9 29L8 29L8 30L9 30L9 29L11 29L11 28L12 28L12 27L11 27L11 28L10 28L10 27L9 27L9 26ZM21 26L21 27L23 27L23 26ZM31 26L31 27L32 27L32 29L31 29L31 31L30 31L30 32L31 32L31 31L32 31L32 32L35 32L35 31L32 31L32 29L35 29L35 28L34 28L34 27L33 27L33 26ZM27 28L27 29L25 29L25 30L28 30L28 31L29 31L29 30L30 30L30 29L28 29L28 28ZM39 29L39 31L41 31L41 29ZM37 31L37 32L38 32L38 31ZM31 33L31 34L32 34L32 35L31 35L31 36L32 36L32 35L35 35L35 34L34 34L34 33L33 33L33 34L32 34L32 33ZM43 33L43 35L44 35L44 33ZM16 34L16 35L15 35L15 36L16 36L16 35L17 35L17 34ZM23 34L23 35L24 35L24 34ZM39 34L39 35L40 35L40 34ZM6 36L6 37L7 37L7 36ZM8 37L8 39L9 39L9 40L10 40L10 39L9 39L9 37ZM21 37L21 40L24 40L24 37ZM37 37L37 40L40 40L40 37ZM19 38L19 40L20 40L20 38ZM22 38L22 39L23 39L23 38ZM38 38L38 39L39 39L39 38ZM43 39L43 41L44 41L44 42L45 42L45 39ZM33 40L33 41L34 41L34 43L35 43L35 41L34 41L34 40ZM20 41L20 42L22 42L22 43L21 43L21 44L22 44L22 43L24 43L24 41ZM36 41L36 42L38 42L38 41ZM39 42L39 43L38 43L38 44L39 44L39 43L40 43L40 42ZM13 44L13 45L14 45L14 44ZM43 44L43 45L44 45L44 44ZM0 0L0 7L7 7L7 0ZM1 1L1 6L6 6L6 1ZM2 2L2 5L5 5L5 2ZM38 0L38 7L45 7L45 0ZM39 1L39 6L44 6L44 1ZM40 2L40 5L43 5L43 2ZM0 38L0 45L7 45L7 38ZM1 39L1 44L6 44L6 39ZM2 40L2 43L5 43L5 40Z" fill="#000000"/></g></g></svg>
