<?xml version="1.0" encoding="UTF-8"?>
<svg xmlns="http://www.w3.org/2000/svg" version="1.1" width="200" height="200" viewBox="0 0 200 200"><rect x="0" y="0" width="200" height="200" fill="#ffffff"/><g transform="scale(4.878)"><g transform="translate(0,0)"><path fill-rule="evenodd" d="M8 0L8 1L10 1L10 0ZM12 0L12 1L11 1L11 2L10 2L10 4L11 4L11 2L12 2L12 1L13 1L13 0ZM14 0L14 1L15 1L15 0ZM17 0L17 1L16 1L16 2L15 2L15 4L14 4L14 7L13 7L13 3L12 3L12 7L13 7L13 8L14 8L14 9L15 9L15 10L14 10L14 12L13 12L13 9L12 9L12 11L11 11L11 6L10 6L10 9L7 9L7 8L6 8L6 9L5 9L5 8L3 8L3 10L2 10L2 8L0 8L0 10L1 10L1 11L0 11L0 14L1 14L1 15L2 15L2 14L4 14L4 15L3 15L3 16L4 16L4 17L2 17L2 16L0 16L0 17L1 17L1 18L0 18L0 19L1 19L1 18L4 18L4 19L3 19L3 22L4 22L4 23L5 23L5 22L6 22L6 23L8 23L8 22L9 22L9 21L8 21L8 22L6 22L6 21L7 21L7 20L6 20L6 19L7 19L7 18L10 18L10 19L8 19L8 20L10 20L10 19L11 19L11 20L13 20L13 21L12 21L12 22L11 22L11 23L9 23L9 24L5 24L5 25L9 25L9 26L8 26L8 27L7 27L7 26L4 26L4 25L3 25L3 23L1 23L1 22L0 22L0 24L2 24L2 26L0 26L0 28L1 28L1 29L0 29L0 33L2 33L2 31L3 31L3 29L4 29L4 27L7 27L7 28L6 28L6 29L7 29L7 30L6 30L6 31L8 31L8 32L9 32L9 33L8 33L8 34L9 34L9 33L11 33L11 35L12 35L12 36L11 36L11 37L12 37L12 38L13 38L13 37L14 37L14 38L15 38L15 39L14 39L14 40L13 40L13 39L12 39L12 40L10 40L10 41L12 41L12 40L13 40L13 41L16 41L16 40L17 40L17 39L18 39L18 41L19 41L19 39L20 39L20 40L21 40L21 39L22 39L22 40L23 40L23 41L26 41L26 40L23 40L23 38L24 38L24 39L26 39L26 38L27 38L27 41L29 41L29 39L30 39L30 41L31 41L31 38L29 38L29 36L31 36L31 37L33 37L33 38L32 38L32 39L34 39L34 37L35 37L35 38L36 38L36 39L37 39L37 40L32 40L32 41L37 41L37 40L39 40L39 38L40 38L40 40L41 40L41 35L39 35L39 34L40 34L40 33L39 33L39 32L40 32L40 31L41 31L41 30L40 30L40 29L41 29L41 25L40 25L40 22L39 22L39 20L41 20L41 18L40 18L40 16L39 16L39 14L40 14L40 15L41 15L41 12L39 12L39 13L36 13L36 12L38 12L38 11L40 11L40 9L41 9L41 8L40 8L40 9L35 9L35 8L34 8L34 9L35 9L35 10L33 10L33 9L32 9L32 8L31 8L31 6L30 6L30 5L29 5L29 4L30 4L30 3L29 3L29 2L28 2L28 3L29 3L29 4L28 4L28 5L29 5L29 6L28 6L28 8L26 8L26 7L27 7L27 4L26 4L26 3L27 3L27 0L24 0L24 2L22 2L22 0L21 0L21 1L19 1L19 0ZM29 0L29 1L31 1L31 2L33 2L33 0L32 0L32 1L31 1L31 0ZM17 1L17 3L18 3L18 4L19 4L19 3L20 3L20 2L19 2L19 1ZM25 1L25 2L26 2L26 1ZM23 3L23 4L22 4L22 5L21 5L21 4L20 4L20 5L19 5L19 7L18 7L18 6L17 6L17 4L16 4L16 5L15 5L15 7L14 7L14 8L15 8L15 9L16 9L16 11L15 11L15 12L16 12L16 13L18 13L18 14L17 14L17 17L16 17L16 19L15 19L15 18L13 18L13 17L12 17L12 16L14 16L14 17L15 17L15 16L14 16L14 15L15 15L15 13L14 13L14 14L13 14L13 13L12 13L12 12L11 12L11 11L10 11L10 12L11 12L11 13L10 13L10 15L9 15L9 14L8 14L8 13L9 13L9 12L8 12L8 10L7 10L7 9L6 9L6 10L7 10L7 11L5 11L5 12L4 12L4 13L5 13L5 17L4 17L4 18L5 18L5 17L6 17L6 18L7 18L7 17L6 17L6 16L8 16L8 17L9 17L9 16L10 16L10 17L11 17L11 18L13 18L13 20L14 20L14 19L15 19L15 20L16 20L16 19L17 19L17 20L18 20L18 19L19 19L19 18L18 18L18 19L17 19L17 17L20 17L20 18L21 18L21 19L20 19L20 20L19 20L19 21L20 21L20 22L18 22L18 21L17 21L17 22L18 22L18 24L16 24L16 25L17 25L17 26L16 26L16 29L15 29L15 30L14 30L14 28L15 28L15 26L14 26L14 27L13 27L13 29L12 29L12 30L11 30L11 29L10 29L10 30L9 30L9 28L7 28L7 29L8 29L8 30L9 30L9 31L12 31L12 32L13 32L13 33L14 33L14 37L15 37L15 38L16 38L16 37L15 37L15 34L16 34L16 35L18 35L18 34L19 34L19 36L21 36L21 37L19 37L19 38L20 38L20 39L21 39L21 38L22 38L22 37L23 37L23 35L21 35L21 34L23 34L23 33L24 33L24 32L25 32L25 35L24 35L24 38L26 38L26 37L28 37L28 36L26 36L26 35L27 35L27 34L26 34L26 32L28 32L28 33L29 33L29 34L28 34L28 35L30 35L30 33L29 33L29 32L30 32L30 31L31 31L31 32L32 32L32 31L31 31L31 28L32 28L32 29L33 29L33 28L34 28L34 30L33 30L33 32L35 32L35 31L36 31L36 29L39 29L39 28L40 28L40 25L39 25L39 22L38 22L38 17L39 17L39 16L38 16L38 15L37 15L37 16L36 16L36 15L35 15L35 14L34 14L34 12L33 12L33 13L31 13L31 12L32 12L32 11L33 11L33 10L30 10L30 9L29 9L29 10L28 10L28 11L27 11L27 10L26 10L26 8L24 8L24 6L23 6L23 7L22 7L22 5L24 5L24 3ZM25 4L25 7L26 7L26 4ZM31 4L31 5L32 5L32 7L33 7L33 5L32 5L32 4ZM20 5L20 7L19 7L19 8L20 8L20 7L21 7L21 5ZM8 6L8 8L9 8L9 6ZM16 6L16 9L17 9L17 10L20 10L20 11L17 11L17 12L19 12L19 13L21 13L21 12L20 12L20 11L22 11L22 13L23 13L23 14L22 14L22 16L23 16L23 17L24 17L24 18L22 18L22 19L23 19L23 21L22 21L22 22L20 22L20 23L19 23L19 24L18 24L18 26L17 26L17 27L18 27L18 29L17 29L17 30L18 30L18 32L16 32L16 33L17 33L17 34L18 34L18 33L19 33L19 34L21 34L21 33L20 33L20 32L21 32L21 31L22 31L22 33L23 33L23 31L24 31L24 30L26 30L26 28L27 28L27 31L28 31L28 32L29 32L29 31L30 31L30 29L29 29L29 27L28 27L28 25L27 25L27 26L26 26L26 28L25 28L25 25L26 25L26 24L25 24L25 25L23 25L23 24L22 24L22 25L23 25L23 26L24 26L24 27L22 27L22 26L21 26L21 24L20 24L20 23L25 23L25 22L24 22L24 20L27 20L27 21L26 21L26 23L27 23L27 24L30 24L30 23L31 23L31 25L30 25L30 26L31 26L31 27L32 27L32 28L33 28L33 27L35 27L35 25L36 25L36 26L37 26L37 28L39 28L39 27L38 27L38 26L39 26L39 25L38 25L38 24L37 24L37 25L36 25L36 24L35 24L35 23L34 23L34 22L32 22L32 18L34 18L34 17L33 17L33 16L35 16L35 17L36 17L36 18L35 18L35 19L36 19L36 20L37 20L37 19L36 19L36 18L37 18L37 17L36 17L36 16L35 16L35 15L33 15L33 14L31 14L31 13L30 13L30 14L29 14L29 13L27 13L27 14L24 14L24 13L25 13L25 9L24 9L24 8L22 8L22 9L21 9L21 10L20 10L20 9L18 9L18 8L17 8L17 6ZM29 6L29 8L30 8L30 6ZM22 9L22 10L23 10L23 9ZM29 10L29 12L31 12L31 11L30 11L30 10ZM35 10L35 12L36 12L36 10ZM37 10L37 11L38 11L38 10ZM1 11L1 14L2 14L2 13L3 13L3 12L2 12L2 11ZM23 11L23 12L24 12L24 11ZM26 11L26 12L27 12L27 11ZM5 12L5 13L8 13L8 12ZM6 14L6 15L7 15L7 14ZM11 14L11 15L10 15L10 16L12 16L12 15L13 15L13 14ZM19 14L19 15L20 15L20 14ZM23 14L23 16L24 16L24 14ZM8 15L8 16L9 16L9 15ZM25 15L25 16L26 16L26 17L25 17L25 18L26 18L26 17L27 17L27 16L28 16L28 17L29 17L29 18L30 18L30 17L32 17L32 15L31 15L31 16L30 16L30 15L29 15L29 16L28 16L28 15ZM20 16L20 17L21 17L21 16ZM39 18L39 19L40 19L40 18ZM27 19L27 20L30 20L30 21L31 21L31 19ZM1 20L1 21L2 21L2 20ZM20 20L20 21L21 21L21 20ZM33 20L33 21L35 21L35 22L36 22L36 23L37 23L37 21L35 21L35 20ZM4 21L4 22L5 22L5 21ZM13 21L13 22L12 22L12 23L13 23L13 24L12 24L12 25L11 25L11 24L10 24L10 26L11 26L11 27L10 27L10 28L12 28L12 26L13 26L13 25L15 25L15 23L13 23L13 22L14 22L14 21ZM27 21L27 22L28 22L28 23L29 23L29 21ZM31 22L31 23L32 23L32 24L33 24L33 25L31 25L31 26L34 26L34 23L32 23L32 22ZM19 25L19 26L20 26L20 27L21 27L21 28L19 28L19 29L18 29L18 30L19 30L19 29L22 29L22 27L21 27L21 26L20 26L20 25ZM2 26L2 27L1 27L1 28L2 28L2 27L3 27L3 26ZM27 27L27 28L28 28L28 27ZM35 28L35 29L36 29L36 28ZM1 29L1 30L2 30L2 29ZM23 29L23 30L22 30L22 31L23 31L23 30L24 30L24 29ZM28 29L28 31L29 31L29 29ZM4 30L4 32L3 32L3 33L7 33L7 32L5 32L5 30ZM12 30L12 31L13 31L13 32L14 32L14 33L15 33L15 32L14 32L14 30ZM15 30L15 31L16 31L16 30ZM20 30L20 31L21 31L21 30ZM39 30L39 31L40 31L40 30ZM25 31L25 32L26 32L26 31ZM33 33L33 36L36 36L36 33ZM34 34L34 35L35 35L35 34ZM37 35L37 36L38 36L38 37L40 37L40 36L39 36L39 35ZM8 36L8 38L10 38L10 39L11 39L11 38L10 38L10 36ZM12 36L12 37L13 37L13 36ZM17 36L17 37L18 37L18 36ZM36 37L36 38L37 38L37 37ZM8 39L8 41L9 41L9 39ZM0 0L0 7L7 7L7 0ZM1 1L1 6L6 6L6 1ZM2 2L2 5L5 5L5 2ZM34 0L34 7L41 7L41 0ZM35 1L35 6L40 6L40 1ZM36 2L36 5L39 5L39 2ZM0 34L0 41L7 41L7 34ZM1 35L1 40L6 40L6 35ZM2 36L2 39L5 39L5 36Z" fill="#000000"/></g></g></svg>
