<?xml version="1.0" encoding="UTF-8"?>
<svg xmlns="http://www.w3.org/2000/svg" version="1.1" width="200" height="200" viewBox="0 0 200 200"><rect x="0" y="0" width="200" height="200" fill="#ffffff"/><g transform="scale(4.878)"><g transform="translate(0,0)"><path fill-rule="evenodd" d="M8 0L8 1L9 1L9 2L8 2L8 5L9 5L9 3L10 3L10 5L11 5L11 6L10 6L10 8L8 8L8 9L7 9L7 8L6 8L6 9L5 9L5 10L4 10L4 8L0 8L0 10L1 10L1 11L0 11L0 12L1 12L1 11L2 11L2 13L0 13L0 14L2 14L2 15L0 15L0 16L1 16L1 17L2 17L2 15L3 15L3 16L4 16L4 15L3 15L3 14L5 14L5 16L6 16L6 17L4 17L4 18L5 18L5 19L4 19L4 20L3 20L3 18L2 18L2 19L0 19L0 21L1 21L1 22L2 22L2 20L3 20L3 21L4 21L4 20L5 20L5 19L8 19L8 18L6 18L6 17L7 17L7 16L6 16L6 15L9 15L9 14L10 14L10 15L11 15L11 14L12 14L12 16L8 16L8 17L9 17L9 18L10 18L10 17L11 17L11 18L12 18L12 19L13 19L13 18L14 18L14 16L16 16L16 17L15 17L15 19L16 19L16 17L17 17L17 16L16 16L16 15L14 15L14 16L13 16L13 14L12 14L12 12L13 12L13 11L14 11L14 9L16 9L16 11L15 11L15 12L14 12L14 14L15 14L15 13L17 13L17 15L18 15L18 18L19 18L19 16L20 16L20 19L21 19L21 17L22 17L22 18L24 18L24 19L26 19L26 21L25 21L25 24L24 24L24 21L22 21L22 20L21 20L21 22L20 22L20 21L18 21L18 20L19 20L19 19L17 19L17 20L16 20L16 21L14 21L14 20L13 20L13 22L14 22L14 23L11 23L11 21L10 21L10 19L9 19L9 20L8 20L8 22L6 22L6 23L8 23L8 24L6 24L6 25L5 25L5 27L4 27L4 28L2 28L2 26L1 26L1 25L3 25L3 24L5 24L5 22L3 22L3 24L1 24L1 25L0 25L0 27L1 27L1 30L0 30L0 31L1 31L1 30L2 30L2 29L4 29L4 28L6 28L6 29L8 29L8 30L9 30L9 29L10 29L10 30L11 30L11 29L10 29L10 28L11 28L11 26L10 26L10 24L11 24L11 25L13 25L13 26L14 26L14 27L13 27L13 28L12 28L12 29L13 29L13 30L14 30L14 31L17 31L17 33L16 33L16 35L15 35L15 32L14 32L14 35L13 35L13 36L12 36L12 34L13 34L13 33L10 33L10 32L12 32L12 31L10 31L10 32L9 32L9 31L7 31L7 30L6 30L6 31L5 31L5 30L3 30L3 31L5 31L5 33L8 33L8 34L9 34L9 37L8 37L8 41L9 41L9 37L10 37L10 34L11 34L11 36L12 36L12 37L11 37L11 39L10 39L10 41L11 41L11 40L12 40L12 38L14 38L14 37L13 37L13 36L16 36L16 35L18 35L18 37L19 37L19 39L18 39L18 41L19 41L19 39L20 39L20 41L24 41L24 40L25 40L25 41L27 41L27 40L25 40L25 39L27 39L27 38L29 38L29 39L30 39L30 40L31 40L31 41L34 41L34 40L33 40L33 38L34 38L34 37L36 37L36 38L37 38L37 41L38 41L38 39L39 39L39 41L40 41L40 39L41 39L41 37L39 37L39 36L41 36L41 35L40 35L40 34L41 34L41 33L39 33L39 30L40 30L40 29L41 29L41 28L39 28L39 29L37 29L37 28L38 28L38 26L39 26L39 27L41 27L41 24L40 24L40 23L39 23L39 24L38 24L38 23L37 23L37 25L38 25L38 26L36 26L36 25L34 25L34 26L36 26L36 27L37 27L37 28L35 28L35 30L34 30L34 31L35 31L35 32L33 32L33 31L31 31L31 33L30 33L30 31L29 31L29 30L28 30L28 29L29 29L29 28L28 28L28 27L29 27L29 26L30 26L30 24L31 24L31 23L30 23L30 22L32 22L32 23L33 23L33 22L37 22L37 20L38 20L38 21L39 21L39 22L41 22L41 20L40 20L40 19L38 19L38 18L39 18L39 17L37 17L37 15L38 15L38 13L39 13L39 16L41 16L41 11L40 11L40 10L41 10L41 8L40 8L40 9L39 9L39 8L36 8L36 9L34 9L34 8L33 8L33 6L32 6L32 4L33 4L33 3L32 3L32 4L30 4L30 3L31 3L31 2L30 2L30 3L29 3L29 4L28 4L28 3L26 3L26 2L25 2L25 0L21 0L21 1L20 1L20 0L19 0L19 1L20 1L20 2L21 2L21 1L23 1L23 2L22 2L22 4L23 4L23 2L24 2L24 3L25 3L25 4L24 4L24 7L23 7L23 5L21 5L21 4L19 4L19 6L18 6L18 5L17 5L17 4L16 4L16 3L17 3L17 0L16 0L16 3L15 3L15 1L14 1L14 2L11 2L11 1L12 1L12 0L11 0L11 1L10 1L10 0ZM28 0L28 2L29 2L29 0ZM30 0L30 1L32 1L32 2L33 2L33 1L32 1L32 0ZM10 2L10 3L11 3L11 2ZM13 3L13 4L12 4L12 6L11 6L11 7L12 7L12 8L11 8L11 9L9 9L9 10L7 10L7 9L6 9L6 10L7 10L7 11L4 11L4 10L3 10L3 9L1 9L1 10L3 10L3 11L4 11L4 12L5 12L5 14L9 14L9 12L8 12L8 13L6 13L6 12L7 12L7 11L11 11L11 12L10 12L10 13L11 13L11 12L12 12L12 11L11 11L11 10L13 10L13 9L14 9L14 5L16 5L16 4L15 4L15 3ZM13 4L13 5L14 5L14 4ZM26 4L26 5L27 5L27 7L26 7L26 6L25 6L25 10L24 10L24 12L23 12L23 10L21 10L21 8L23 8L23 9L24 9L24 8L23 8L23 7L22 7L22 6L21 6L21 5L20 5L20 6L19 6L19 7L18 7L18 6L17 6L17 7L18 7L18 9L17 9L17 13L18 13L18 15L19 15L19 13L20 13L20 12L18 12L18 11L21 11L21 14L20 14L20 16L21 16L21 14L22 14L22 12L23 12L23 16L22 16L22 17L23 17L23 16L25 16L25 17L24 17L24 18L26 18L26 17L27 17L27 16L28 16L28 17L29 17L29 18L28 18L28 19L27 19L27 20L28 20L28 19L29 19L29 18L31 18L31 19L30 19L30 20L29 20L29 21L27 21L27 22L26 22L26 23L27 23L27 24L28 24L28 26L26 26L26 25L24 25L24 24L22 24L22 23L23 23L23 22L22 22L22 23L21 23L21 24L19 24L19 23L20 23L20 22L18 22L18 21L17 21L17 22L16 22L16 24L15 24L15 23L14 23L14 24L15 24L15 25L16 25L16 26L15 26L15 27L14 27L14 28L13 28L13 29L14 29L14 30L16 30L16 28L17 28L17 31L20 31L20 32L19 32L19 33L18 33L18 34L19 34L19 36L20 36L20 38L23 38L23 39L22 39L22 40L23 40L23 39L25 39L25 38L26 38L26 37L29 37L29 36L30 36L30 37L32 37L32 38L30 38L30 39L32 39L32 38L33 38L33 37L32 37L32 35L31 35L31 36L30 36L30 35L29 35L29 34L30 34L30 33L29 33L29 32L28 32L28 31L27 31L27 27L28 27L28 26L29 26L29 24L30 24L30 23L29 23L29 21L30 21L30 20L32 20L32 21L33 21L33 20L35 20L35 21L36 21L36 20L37 20L37 17L36 17L36 18L35 18L35 14L37 14L37 12L39 12L39 11L38 11L38 10L39 10L39 9L38 9L38 10L34 10L34 11L36 11L36 13L35 13L35 12L33 12L33 13L32 13L32 12L31 12L31 13L32 13L32 14L33 14L33 13L35 13L35 14L34 14L34 15L33 15L33 16L34 16L34 18L33 18L33 19L32 19L32 15L31 15L31 14L30 14L30 15L29 15L29 16L28 16L28 14L26 14L26 13L27 13L27 12L26 12L26 13L25 13L25 14L24 14L24 12L25 12L25 11L29 11L29 12L28 12L28 13L29 13L29 12L30 12L30 11L33 11L33 8L31 8L31 7L32 7L32 6L31 6L31 7L30 7L30 4L29 4L29 5L27 5L27 4ZM8 6L8 7L9 7L9 6ZM12 6L12 7L13 7L13 6ZM15 6L15 7L16 7L16 6ZM20 6L20 7L19 7L19 8L21 8L21 6ZM28 6L28 10L29 10L29 9L30 9L30 10L32 10L32 9L30 9L30 7L29 7L29 6ZM12 8L12 9L13 9L13 8ZM26 8L26 10L27 10L27 8ZM18 9L18 10L20 10L20 9ZM25 14L25 15L26 15L26 14ZM30 15L30 17L31 17L31 15ZM12 16L12 17L13 17L13 16ZM35 19L35 20L36 20L36 19ZM6 20L6 21L7 21L7 20ZM39 20L39 21L40 21L40 20ZM8 22L8 23L10 23L10 22ZM28 23L28 24L29 24L29 23ZM34 23L34 24L35 24L35 23ZM8 24L8 25L6 25L6 26L8 26L8 29L9 29L9 28L10 28L10 26L9 26L9 24ZM17 24L17 26L16 26L16 27L18 27L18 30L19 30L19 27L21 27L21 29L20 29L20 30L21 30L21 31L23 31L23 32L21 32L21 33L19 33L19 34L20 34L20 36L21 36L21 33L23 33L23 34L22 34L22 35L23 35L23 36L22 36L22 37L23 37L23 36L24 36L24 37L26 37L26 35L27 35L27 36L29 36L29 35L27 35L27 34L26 34L26 33L27 33L27 32L26 32L26 33L25 33L25 30L24 30L24 29L23 29L23 28L25 28L25 29L26 29L26 28L25 28L25 27L26 27L26 26L25 26L25 27L23 27L23 28L22 28L22 27L21 27L21 26L20 26L20 25L19 25L19 27L18 27L18 24ZM31 25L31 27L30 27L30 30L31 30L31 29L32 29L32 30L33 30L33 29L34 29L34 28L33 28L33 29L32 29L32 28L31 28L31 27L33 27L33 26L32 26L32 25ZM39 25L39 26L40 26L40 25ZM6 27L6 28L7 28L7 27ZM36 29L36 30L35 30L35 31L36 31L36 32L38 32L38 30L37 30L37 29ZM23 30L23 31L24 31L24 30ZM6 31L6 32L7 32L7 31ZM1 32L1 33L4 33L4 32ZM9 33L9 34L10 34L10 33ZM33 33L33 36L36 36L36 33ZM38 33L38 34L39 34L39 33ZM24 34L24 36L25 36L25 35L26 35L26 34ZM34 34L34 35L35 35L35 34ZM38 35L38 36L37 36L37 38L38 38L38 36L39 36L39 35ZM16 37L16 38L15 38L15 39L16 39L16 40L13 40L13 41L16 41L16 40L17 40L17 37ZM28 40L28 41L29 41L29 40ZM35 40L35 41L36 41L36 40ZM0 0L0 7L7 7L7 0ZM1 1L1 6L6 6L6 1ZM2 2L2 5L5 5L5 2ZM34 0L34 7L41 7L41 0ZM35 1L35 6L40 6L40 1ZM36 2L36 5L39 5L39 2ZM0 34L0 41L7 41L7 34ZM1 35L1 40L6 40L6 35ZM2 36L2 39L5 39L5 36Z" fill="#000000"/></g></g></svg>
