<?xml version="1.0" encoding="UTF-8"?>
<svg xmlns="http://www.w3.org/2000/svg" version="1.1" width="200" height="200" viewBox="0 0 200 200"><rect x="0" y="0" width="200" height="200" fill="#ffffff"/><g transform="scale(4.878)"><g transform="translate(0,0)"><path fill-rule="evenodd" d="M9 0L9 1L8 1L8 2L9 2L9 3L8 3L8 4L9 4L9 5L8 5L8 7L9 7L9 5L10 5L10 7L11 7L11 8L6 8L6 9L8 9L8 11L7 11L7 10L6 10L6 11L7 11L7 12L6 12L6 13L7 13L7 14L6 14L6 15L5 15L5 13L4 13L4 14L2 14L2 13L1 13L1 12L0 12L0 19L1 19L1 18L2 18L2 20L0 20L0 26L1 26L1 24L2 24L2 23L4 23L4 22L5 22L5 18L6 18L6 19L7 19L7 18L8 18L8 19L10 19L10 20L6 20L6 21L7 21L7 22L6 22L6 23L5 23L5 25L4 25L4 24L3 24L3 26L5 26L5 27L7 27L7 26L5 26L5 25L7 25L7 24L8 24L8 25L9 25L9 26L10 26L10 28L8 28L8 29L7 29L7 28L6 28L6 29L5 29L5 32L4 32L4 31L2 31L2 33L3 33L3 32L4 32L4 33L5 33L5 32L6 32L6 33L7 33L7 32L9 32L9 31L11 31L11 32L10 32L10 33L11 33L11 34L9 34L9 33L8 33L8 35L10 35L10 37L12 37L12 38L13 38L13 37L12 37L12 35L11 35L11 34L12 34L12 33L13 33L13 36L14 36L14 37L15 37L15 38L14 38L14 39L15 39L15 40L13 40L13 39L12 39L12 41L15 41L15 40L17 40L17 41L18 41L18 40L17 40L17 38L18 38L18 36L19 36L19 34L20 34L20 33L21 33L21 35L20 35L20 36L22 36L22 37L19 37L19 38L20 38L20 40L19 40L19 41L21 41L21 40L22 40L22 39L21 39L21 38L22 38L22 37L23 37L23 38L24 38L24 40L23 40L23 41L26 41L26 40L25 40L25 37L27 37L27 36L25 36L25 33L30 33L30 36L28 36L28 38L26 38L26 39L27 39L27 41L32 41L32 40L33 40L33 41L35 41L35 38L36 38L36 39L37 39L37 38L36 38L36 37L37 37L37 35L38 35L38 33L39 33L39 36L38 36L38 37L39 37L39 36L40 36L40 38L41 38L41 36L40 36L40 34L41 34L41 32L38 32L38 33L37 33L37 32L34 32L34 31L35 31L35 29L34 29L34 28L35 28L35 25L32 25L32 24L34 24L34 22L37 22L37 23L36 23L36 24L38 24L38 25L39 25L39 26L41 26L41 23L40 23L40 22L41 22L41 21L39 21L39 20L38 20L38 18L41 18L41 17L40 17L40 16L41 16L41 15L39 15L39 16L38 16L38 14L37 14L37 13L39 13L39 12L38 12L38 11L37 11L37 10L38 10L38 8L37 8L37 9L36 9L36 8L35 8L35 9L34 9L34 8L33 8L33 6L32 6L32 7L31 7L31 6L30 6L30 8L29 8L29 6L28 6L28 5L33 5L33 3L32 3L32 2L30 2L30 3L29 3L29 0L28 0L28 1L26 1L26 3L23 3L23 0L21 0L21 3L20 3L20 2L19 2L19 1L20 1L20 0L16 0L16 1L14 1L14 0L13 0L13 3L14 3L14 4L9 4L9 3L10 3L10 2L9 2L9 1L11 1L11 2L12 2L12 1L11 1L11 0ZM30 0L30 1L32 1L32 0ZM16 1L16 2L14 2L14 3L15 3L15 4L14 4L14 5L15 5L15 4L16 4L16 5L17 5L17 7L16 7L16 6L15 6L15 7L16 7L16 9L17 9L17 10L16 10L16 11L15 11L15 9L12 9L12 8L14 8L14 6L13 6L13 7L12 7L12 6L11 6L11 7L12 7L12 8L11 8L11 10L10 10L10 9L9 9L9 10L10 10L10 11L9 11L9 14L10 14L10 16L9 16L9 15L8 15L8 16L7 16L7 15L6 15L6 16L5 16L5 15L2 15L2 14L1 14L1 15L2 15L2 16L4 16L4 17L3 17L3 18L4 18L4 17L6 17L6 18L7 18L7 17L8 17L8 18L9 18L9 17L10 17L10 19L12 19L12 18L11 18L11 17L10 17L10 16L11 16L11 14L13 14L13 15L12 15L12 16L15 16L15 17L14 17L14 18L16 18L16 19L14 19L14 20L11 20L11 25L12 25L12 23L13 23L13 24L14 24L14 25L13 25L13 26L11 26L11 28L10 28L10 29L9 29L9 30L13 30L13 31L12 31L12 32L13 32L13 33L14 33L14 34L18 34L18 33L20 33L20 30L19 30L19 31L18 31L18 29L17 29L17 28L18 28L18 27L19 27L19 29L22 29L22 28L23 28L23 27L24 27L24 26L21 26L21 25L23 25L23 24L26 24L26 23L24 23L24 22L19 22L19 21L20 21L20 20L21 20L21 21L22 21L22 20L21 20L21 17L23 17L23 18L22 18L22 19L24 19L24 18L25 18L25 20L26 20L26 22L28 22L28 20L26 20L26 16L27 16L27 14L28 14L28 17L27 17L27 18L28 18L28 19L29 19L29 20L30 20L30 22L29 22L29 24L28 24L28 25L26 25L26 26L29 26L29 28L28 28L28 27L25 27L25 28L28 28L28 29L27 29L27 30L25 30L25 32L23 32L23 31L24 31L24 30L22 30L22 32L21 32L21 33L25 33L25 32L26 32L26 31L27 31L27 32L30 32L30 31L31 31L31 33L32 33L32 31L34 31L34 30L30 30L30 29L31 29L31 28L32 28L32 29L33 29L33 27L34 27L34 26L33 26L33 27L32 27L32 26L30 26L30 25L31 25L31 23L32 23L32 22L31 22L31 21L37 21L37 22L38 22L38 24L40 24L40 23L39 23L39 22L38 22L38 21L37 21L37 20L36 20L36 19L37 19L37 18L38 18L38 16L37 16L37 14L35 14L35 15L34 15L34 14L33 14L33 13L37 13L37 12L34 12L34 10L33 10L33 8L32 8L32 10L30 10L30 9L29 9L29 8L28 8L28 6L27 6L27 10L28 10L28 11L26 11L26 9L24 9L24 8L26 8L26 5L28 5L28 4L29 4L29 3L28 3L28 4L26 4L26 5L25 5L25 4L24 4L24 5L22 5L22 6L21 6L21 4L22 4L22 3L21 3L21 4L20 4L20 3L19 3L19 4L20 4L20 5L17 5L17 4L16 4L16 3L18 3L18 2L17 2L17 1ZM30 3L30 4L32 4L32 3ZM24 5L24 7L25 7L25 5ZM18 6L18 8L17 8L17 9L18 9L18 10L17 10L17 11L18 11L18 12L19 12L19 10L20 10L20 11L21 11L21 12L22 12L22 13L23 13L23 14L21 14L21 15L20 15L20 17L18 17L18 16L19 16L19 14L20 14L20 13L18 13L18 14L17 14L17 13L16 13L16 12L15 12L15 11L14 11L14 12L15 12L15 13L13 13L13 12L12 12L12 11L13 11L13 10L11 10L11 11L10 11L10 12L11 12L11 13L10 13L10 14L11 14L11 13L13 13L13 14L17 14L17 15L16 15L16 16L17 16L17 18L18 18L18 19L19 19L19 18L20 18L20 17L21 17L21 16L24 16L24 17L25 17L25 14L24 14L24 13L26 13L26 14L27 14L27 13L28 13L28 12L24 12L24 13L23 13L23 12L22 12L22 9L21 9L21 10L20 10L20 9L19 9L19 8L20 8L20 7L21 7L21 8L22 8L22 7L23 7L23 6L22 6L22 7L21 7L21 6L20 6L20 7L19 7L19 6ZM0 8L0 9L1 9L1 10L2 10L2 9L4 9L4 10L3 10L3 11L2 11L2 12L4 12L4 11L5 11L5 8ZM39 8L39 10L41 10L41 9L40 9L40 8ZM28 9L28 10L29 10L29 9ZM32 10L32 12L33 12L33 10ZM29 12L29 13L30 13L30 12ZM40 12L40 14L41 14L41 12ZM31 13L31 14L29 14L29 15L30 15L30 16L29 16L29 17L30 17L30 18L29 18L29 19L31 19L31 18L32 18L32 20L34 20L34 19L35 19L35 18L37 18L37 17L34 17L34 18L33 18L33 17L30 17L30 16L31 16L31 14L32 14L32 16L33 16L33 14L32 14L32 13ZM23 14L23 15L24 15L24 14ZM17 15L17 16L18 16L18 15ZM6 16L6 17L7 17L7 16ZM2 20L2 22L1 22L1 23L2 23L2 22L4 22L4 20ZM14 20L14 21L12 21L12 22L13 22L13 23L15 23L15 25L18 25L18 26L20 26L20 25L21 25L21 24L22 24L22 23L18 23L18 21L17 21L17 20L16 20L16 21L15 21L15 20ZM23 20L23 21L24 21L24 20ZM8 21L8 22L7 22L7 23L6 23L6 24L7 24L7 23L9 23L9 24L10 24L10 23L9 23L9 22L10 22L10 21ZM14 21L14 22L15 22L15 21ZM16 21L16 22L17 22L17 21ZM30 22L30 23L31 23L31 22ZM16 23L16 24L18 24L18 25L19 25L19 24L18 24L18 23ZM29 24L29 25L30 25L30 24ZM36 25L36 26L37 26L37 25ZM15 26L15 27L14 27L14 28L15 28L15 29L14 29L14 30L17 30L17 29L16 29L16 28L15 28L15 27L16 27L16 26ZM0 27L0 28L2 28L2 27ZM3 27L3 29L4 29L4 27ZM21 27L21 28L22 28L22 27ZM30 27L30 28L31 28L31 27ZM37 27L37 28L38 28L38 29L36 29L36 30L39 30L39 29L40 29L40 30L41 30L41 29L40 29L40 28L41 28L41 27L39 27L39 28L38 28L38 27ZM12 28L12 29L13 29L13 28ZM0 29L0 33L1 33L1 29ZM6 29L6 30L7 30L7 31L6 31L6 32L7 32L7 31L8 31L8 30L7 30L7 29ZM28 29L28 30L27 30L27 31L29 31L29 29ZM16 31L16 32L17 32L17 33L18 33L18 32L17 32L17 31ZM14 32L14 33L15 33L15 32ZM33 33L33 36L36 36L36 33ZM23 34L23 35L22 35L22 36L23 36L23 37L24 37L24 36L23 36L23 35L24 35L24 34ZM27 34L27 35L28 35L28 34ZM34 34L34 35L35 35L35 34ZM14 35L14 36L15 36L15 35ZM17 35L17 36L16 36L16 38L17 38L17 36L18 36L18 35ZM8 36L8 41L9 41L9 40L10 40L10 41L11 41L11 40L10 40L10 39L11 39L11 38L10 38L10 39L9 39L9 36ZM30 36L30 37L29 37L29 38L31 38L31 37L32 37L32 36ZM33 37L33 38L35 38L35 37ZM38 38L38 39L39 39L39 40L36 40L36 41L39 41L39 40L40 40L40 39L39 39L39 38ZM29 39L29 40L30 40L30 39ZM31 39L31 40L32 40L32 39ZM33 39L33 40L34 40L34 39ZM0 0L0 7L7 7L7 0ZM1 1L1 6L6 6L6 1ZM2 2L2 5L5 5L5 2ZM34 0L34 7L41 7L41 0ZM35 1L35 6L40 6L40 1ZM36 2L36 5L39 5L39 2ZM0 34L0 41L7 41L7 34ZM1 35L1 40L6 40L6 35ZM2 36L2 39L5 39L5 36Z" fill="#000000"/></g></g></svg>
