<?xml version="1.0" encoding="UTF-8"?>
<svg xmlns="http://www.w3.org/2000/svg" version="1.1" width="200" height="200" viewBox="0 0 200 200"><rect x="0" y="0" width="200" height="200" fill="#ffffff"/><g transform="scale(4.444)"><g transform="translate(0,0)"><path fill-rule="evenodd" d="M8 0L8 1L9 1L9 3L10 3L10 4L9 4L9 6L8 6L8 8L9 8L9 9L8 9L8 10L6 10L6 9L7 9L7 8L6 8L6 9L5 9L5 8L3 8L3 9L4 9L4 10L3 10L3 12L2 12L2 11L0 11L0 13L2 13L2 14L1 14L1 15L0 15L0 16L2 16L2 18L1 18L1 20L0 20L0 22L1 22L1 23L2 23L2 22L1 22L1 20L2 20L2 18L6 18L6 19L8 19L8 20L5 20L5 19L3 19L3 20L4 20L4 25L3 25L3 24L2 24L2 25L1 25L1 24L0 24L0 25L1 25L1 26L0 26L0 28L1 28L1 29L2 29L2 30L6 30L6 31L5 31L5 32L4 32L4 31L3 31L3 33L5 33L5 32L6 32L6 33L10 33L10 34L11 34L11 33L12 33L12 35L9 35L9 37L8 37L8 36L6 36L6 37L8 37L8 38L10 38L10 39L11 39L11 41L10 41L10 40L8 40L8 42L9 42L9 43L8 43L8 45L9 45L9 43L11 43L11 44L10 44L10 45L11 45L11 44L12 44L12 42L11 42L11 41L13 41L13 44L14 44L14 43L15 43L15 45L16 45L16 44L18 44L18 45L19 45L19 44L20 44L20 43L21 43L21 42L23 42L23 43L24 43L24 44L22 44L22 45L27 45L27 44L28 44L28 45L31 45L31 44L32 44L32 42L33 42L33 41L34 41L34 42L35 42L35 39L34 39L34 38L33 38L33 37L35 37L35 38L36 38L36 41L37 41L37 42L36 42L36 43L37 43L37 42L39 42L39 43L38 43L38 45L40 45L40 44L45 44L45 43L44 43L44 41L45 41L45 39L42 39L42 40L44 40L44 41L43 41L43 42L42 42L42 41L41 41L41 37L42 37L42 38L44 38L44 37L45 37L45 34L44 34L44 33L45 33L45 29L44 29L44 32L43 32L43 29L42 29L42 28L44 28L44 25L42 25L42 24L43 24L43 21L44 21L44 19L45 19L45 16L44 16L44 17L39 17L39 13L38 13L38 12L39 12L39 11L38 11L38 10L40 10L40 11L41 11L41 12L40 12L40 14L41 14L41 16L43 16L43 15L44 15L44 14L41 14L41 13L42 13L42 12L43 12L43 11L45 11L45 10L44 10L44 9L45 9L45 8L44 8L44 9L43 9L43 11L42 11L42 10L41 10L41 9L39 9L39 8L38 8L38 9L36 9L36 10L35 10L35 6L34 6L34 5L37 5L37 3L36 3L36 1L37 1L37 0L36 0L36 1L35 1L35 4L34 4L34 2L31 2L31 3L30 3L30 4L29 4L29 3L28 3L28 2L30 2L30 1L31 1L31 0L30 0L30 1L29 1L29 0L28 0L28 1L27 1L27 0L25 0L25 1L24 1L24 0L23 0L23 1L21 1L21 0L20 0L20 1L19 1L19 0L18 0L18 2L19 2L19 3L17 3L17 0L16 0L16 2L15 2L15 1L13 1L13 0L12 0L12 1L13 1L13 2L12 2L12 3L13 3L13 4L16 4L16 3L17 3L17 5L18 5L18 8L17 8L17 6L16 6L16 7L15 7L15 5L12 5L12 7L11 7L11 5L10 5L10 4L11 4L11 3L10 3L10 0ZM32 0L32 1L34 1L34 0ZM23 1L23 3L22 3L22 2L20 2L20 3L19 3L19 7L20 7L20 4L21 4L21 3L22 3L22 4L24 4L24 3L27 3L27 1L25 1L25 2L24 2L24 1ZM13 2L13 3L14 3L14 2ZM27 4L27 5L28 5L28 6L27 6L27 8L28 8L28 6L29 6L29 9L30 9L30 6L31 6L31 7L32 7L32 8L31 8L31 9L33 9L33 10L34 10L34 9L33 9L33 7L34 7L34 6L33 6L33 5L34 5L34 4L33 4L33 5L32 5L32 4L31 4L31 5L30 5L30 6L29 6L29 4ZM21 5L21 8L24 8L24 5ZM25 5L25 7L26 7L26 5ZM9 6L9 7L10 7L10 6ZM13 6L13 8L14 8L14 9L11 9L11 8L10 8L10 9L11 9L11 12L10 12L10 10L9 10L9 11L8 11L8 12L10 12L10 13L11 13L11 12L12 12L12 15L13 15L13 16L11 16L11 15L10 15L10 14L8 14L8 13L6 13L6 12L7 12L7 11L5 11L5 10L4 10L4 12L3 12L3 13L4 13L4 12L5 12L5 14L3 14L3 15L5 15L5 17L6 17L6 18L7 18L7 17L8 17L8 19L9 19L9 20L10 20L10 21L12 21L12 20L13 20L13 19L14 19L14 21L13 21L13 23L12 23L12 22L10 22L10 23L9 23L9 26L7 26L7 25L6 25L6 26L7 26L7 27L6 27L6 28L7 28L7 29L6 29L6 30L8 30L8 29L9 29L9 31L6 31L6 32L9 32L9 31L12 31L12 32L13 32L13 34L14 34L14 35L13 35L13 36L12 36L12 37L13 37L13 36L15 36L15 34L14 34L14 32L16 32L16 33L17 33L17 34L16 34L16 36L17 36L17 37L16 37L16 38L18 38L18 39L17 39L17 41L18 41L18 42L15 42L15 41L14 41L14 40L13 40L13 41L14 41L14 42L15 42L15 43L18 43L18 42L19 42L19 43L20 43L20 42L21 42L21 41L20 41L20 40L19 40L19 39L20 39L20 38L19 38L19 37L20 37L20 35L21 35L21 34L22 34L22 35L25 35L25 36L26 36L26 37L27 37L27 38L29 38L29 39L27 39L27 40L28 40L28 41L26 41L26 39L25 39L25 43L27 43L27 42L28 42L28 43L31 43L31 42L32 42L32 40L34 40L34 39L33 39L33 38L32 38L32 34L30 34L30 32L29 32L29 31L27 31L27 29L29 29L29 30L30 30L30 31L32 31L32 33L33 33L33 34L34 34L34 33L33 33L33 31L34 31L34 32L35 32L35 33L37 33L37 34L38 34L38 33L37 33L37 31L38 31L38 32L40 32L40 33L42 33L42 34L43 34L43 32L42 32L42 29L41 29L41 30L40 30L40 31L38 31L38 30L39 30L39 27L40 27L40 26L42 26L42 25L36 25L36 24L35 24L35 23L36 23L36 22L35 22L35 23L33 23L33 25L34 25L34 27L35 27L35 25L36 25L36 26L37 26L37 27L36 27L36 30L37 30L37 31L36 31L36 32L35 32L35 30L33 30L33 29L35 29L35 28L33 28L33 27L32 27L32 26L29 26L29 25L30 25L30 24L32 24L32 23L31 23L31 22L30 22L30 20L31 20L31 18L32 18L32 17L31 17L31 16L34 16L34 15L36 15L36 17L38 17L38 19L37 19L37 20L40 20L40 18L39 18L39 17L38 17L38 15L37 15L37 14L38 14L38 13L37 13L37 14L35 14L35 13L34 13L34 12L33 12L33 13L32 13L32 12L30 12L30 13L28 13L28 12L29 12L29 11L30 11L30 10L28 10L28 9L27 9L27 10L26 10L26 9L22 9L22 11L21 11L21 9L20 9L20 8L19 8L19 9L17 9L17 8L16 8L16 9L15 9L15 8L14 8L14 6ZM22 6L22 7L23 7L23 6ZM32 6L32 7L33 7L33 6ZM36 6L36 8L37 8L37 6ZM0 8L0 10L2 10L2 8ZM14 9L14 10L13 10L13 11L12 11L12 12L14 12L14 13L13 13L13 14L14 14L14 15L17 15L17 16L16 16L16 17L15 17L15 18L18 18L18 17L19 17L19 14L16 14L16 12L15 12L15 11L14 11L14 10L15 10L15 9ZM16 9L16 10L17 10L17 11L18 11L18 13L20 13L20 12L19 12L19 10L17 10L17 9ZM24 10L24 11L22 11L22 12L21 12L21 13L22 13L22 12L24 12L24 13L26 13L26 17L27 17L27 18L29 18L29 19L26 19L26 20L22 20L22 18L24 18L24 19L25 19L25 18L24 18L24 17L25 17L25 16L24 16L24 15L25 15L25 14L24 14L24 15L22 15L22 14L20 14L20 16L21 16L21 17L22 17L22 18L21 18L21 19L20 19L20 18L19 18L19 19L18 19L18 20L17 20L17 21L16 21L16 19L15 19L15 22L14 22L14 23L13 23L13 24L11 24L11 23L10 23L10 24L11 24L11 26L12 26L12 25L14 25L14 26L13 26L13 27L14 27L14 26L16 26L16 23L19 23L19 24L18 24L18 25L20 25L20 26L19 26L19 27L17 27L17 28L16 28L16 27L15 27L15 28L14 28L14 30L15 30L15 31L16 31L16 32L17 32L17 33L19 33L19 34L17 34L17 35L19 35L19 34L20 34L20 33L19 33L19 32L21 32L21 31L20 31L20 30L21 30L21 28L23 28L23 31L22 31L22 33L26 33L26 34L25 34L25 35L26 35L26 36L27 36L27 35L28 35L28 34L27 34L27 33L26 33L26 32L27 32L27 31L26 31L26 32L25 32L25 31L24 31L24 30L25 30L25 27L24 27L24 25L25 25L25 26L26 26L26 28L28 28L28 27L29 27L29 26L28 26L28 25L29 25L29 24L30 24L30 22L29 22L29 23L28 23L28 22L27 22L27 21L26 21L26 20L28 20L28 21L29 21L29 20L30 20L30 18L31 18L31 17L30 17L30 18L29 18L29 17L27 17L27 16L30 16L30 15L29 15L29 14L28 14L28 15L27 15L27 13L26 13L26 12L27 12L27 11L28 11L28 10L27 10L27 11L26 11L26 10ZM36 10L36 11L37 11L37 12L38 12L38 11L37 11L37 10ZM24 11L24 12L25 12L25 11ZM44 12L44 13L45 13L45 12ZM14 13L14 14L15 14L15 13ZM30 13L30 14L32 14L32 15L33 15L33 14L34 14L34 13L33 13L33 14L32 14L32 13ZM6 14L6 15L7 15L7 14ZM8 15L8 16L9 16L9 15ZM6 16L6 17L7 17L7 16ZM10 16L10 18L9 18L9 19L10 19L10 20L12 20L12 18L11 18L11 16ZM13 16L13 17L14 17L14 16ZM17 16L17 17L18 17L18 16ZM34 18L34 19L32 19L32 21L36 21L36 20L35 20L35 19L36 19L36 18ZM42 18L42 19L44 19L44 18ZM19 19L19 21L17 21L17 22L19 22L19 21L20 21L20 19ZM41 20L41 22L42 22L42 21L43 21L43 20ZM5 21L5 24L8 24L8 21ZM21 21L21 24L24 24L24 21ZM25 21L25 24L26 24L26 25L28 25L28 23L27 23L27 22L26 22L26 21ZM37 21L37 24L40 24L40 21ZM6 22L6 23L7 23L7 22ZM15 22L15 23L14 23L14 24L15 24L15 23L16 23L16 22ZM22 22L22 23L23 23L23 22ZM38 22L38 23L39 23L39 22ZM44 22L44 23L45 23L45 22ZM41 23L41 24L42 24L42 23ZM34 24L34 25L35 25L35 24ZM2 25L2 26L3 26L3 27L4 27L4 26L3 26L3 25ZM21 25L21 27L19 27L19 29L18 29L18 28L17 28L17 29L18 29L18 31L17 31L17 30L16 30L16 31L17 31L17 32L18 32L18 31L19 31L19 29L20 29L20 28L21 28L21 27L23 27L23 28L24 28L24 27L23 27L23 26L22 26L22 25ZM9 26L9 27L10 27L10 28L11 28L11 29L10 29L10 30L11 30L11 29L12 29L12 31L13 31L13 32L14 32L14 31L13 31L13 29L12 29L12 27L10 27L10 26ZM27 26L27 27L28 27L28 26ZM1 27L1 28L2 28L2 27ZM7 27L7 28L8 28L8 27ZM30 27L30 28L29 28L29 29L30 29L30 30L31 30L31 29L33 29L33 28L32 28L32 27ZM3 28L3 29L5 29L5 28ZM30 28L30 29L31 29L31 28ZM37 28L37 29L38 29L38 28ZM32 30L32 31L33 31L33 30ZM1 31L1 32L0 32L0 33L1 33L1 34L2 34L2 33L1 33L1 32L2 32L2 31ZM10 32L10 33L11 33L11 32ZM28 32L28 33L29 33L29 32ZM4 34L4 35L1 35L1 36L0 36L0 37L1 37L1 36L3 36L3 37L5 37L5 34ZM6 34L6 35L7 35L7 34ZM26 34L26 35L27 35L27 34ZM29 34L29 35L30 35L30 36L28 36L28 37L29 37L29 38L31 38L31 35L30 35L30 34ZM39 34L39 36L40 36L40 34ZM33 35L33 36L34 36L34 35ZM35 35L35 36L38 36L38 35ZM41 35L41 36L42 36L42 37L43 37L43 36L42 36L42 35ZM10 36L10 38L11 38L11 36ZM18 36L18 37L19 37L19 36ZM14 37L14 39L15 39L15 40L16 40L16 39L15 39L15 37ZM21 37L21 40L24 40L24 37ZM37 37L37 40L40 40L40 37ZM22 38L22 39L23 39L23 38ZM38 38L38 39L39 39L39 38ZM30 39L30 40L29 40L29 42L31 42L31 41L30 41L30 40L32 40L32 39ZM18 40L18 41L19 41L19 40ZM39 41L39 42L41 42L41 43L42 43L42 42L41 42L41 41ZM33 43L33 45L34 45L34 44L35 44L35 45L36 45L36 44L35 44L35 43ZM39 43L39 44L40 44L40 43ZM0 0L0 7L7 7L7 0ZM1 1L1 6L6 6L6 1ZM2 2L2 5L5 5L5 2ZM38 0L38 7L45 7L45 0ZM39 1L39 6L44 6L44 1ZM40 2L40 5L43 5L43 2ZM0 38L0 45L7 45L7 38ZM1 39L1 44L6 44L6 39ZM2 40L2 43L5 43L5 40Z" fill="#000000"/></g></g></svg>
