<?xml version="1.0" encoding="UTF-8"?>
<svg xmlns="http://www.w3.org/2000/svg" version="1.1" width="200" height="200" viewBox="0 0 200 200"><rect x="0" y="0" width="200" height="200" fill="#ffffff"/><g transform="scale(4.444)"><g transform="translate(0,0)"><path fill-rule="evenodd" d="M8 0L8 1L9 1L9 2L11 2L11 1L12 1L12 2L13 2L13 3L11 3L11 4L10 4L10 3L9 3L9 4L10 4L10 7L9 7L9 6L8 6L8 8L10 8L10 7L11 7L11 10L10 10L10 11L8 11L8 10L6 10L6 9L7 9L7 8L6 8L6 9L5 9L5 8L3 8L3 9L4 9L4 11L3 11L3 10L2 10L2 11L0 11L0 14L2 14L2 15L0 15L0 16L3 16L3 17L9 17L9 18L10 18L10 17L9 17L9 16L4 16L4 13L2 13L2 12L4 12L4 11L5 11L5 15L9 15L9 14L10 14L10 13L9 13L9 14L6 14L6 13L7 13L7 12L12 12L12 11L13 11L13 10L14 10L14 13L11 13L11 14L12 14L12 16L11 16L11 18L12 18L12 16L13 16L13 17L14 17L14 16L13 16L13 14L14 14L14 15L17 15L17 18L18 18L18 17L19 17L19 15L17 15L17 14L14 14L14 13L16 13L16 12L18 12L18 13L21 13L21 14L20 14L20 16L21 16L21 17L22 17L22 18L21 18L21 19L20 19L20 18L19 18L19 19L20 19L20 21L19 21L19 20L18 20L18 19L16 19L16 16L15 16L15 18L14 18L14 20L15 20L15 22L14 22L14 23L13 23L13 19L11 19L11 20L12 20L12 22L11 22L11 25L10 25L10 24L9 24L9 23L10 23L10 22L9 22L9 20L6 20L6 19L8 19L8 18L6 18L6 19L5 19L5 20L2 20L2 19L4 19L4 18L2 18L2 17L0 17L0 19L1 19L1 20L2 20L2 21L1 21L1 22L0 22L0 23L1 23L1 24L0 24L0 25L1 25L1 28L0 28L0 29L1 29L1 28L2 28L2 27L3 27L3 25L4 25L4 26L6 26L6 27L5 27L5 28L6 28L6 29L7 29L7 30L5 30L5 29L4 29L4 31L2 31L2 32L3 32L3 33L5 33L5 34L4 34L4 35L1 35L1 36L0 36L0 37L1 37L1 36L3 36L3 37L5 37L5 34L6 34L6 35L7 35L7 36L6 36L6 37L8 37L8 38L9 38L9 37L10 37L10 36L11 36L11 37L12 37L12 39L11 39L11 40L10 40L10 39L9 39L9 40L8 40L8 42L9 42L9 41L10 41L10 42L11 42L11 44L10 44L10 43L8 43L8 45L11 45L11 44L12 44L12 42L11 42L11 41L13 41L13 43L14 43L14 44L15 44L15 45L16 45L16 44L15 44L15 43L14 43L14 41L15 41L15 40L16 40L16 39L18 39L18 38L20 38L20 39L19 39L19 40L20 40L20 41L21 41L21 43L22 43L22 42L23 42L23 43L25 43L25 35L26 35L26 34L27 34L27 36L26 36L26 41L28 41L28 40L27 40L27 39L30 39L30 40L29 40L29 42L31 42L31 43L28 43L28 42L27 42L27 43L26 43L26 44L22 44L22 45L26 45L26 44L27 44L27 45L29 45L29 44L30 44L30 45L32 45L32 42L33 42L33 41L34 41L34 42L35 42L35 43L33 43L33 45L35 45L35 43L36 43L36 45L37 45L37 42L39 42L39 43L38 43L38 45L40 45L40 44L41 44L41 45L42 45L42 44L45 44L45 43L44 43L44 42L42 42L42 41L41 41L41 37L42 37L42 38L43 38L43 39L42 39L42 40L43 40L43 39L44 39L44 36L45 36L45 34L44 34L44 31L45 31L45 29L44 29L44 31L43 31L43 29L42 29L42 28L44 28L44 25L45 25L45 22L43 22L43 21L44 21L44 19L45 19L45 17L44 17L44 15L43 15L43 14L44 14L44 13L45 13L45 12L44 12L44 13L43 13L43 14L39 14L39 12L40 12L40 13L42 13L42 12L43 12L43 11L45 11L45 10L44 10L44 9L45 9L45 8L44 8L44 9L42 9L42 10L41 10L41 9L39 9L39 8L38 8L38 9L36 9L36 10L35 10L35 8L37 8L37 6L36 6L36 7L35 7L35 6L34 6L34 7L33 7L33 6L32 6L32 7L31 7L31 6L30 6L30 9L29 9L29 6L28 6L28 5L29 5L29 3L28 3L28 2L30 2L30 3L31 3L31 4L30 4L30 5L33 5L33 3L34 3L34 0L32 0L32 1L33 1L33 2L32 2L32 3L31 3L31 2L30 2L30 1L31 1L31 0L30 0L30 1L29 1L29 0L28 0L28 1L27 1L27 0L25 0L25 1L24 1L24 0L20 0L20 1L24 1L24 2L25 2L25 1L27 1L27 4L25 4L25 3L24 3L24 4L23 4L23 2L22 2L22 3L21 3L21 2L20 2L20 3L21 3L21 4L20 4L20 7L19 7L19 3L17 3L17 5L18 5L18 7L17 7L17 6L16 6L16 7L17 7L17 8L16 8L16 10L17 10L17 11L16 11L16 12L15 12L15 9L14 9L14 8L15 8L15 6L14 6L14 8L13 8L13 3L14 3L14 4L15 4L15 5L16 5L16 4L15 4L15 3L14 3L14 2L13 2L13 1L15 1L15 0L13 0L13 1L12 1L12 0L11 0L11 1L9 1L9 0ZM17 0L17 1L16 1L16 2L17 2L17 1L18 1L18 2L19 2L19 1L18 1L18 0ZM36 0L36 1L35 1L35 4L34 4L34 5L37 5L37 3L36 3L36 1L37 1L37 0ZM21 5L21 8L24 8L24 5ZM25 5L25 7L26 7L26 5ZM11 6L11 7L12 7L12 6ZM22 6L22 7L23 7L23 6ZM27 6L27 8L28 8L28 6ZM18 7L18 8L19 8L19 9L18 9L18 10L19 10L19 11L18 11L18 12L19 12L19 11L20 11L20 12L22 12L22 14L23 14L23 17L24 17L24 18L22 18L22 20L23 20L23 19L24 19L24 20L25 20L25 19L27 19L27 22L25 22L25 24L26 24L26 25L28 25L28 26L27 26L27 27L26 27L26 26L25 26L25 25L24 25L24 27L23 27L23 28L21 28L21 27L22 27L22 25L21 25L21 27L18 27L18 26L20 26L20 25L18 25L18 24L19 24L19 23L18 23L18 24L17 24L17 25L16 25L16 24L15 24L15 23L14 23L14 24L15 24L15 29L16 29L16 26L17 26L17 28L19 28L19 29L18 29L18 30L17 30L17 31L19 31L19 33L20 33L20 34L19 34L19 37L20 37L20 35L21 35L21 34L22 34L22 36L23 36L23 35L25 35L25 34L26 34L26 33L27 33L27 34L28 34L28 36L30 36L30 37L32 37L32 40L30 40L30 41L31 41L31 42L32 42L32 40L34 40L34 39L35 39L35 41L36 41L36 42L37 42L37 41L36 41L36 38L35 38L35 36L37 36L37 35L36 35L36 34L37 34L37 33L39 33L39 32L40 32L40 33L42 33L42 34L40 34L40 35L41 35L41 36L42 36L42 37L43 37L43 36L42 36L42 34L43 34L43 32L42 32L42 29L41 29L41 30L40 30L40 31L38 31L38 30L39 30L39 28L41 28L41 27L39 27L39 25L36 25L36 24L35 24L35 23L36 23L36 22L35 22L35 23L33 23L33 25L34 25L34 27L32 27L32 26L29 26L29 25L30 25L30 24L32 24L32 23L31 23L31 22L30 22L30 24L29 24L29 25L28 25L28 23L29 23L29 21L28 21L28 20L29 20L29 18L30 18L30 20L31 20L31 21L33 21L33 20L35 20L35 21L36 21L36 20L35 20L35 19L36 19L36 18L34 18L34 19L31 19L31 18L32 18L32 17L31 17L31 16L34 16L34 15L36 15L36 14L35 14L35 13L37 13L37 16L36 16L36 17L38 17L38 19L39 19L39 20L41 20L41 19L40 19L40 18L39 18L39 17L41 17L41 18L42 18L42 19L44 19L44 18L43 18L43 16L41 16L41 15L39 15L39 17L38 17L38 12L39 12L39 11L40 11L40 12L41 12L41 11L40 11L40 10L38 10L38 12L35 12L35 11L34 11L34 14L32 14L32 15L31 15L31 14L29 14L29 13L28 13L28 12L30 12L30 10L28 10L28 9L27 9L27 10L26 10L26 9L22 9L22 11L21 11L21 9L20 9L20 8L19 8L19 7ZM32 7L32 8L31 8L31 9L33 9L33 10L34 10L34 9L33 9L33 7ZM0 8L0 9L2 9L2 8ZM12 8L12 9L13 9L13 8ZM11 10L11 11L12 11L12 10ZM23 10L23 11L22 11L22 12L24 12L24 11L25 11L25 12L27 12L27 11L28 11L28 10L27 10L27 11L26 11L26 10ZM36 10L36 11L37 11L37 10ZM42 10L42 11L43 11L43 10ZM6 11L6 12L7 12L7 11ZM31 11L31 13L32 13L32 11ZM26 13L26 17L27 17L27 18L29 18L29 17L27 17L27 16L30 16L30 15L28 15L28 13ZM24 14L24 17L25 17L25 14ZM30 17L30 18L31 18L31 17ZM24 18L24 19L25 19L25 18ZM16 20L16 21L17 21L17 22L16 22L16 23L17 23L17 22L19 22L19 21L17 21L17 20ZM42 20L42 21L41 21L41 22L42 22L42 21L43 21L43 20ZM2 21L2 22L1 22L1 23L4 23L4 21ZM5 21L5 24L8 24L8 21ZM21 21L21 24L24 24L24 21ZM37 21L37 24L40 24L40 21ZM6 22L6 23L7 23L7 22ZM22 22L22 23L23 23L23 22ZM27 22L27 23L28 23L28 22ZM38 22L38 23L39 23L39 22ZM12 23L12 24L13 24L13 23ZM41 23L41 24L42 24L42 25L40 25L40 26L42 26L42 27L43 27L43 26L42 26L42 25L43 25L43 24L44 24L44 23L43 23L43 24L42 24L42 23ZM1 24L1 25L3 25L3 24ZM34 24L34 25L35 25L35 24ZM6 25L6 26L8 26L8 27L6 27L6 28L7 28L7 29L8 29L8 28L9 28L9 29L10 29L10 30L7 30L7 31L5 31L5 33L6 33L6 34L7 34L7 35L8 35L8 34L9 34L9 35L12 35L12 33L11 33L11 32L12 32L12 31L14 31L14 32L13 32L13 35L14 35L14 36L12 36L12 37L14 37L14 39L16 39L16 38L17 38L17 37L18 37L18 36L17 36L17 35L16 35L16 38L15 38L15 37L14 37L14 36L15 36L15 35L14 35L14 32L16 32L16 30L14 30L14 29L13 29L13 27L14 27L14 25L12 25L12 26L9 26L9 25ZM17 25L17 26L18 26L18 25ZM28 26L28 27L29 27L29 28L30 28L30 30L29 30L29 32L28 32L28 33L29 33L29 32L30 32L30 34L29 34L29 35L30 35L30 34L31 34L31 33L32 33L32 31L33 31L33 33L34 33L34 34L32 34L32 37L34 37L34 36L35 36L35 34L36 34L36 33L37 33L37 32L38 32L38 31L37 31L37 30L36 30L36 27L37 27L37 26L36 26L36 27L35 27L35 29L34 29L34 28L31 28L31 27L29 27L29 26ZM10 27L10 28L12 28L12 27ZM24 27L24 28L23 28L23 31L22 31L22 33L26 33L26 32L27 32L27 31L28 31L28 30L27 30L27 31L26 31L26 29L28 29L28 28L26 28L26 27ZM20 28L20 29L19 29L19 31L21 31L21 28ZM37 28L37 29L38 29L38 28ZM2 29L2 30L3 30L3 29ZM11 29L11 30L10 30L10 32L9 32L9 31L7 31L7 32L6 32L6 33L7 33L7 34L8 34L8 32L9 32L9 34L10 34L10 32L11 32L11 31L12 31L12 30L13 30L13 29ZM31 29L31 30L30 30L30 31L32 31L32 30L34 30L34 32L35 32L35 33L36 33L36 32L37 32L37 31L36 31L36 32L35 32L35 30L34 30L34 29ZM0 30L0 31L1 31L1 30ZM24 30L24 31L25 31L25 32L26 32L26 31L25 31L25 30ZM0 32L0 33L1 33L1 34L2 34L2 33L1 33L1 32ZM17 32L17 33L16 33L16 34L18 34L18 32ZM33 35L33 36L34 36L34 35ZM21 37L21 40L24 40L24 37ZM27 37L27 38L28 38L28 37ZM37 37L37 40L40 40L40 37ZM22 38L22 39L23 39L23 38ZM30 38L30 39L31 39L31 38ZM33 38L33 39L34 39L34 38ZM38 38L38 39L39 39L39 38ZM12 39L12 40L13 40L13 41L14 41L14 40L13 40L13 39ZM16 41L16 43L17 43L17 45L19 45L19 44L20 44L20 42L19 42L19 41ZM39 41L39 42L41 42L41 43L42 43L42 42L41 42L41 41ZM18 43L18 44L19 44L19 43ZM27 43L27 44L28 44L28 43ZM39 43L39 44L40 44L40 43ZM0 0L0 7L7 7L7 0ZM1 1L1 6L6 6L6 1ZM2 2L2 5L5 5L5 2ZM38 0L38 7L45 7L45 0ZM39 1L39 6L44 6L44 1ZM40 2L40 5L43 5L43 2ZM0 38L0 45L7 45L7 38ZM1 39L1 44L6 44L6 39ZM2 40L2 43L5 43L5 40Z" fill="#000000"/></g></g></svg>
