<?xml version="1.0" encoding="UTF-8"?>
<svg xmlns="http://www.w3.org/2000/svg" version="1.1" width="200" height="200" viewBox="0 0 200 200"><rect x="0" y="0" width="200" height="200" fill="#ffffff"/><g transform="scale(4.878)"><g transform="translate(0,0)"><path fill-rule="evenodd" d="M8 0L8 1L12 1L12 0ZM13 0L13 1L14 1L14 2L13 2L13 3L12 3L12 5L11 5L11 6L10 6L10 7L9 7L9 6L8 6L8 8L10 8L10 9L11 9L11 8L14 8L14 9L15 9L15 8L16 8L16 7L17 7L17 6L18 6L18 8L17 8L17 9L18 9L18 10L17 10L17 11L16 11L16 10L14 10L14 12L13 12L13 11L12 11L12 10L11 10L11 11L12 11L12 12L13 12L13 13L12 13L12 14L15 14L15 17L14 17L14 16L13 16L13 15L12 15L12 16L11 16L11 15L10 15L10 14L6 14L6 13L7 13L7 12L6 12L6 13L5 13L5 12L4 12L4 11L2 11L2 8L0 8L0 10L1 10L1 11L0 11L0 13L1 13L1 11L2 11L2 12L3 12L3 13L5 13L5 15L4 15L4 16L0 16L0 17L1 17L1 18L0 18L0 19L1 19L1 20L2 20L2 21L0 21L0 25L1 25L1 24L3 24L3 26L4 26L4 25L5 25L5 27L9 27L9 26L6 26L6 25L7 25L7 24L6 24L6 23L8 23L8 22L9 22L9 24L10 24L10 23L11 23L11 21L13 21L13 20L14 20L14 19L15 19L15 20L16 20L16 21L14 21L14 22L15 22L15 23L16 23L16 22L18 22L18 20L19 20L19 22L20 22L20 23L17 23L17 24L19 24L19 25L18 25L18 26L19 26L19 27L18 27L18 28L19 28L19 27L20 27L20 29L17 29L17 26L16 26L16 24L14 24L14 25L13 25L13 24L12 24L12 25L10 25L10 27L11 27L11 26L12 26L12 28L11 28L11 29L10 29L10 28L9 28L9 29L7 29L7 28L5 28L5 29L4 29L4 28L3 28L3 29L2 29L2 28L0 28L0 33L2 33L2 31L4 31L4 30L6 30L6 31L8 31L8 30L9 30L9 32L8 32L8 34L9 34L9 35L10 35L10 37L9 37L9 36L8 36L8 38L9 38L9 39L8 39L8 41L9 41L9 40L10 40L10 41L11 41L11 40L12 40L12 41L14 41L14 40L12 40L12 39L16 39L16 38L19 38L19 40L21 40L21 41L27 41L27 40L28 40L28 41L29 41L29 40L28 40L28 38L29 38L29 39L30 39L30 41L37 41L37 40L39 40L39 39L40 39L40 40L41 40L41 39L40 39L40 38L39 38L39 37L38 37L38 36L37 36L37 35L39 35L39 36L40 36L40 35L39 35L39 34L40 34L40 33L41 33L41 30L40 30L40 29L41 29L41 25L40 25L40 22L38 22L38 21L39 21L39 20L40 20L40 21L41 21L41 20L40 20L40 19L41 19L41 18L40 18L40 19L39 19L39 17L40 17L40 16L39 16L39 14L40 14L40 15L41 15L41 11L40 11L40 10L39 10L39 9L35 9L35 8L34 8L34 9L35 9L35 10L34 10L34 12L33 12L33 11L32 11L32 12L31 12L31 13L30 13L30 14L29 14L29 15L30 15L30 16L32 16L32 17L30 17L30 18L29 18L29 17L28 17L28 16L27 16L27 15L28 15L28 13L29 13L29 12L30 12L30 10L33 10L33 9L32 9L32 7L33 7L33 6L32 6L32 7L31 7L31 6L30 6L30 5L33 5L33 3L32 3L32 4L30 4L30 3L31 3L31 2L33 2L33 0L32 0L32 1L31 1L31 0L30 0L30 1L28 1L28 2L27 2L27 3L28 3L28 7L27 7L27 4L26 4L26 2L25 2L25 3L23 3L23 1L24 1L24 0L23 0L23 1L22 1L22 0L20 0L20 1L19 1L19 0L17 0L17 1L18 1L18 3L16 3L16 2L15 2L15 0ZM26 0L26 1L27 1L27 0ZM21 1L21 2L19 2L19 3L18 3L18 4L16 4L16 3L15 3L15 2L14 2L14 3L13 3L13 5L12 5L12 6L11 6L11 7L10 7L10 8L11 8L11 7L12 7L12 6L13 6L13 7L14 7L14 8L15 8L15 7L16 7L16 5L18 5L18 6L19 6L19 7L20 7L20 9L21 9L21 10L22 10L22 8L23 8L23 10L24 10L24 12L25 12L25 13L24 13L24 14L23 14L23 13L22 13L22 12L23 12L23 11L20 11L20 10L19 10L19 11L18 11L18 12L16 12L16 14L20 14L20 15L19 15L19 16L18 16L18 15L17 15L17 16L16 16L16 17L20 17L20 18L21 18L21 20L20 20L20 22L23 22L23 21L24 21L24 20L23 20L23 17L24 17L24 18L25 18L25 19L26 19L26 20L27 20L27 21L28 21L28 22L29 22L29 21L28 21L28 19L27 19L27 18L26 18L26 17L27 17L27 16L26 16L26 15L27 15L27 12L26 12L26 11L27 11L27 9L28 9L28 11L29 11L29 10L30 10L30 9L28 9L28 8L27 8L27 7L26 7L26 5L25 5L25 4L23 4L23 3L22 3L22 4L23 4L23 5L24 5L24 6L23 6L23 7L22 7L22 5L21 5L21 2L22 2L22 1ZM30 1L30 2L28 2L28 3L30 3L30 2L31 2L31 1ZM10 2L10 3L9 3L9 5L10 5L10 4L11 4L11 2ZM18 4L18 5L20 5L20 7L21 7L21 5L20 5L20 4ZM29 4L29 5L30 5L30 4ZM14 5L14 7L15 7L15 5ZM24 6L24 7L25 7L25 8L24 8L24 9L25 9L25 8L26 8L26 9L27 9L27 8L26 8L26 7L25 7L25 6ZM29 6L29 8L30 8L30 6ZM3 8L3 9L4 9L4 10L5 10L5 11L7 11L7 10L8 10L8 12L10 12L10 11L9 11L9 10L8 10L8 9L7 9L7 8L6 8L6 9L5 9L5 8ZM40 8L40 9L41 9L41 8ZM6 9L6 10L7 10L7 9ZM35 10L35 12L36 12L36 13L40 13L40 12L39 12L39 11L38 11L38 10L37 10L37 11L38 11L38 12L36 12L36 10ZM19 11L19 13L21 13L21 15L22 15L22 13L21 13L21 12L20 12L20 11ZM14 12L14 13L15 13L15 12ZM32 12L32 13L31 13L31 14L33 14L33 15L35 15L35 16L33 16L33 17L34 17L34 18L36 18L36 19L35 19L35 21L34 21L34 23L33 23L33 21L32 21L32 22L31 22L31 18L30 18L30 19L29 19L29 20L30 20L30 22L31 22L31 23L30 23L30 24L29 24L29 23L27 23L27 22L26 22L26 23L25 23L25 25L27 25L27 24L29 24L29 25L28 25L28 26L29 26L29 27L27 27L27 26L26 26L26 27L25 27L25 28L23 28L23 30L22 30L22 27L21 27L21 26L23 26L23 27L24 27L24 26L23 26L23 24L22 24L22 23L20 23L20 25L19 25L19 26L20 26L20 27L21 27L21 29L20 29L20 30L22 30L22 31L20 31L20 32L19 32L19 31L17 31L17 32L18 32L18 33L20 33L20 32L22 32L22 35L21 35L21 38L20 38L20 37L19 37L19 36L20 36L20 34L18 34L18 36L17 36L17 35L15 35L15 34L13 34L13 32L12 32L12 31L13 31L13 30L14 30L14 29L15 29L15 28L14 28L14 27L15 27L15 26L13 26L13 25L12 25L12 26L13 26L13 28L12 28L12 29L13 29L13 30L12 30L12 31L11 31L11 32L9 32L9 33L10 33L10 34L11 34L11 33L12 33L12 36L11 36L11 38L10 38L10 40L11 40L11 38L13 38L13 37L12 37L12 36L14 36L14 35L15 35L15 36L17 36L17 37L19 37L19 38L20 38L20 39L21 39L21 40L23 40L23 39L25 39L25 40L26 40L26 39L25 39L25 37L26 37L26 38L27 38L27 37L29 37L29 38L30 38L30 37L31 37L31 39L32 39L32 40L34 40L34 39L35 39L35 40L37 40L37 39L39 39L39 38L38 38L38 37L36 37L36 38L35 38L35 37L34 37L34 39L32 39L32 38L33 38L33 37L31 37L31 36L26 36L26 35L27 35L27 34L26 34L26 32L27 32L27 33L29 33L29 32L30 32L30 31L31 31L31 30L30 30L30 31L29 31L29 29L31 29L31 28L32 28L32 27L31 27L31 28L30 28L30 25L31 25L31 26L34 26L34 27L33 27L33 28L34 28L34 29L33 29L33 31L32 31L32 32L35 32L35 31L36 31L36 32L38 32L38 31L39 31L39 32L40 32L40 30L39 30L39 28L37 28L37 26L36 26L36 25L37 25L37 24L38 24L38 25L39 25L39 26L38 26L38 27L40 27L40 25L39 25L39 23L38 23L38 22L37 22L37 24L36 24L36 25L35 25L35 26L34 26L34 23L36 23L36 22L35 22L35 21L38 21L38 17L39 17L39 16L38 16L38 15L35 15L35 14L34 14L34 13L33 13L33 12ZM25 13L25 14L24 14L24 15L23 15L23 16L21 16L21 18L22 18L22 17L23 17L23 16L24 16L24 17L25 17L25 16L24 16L24 15L26 15L26 13ZM0 14L0 15L3 15L3 14ZM6 15L6 16L5 16L5 18L8 18L8 16L7 16L7 15ZM6 16L6 17L7 17L7 16ZM9 16L9 19L8 19L8 20L10 20L10 21L9 21L9 22L10 22L10 21L11 21L11 20L13 20L13 19L11 19L11 18L14 18L14 17L10 17L10 16ZM35 16L35 17L36 17L36 18L37 18L37 17L36 17L36 16ZM2 17L2 20L4 20L4 19L3 19L3 17ZM17 18L17 19L16 19L16 20L18 20L18 18ZM32 18L32 20L34 20L34 19L33 19L33 18ZM5 19L5 23L4 23L4 22L2 22L2 23L4 23L4 24L5 24L5 23L6 23L6 22L7 22L7 21L6 21L6 20L7 20L7 19ZM10 19L10 20L11 20L11 19ZM36 19L36 20L37 20L37 19ZM12 22L12 23L13 23L13 22ZM26 23L26 24L27 24L27 23ZM32 23L32 24L31 24L31 25L33 25L33 23ZM21 24L21 25L20 25L20 26L21 26L21 25L22 25L22 24ZM0 26L0 27L1 27L1 26ZM26 27L26 28L25 28L25 32L26 32L26 31L28 31L28 28L27 28L27 27ZM13 28L13 29L14 29L14 28ZM26 28L26 29L27 29L27 28ZM35 28L35 29L36 29L36 31L38 31L38 30L37 30L37 29L36 29L36 28ZM6 29L6 30L7 30L7 29ZM9 29L9 30L10 30L10 29ZM16 29L16 30L17 30L17 29ZM23 30L23 31L22 31L22 32L23 32L23 31L24 31L24 30ZM5 32L5 33L7 33L7 32ZM15 32L15 33L16 33L16 32ZM23 33L23 35L22 35L22 37L23 37L23 38L22 38L22 39L23 39L23 38L24 38L24 37L25 37L25 33ZM33 33L33 36L36 36L36 33ZM28 34L28 35L29 35L29 34ZM30 34L30 35L31 35L31 34ZM34 34L34 35L35 35L35 34ZM23 35L23 36L24 36L24 35ZM36 38L36 39L37 39L37 38ZM15 40L15 41L16 41L16 40ZM0 0L0 7L7 7L7 0ZM1 1L1 6L6 6L6 1ZM2 2L2 5L5 5L5 2ZM34 0L34 7L41 7L41 0ZM35 1L35 6L40 6L40 1ZM36 2L36 5L39 5L39 2ZM0 34L0 41L7 41L7 34ZM1 35L1 40L6 40L6 35ZM2 36L2 39L5 39L5 36Z" fill="#000000"/></g></g></svg>
