<?xml version="1.0" encoding="UTF-8"?>
<svg xmlns="http://www.w3.org/2000/svg" version="1.1" width="200" height="200" viewBox="0 0 200 200"><rect x="0" y="0" width="200" height="200" fill="#ffffff"/><g transform="scale(4.878)"><g transform="translate(0,0)"><path fill-rule="evenodd" d="M8 0L8 4L9 4L9 5L8 5L8 7L9 7L9 5L10 5L10 7L11 7L11 6L12 6L12 7L13 7L13 6L14 6L14 8L15 8L15 9L16 9L16 10L13 10L13 13L12 13L12 14L11 14L11 15L10 15L10 11L11 11L11 12L12 12L12 9L13 9L13 8L10 8L10 9L9 9L9 11L8 11L8 12L9 12L9 14L8 14L8 15L7 15L7 14L6 14L6 13L7 13L7 12L6 12L6 13L5 13L5 14L4 14L4 15L2 15L2 16L1 16L1 15L0 15L0 21L1 21L1 22L2 22L2 23L1 23L1 24L3 24L3 23L5 23L5 24L4 24L4 25L0 25L0 26L3 26L3 30L4 30L4 28L5 28L5 30L6 30L6 31L4 31L4 32L3 32L3 31L2 31L2 32L0 32L0 33L2 33L2 32L3 32L3 33L4 33L4 32L6 32L6 33L7 33L7 32L8 32L8 34L9 34L9 35L8 35L8 37L9 37L9 38L10 38L10 37L11 37L11 35L13 35L13 34L14 34L14 32L12 32L12 31L13 31L13 30L15 30L15 32L17 32L17 33L18 33L18 34L17 34L17 36L18 36L18 37L16 37L16 39L17 39L17 41L18 41L18 40L19 40L19 41L20 41L20 40L22 40L22 41L23 41L23 40L22 40L22 39L24 39L24 37L25 37L25 38L26 38L26 39L27 39L27 40L26 40L26 41L27 41L27 40L28 40L28 41L33 41L33 39L34 39L34 40L36 40L36 41L38 41L38 40L37 40L37 39L36 39L36 37L38 37L38 36L37 36L37 35L38 35L38 34L39 34L39 36L40 36L40 35L41 35L41 33L40 33L40 31L41 31L41 24L40 24L40 26L39 26L39 25L38 25L38 22L39 22L39 23L41 23L41 21L40 21L40 22L39 22L39 21L36 21L36 22L35 22L35 21L34 21L34 20L36 20L36 19L37 19L37 20L38 20L38 14L37 14L37 13L36 13L36 12L35 12L35 10L37 10L37 9L38 9L38 10L39 10L39 9L40 9L40 12L39 12L39 14L40 14L40 15L39 15L39 16L40 16L40 15L41 15L41 13L40 13L40 12L41 12L41 8L37 8L37 9L36 9L36 8L35 8L35 9L34 9L34 11L33 11L33 6L32 6L32 5L31 5L31 3L32 3L32 4L33 4L33 3L32 3L32 2L33 2L33 0L32 0L32 1L31 1L31 0L30 0L30 1L29 1L29 0L26 0L26 1L28 1L28 2L27 2L27 3L25 3L25 2L22 2L22 1L23 1L23 0L22 0L22 1L21 1L21 0L20 0L20 1L19 1L19 0L18 0L18 2L17 2L17 3L16 3L16 2L15 2L15 1L17 1L17 0L13 0L13 2L12 2L12 3L10 3L10 0ZM11 0L11 1L12 1L12 0ZM13 2L13 3L12 3L12 4L11 4L11 5L13 5L13 4L14 4L14 6L15 6L15 8L17 8L17 7L18 7L18 8L21 8L21 7L22 7L22 6L23 6L23 7L24 7L24 8L22 8L22 9L21 9L21 10L22 10L22 11L23 11L23 10L25 10L25 13L24 13L24 12L23 12L23 13L22 13L22 16L21 16L21 11L20 11L20 9L19 9L19 10L18 10L18 9L17 9L17 11L18 11L18 13L16 13L16 11L14 11L14 13L15 13L15 14L14 14L14 15L12 15L12 16L10 16L10 15L9 15L9 16L10 16L10 18L11 18L11 17L12 17L12 16L13 16L13 17L14 17L14 18L12 18L12 19L10 19L10 20L9 20L9 19L8 19L8 16L7 16L7 15L6 15L6 14L5 14L5 15L6 15L6 16L5 16L5 17L6 17L6 18L7 18L7 19L6 19L6 20L7 20L7 21L6 21L6 22L7 22L7 23L6 23L6 24L7 24L7 23L8 23L8 24L10 24L10 23L9 23L9 22L11 22L11 24L12 24L12 26L14 26L14 24L17 24L17 23L18 23L18 25L19 25L19 27L18 27L18 26L17 26L17 25L16 25L16 26L17 26L17 29L16 29L16 27L14 27L14 29L15 29L15 30L16 30L16 31L17 31L17 30L18 30L18 31L20 31L20 33L19 33L19 32L18 32L18 33L19 33L19 34L18 34L18 35L19 35L19 36L20 36L20 35L23 35L23 37L24 37L24 36L25 36L25 37L26 37L26 36L28 36L28 38L29 38L29 39L30 39L30 40L32 40L32 39L31 39L31 38L33 38L33 37L31 37L31 36L30 36L30 37L29 37L29 36L28 36L28 35L26 35L26 33L27 33L27 32L29 32L29 31L27 31L27 30L26 30L26 28L27 28L27 29L29 29L29 30L30 30L30 29L31 29L31 31L30 31L30 32L31 32L31 34L32 34L32 32L31 32L31 31L35 31L35 30L36 30L36 29L37 29L37 28L36 28L36 29L35 29L35 27L32 27L32 26L34 26L34 25L35 25L35 26L36 26L36 25L37 25L37 24L34 24L34 25L31 25L31 24L32 24L32 22L33 22L33 20L34 20L34 18L33 18L33 17L31 17L31 15L32 15L32 16L34 16L34 17L37 17L37 15L36 15L36 16L34 16L34 15L35 15L35 14L34 14L34 13L35 13L35 12L34 12L34 13L31 13L31 12L32 12L32 9L31 9L31 10L30 10L30 9L29 9L29 7L30 7L30 8L32 8L32 6L31 6L31 5L29 5L29 4L28 4L28 5L27 5L27 4L24 4L24 3L21 3L21 2L20 2L20 3L17 3L17 4L20 4L20 6L19 6L19 5L16 5L16 4L15 4L15 3L14 3L14 2ZM28 2L28 3L29 3L29 2ZM30 2L30 3L31 3L31 2ZM22 4L22 5L24 5L24 4ZM15 5L15 6L16 6L16 7L17 7L17 6L16 6L16 5ZM25 5L25 6L24 6L24 7L25 7L25 6L26 6L26 8L28 8L28 7L29 7L29 5L28 5L28 7L27 7L27 6L26 6L26 5ZM18 6L18 7L19 7L19 6ZM20 6L20 7L21 7L21 6ZM30 6L30 7L31 7L31 6ZM0 8L0 10L1 10L1 9L2 9L2 8ZM4 8L4 9L5 9L5 10L4 10L4 11L3 11L3 10L2 10L2 11L3 11L3 12L2 12L2 14L3 14L3 13L4 13L4 12L5 12L5 10L6 10L6 11L7 11L7 10L8 10L8 9L7 9L7 8ZM24 8L24 9L25 9L25 10L26 10L26 9L25 9L25 8ZM6 9L6 10L7 10L7 9ZM10 9L10 10L11 10L11 9ZM27 9L27 11L28 11L28 13L25 13L25 14L27 14L27 16L28 16L28 15L29 15L29 17L30 17L30 18L28 18L28 17L27 17L27 20L26 20L26 22L24 22L24 21L23 21L23 20L22 20L22 18L23 18L23 19L24 19L24 18L23 18L23 16L24 16L24 17L26 17L26 16L24 16L24 13L23 13L23 16L22 16L22 17L20 17L20 15L19 15L19 17L18 17L18 15L16 15L16 14L15 14L15 15L14 15L14 16L17 16L17 18L16 18L16 17L15 17L15 19L14 19L14 20L12 20L12 21L13 21L13 22L14 22L14 23L15 23L15 22L14 22L14 21L16 21L16 23L17 23L17 22L18 22L18 23L19 23L19 24L20 24L20 23L19 23L19 21L20 21L20 22L21 22L21 24L22 24L22 25L23 25L23 27L24 27L24 26L25 26L25 27L26 27L26 26L27 26L27 27L28 27L28 28L29 28L29 29L30 29L30 28L31 28L31 27L28 27L28 25L25 25L25 23L26 23L26 24L28 24L28 22L29 22L29 25L30 25L30 26L31 26L31 25L30 25L30 24L31 24L31 23L30 23L30 20L31 20L31 21L32 21L32 20L33 20L33 18L32 18L32 20L31 20L31 17L30 17L30 15L29 15L29 13L30 13L30 10L29 10L29 9ZM0 11L0 13L1 13L1 11ZM37 11L37 12L38 12L38 11ZM19 12L19 14L20 14L20 12ZM32 14L32 15L33 15L33 14ZM3 16L3 17L2 17L2 18L1 18L1 19L2 19L2 20L4 20L4 21L5 21L5 20L4 20L4 19L2 19L2 18L4 18L4 16ZM6 16L6 17L7 17L7 16ZM19 17L19 20L21 20L21 18L20 18L20 17ZM40 17L40 19L39 19L39 20L40 20L40 19L41 19L41 17ZM15 19L15 20L16 20L16 21L18 21L18 20L16 20L16 19ZM28 19L28 21L29 21L29 19ZM10 20L10 21L11 21L11 20ZM2 21L2 22L3 22L3 21ZM8 21L8 22L9 22L9 21ZM21 21L21 22L22 22L22 23L23 23L23 21ZM12 23L12 24L13 24L13 23ZM23 24L23 25L24 25L24 24ZM5 25L5 26L4 26L4 27L5 27L5 28L7 28L7 27L8 27L8 29L6 29L6 30L8 30L8 29L9 29L9 31L8 31L8 32L9 32L9 33L10 33L10 32L9 32L9 31L10 31L10 29L11 29L11 30L12 30L12 29L13 29L13 28L11 28L11 27L10 27L10 29L9 29L9 25L8 25L8 26L7 26L7 25ZM10 25L10 26L11 26L11 25ZM20 25L20 26L21 26L21 29L20 29L20 28L19 28L19 29L18 29L18 30L19 30L19 29L20 29L20 30L21 30L21 32L22 32L22 33L20 33L20 34L23 34L23 35L24 35L24 34L25 34L25 33L23 33L23 32L25 32L25 31L24 31L24 29L25 29L25 28L22 28L22 26L21 26L21 25ZM5 26L5 27L7 27L7 26ZM37 26L37 27L38 27L38 33L37 33L37 34L38 34L38 33L39 33L39 34L40 34L40 33L39 33L39 31L40 31L40 30L39 30L39 26ZM0 27L0 28L1 28L1 27ZM33 28L33 30L35 30L35 29L34 29L34 28ZM0 29L0 30L1 30L1 29ZM21 29L21 30L22 30L22 32L23 32L23 29ZM6 31L6 32L7 32L7 31ZM26 31L26 32L27 32L27 31ZM36 31L36 32L37 32L37 31ZM11 32L11 33L12 33L12 34L13 34L13 33L12 33L12 32ZM15 33L15 35L14 35L14 36L12 36L12 37L13 37L13 38L14 38L14 40L15 40L15 41L16 41L16 40L15 40L15 38L14 38L14 37L15 37L15 36L16 36L16 33ZM28 33L28 34L30 34L30 33ZM33 33L33 36L36 36L36 33ZM34 34L34 35L35 35L35 34ZM9 36L9 37L10 37L10 36ZM18 37L18 38L19 38L19 40L20 40L20 39L22 39L22 37L21 37L21 38L20 38L20 37ZM34 37L34 39L35 39L35 37ZM39 37L39 38L40 38L40 39L39 39L39 41L40 41L40 40L41 40L41 37ZM8 39L8 41L9 41L9 39ZM10 39L10 41L12 41L12 40L13 40L13 39L12 39L12 40L11 40L11 39ZM24 40L24 41L25 41L25 40ZM0 0L0 7L7 7L7 0ZM1 1L1 6L6 6L6 1ZM2 2L2 5L5 5L5 2ZM34 0L34 7L41 7L41 0ZM35 1L35 6L40 6L40 1ZM36 2L36 5L39 5L39 2ZM0 34L0 41L7 41L7 34ZM1 35L1 40L6 40L6 35ZM2 36L2 39L5 39L5 36Z" fill="#000000"/></g></g></svg>
