<?xml version="1.0" encoding="UTF-8"?>
<svg xmlns="http://www.w3.org/2000/svg" version="1.1" width="200" height="200" viewBox="0 0 200 200"><rect x="0" y="0" width="200" height="200" fill="#ffffff"/><g transform="scale(4.878)"><g transform="translate(0,0)"><path fill-rule="evenodd" d="M9 0L9 1L8 1L8 2L9 2L9 1L10 1L10 3L8 3L8 4L9 4L9 5L8 5L8 7L9 7L9 5L10 5L10 7L11 7L11 5L12 5L12 1L10 1L10 0ZM16 0L16 1L15 1L15 2L14 2L14 3L15 3L15 4L14 4L14 8L13 8L13 9L12 9L12 8L11 8L11 10L13 10L13 11L10 11L10 9L9 9L9 8L6 8L6 9L5 9L5 8L0 8L0 10L1 10L1 11L2 11L2 13L1 13L1 14L2 14L2 13L3 13L3 14L4 14L4 13L3 13L3 12L6 12L6 13L5 13L5 15L8 15L8 14L9 14L9 16L10 16L10 15L11 15L11 14L10 14L10 13L11 13L11 12L14 12L14 13L12 13L12 14L14 14L14 13L15 13L15 16L13 16L13 15L12 15L12 17L10 17L10 20L9 20L9 18L8 18L8 16L4 16L4 15L2 15L2 17L0 17L0 18L2 18L2 19L0 19L0 20L1 20L1 21L0 21L0 22L1 22L1 21L2 21L2 22L4 22L4 20L5 20L5 21L7 21L7 20L6 20L6 19L7 19L7 18L8 18L8 22L6 22L6 23L5 23L5 24L4 24L4 23L2 23L2 24L1 24L1 26L0 26L0 27L1 27L1 26L3 26L3 27L2 27L2 28L4 28L4 29L2 29L2 32L4 32L4 33L5 33L5 32L6 32L6 33L8 33L8 35L10 35L10 33L11 33L11 34L12 34L12 33L14 33L14 32L13 32L13 31L14 31L14 30L13 30L13 29L12 29L12 30L13 30L13 31L12 31L12 33L11 33L11 32L9 32L9 31L11 31L11 29L10 29L10 27L9 27L9 26L6 26L6 27L5 27L5 28L4 28L4 26L5 26L5 25L9 25L9 24L10 24L10 26L12 26L12 25L13 25L13 27L12 27L12 28L14 28L14 29L15 29L15 33L16 33L16 31L17 31L17 30L16 30L16 29L17 29L17 28L19 28L19 27L18 27L18 26L20 26L20 27L21 27L21 28L22 28L22 27L23 27L23 30L24 30L24 32L25 32L25 33L21 33L21 32L22 32L22 31L21 31L21 32L20 32L20 31L19 31L19 29L18 29L18 31L19 31L19 32L20 32L20 33L18 33L18 32L17 32L17 33L18 33L18 35L19 35L19 34L20 34L20 36L22 36L22 35L21 35L21 34L24 34L24 35L23 35L23 36L25 36L25 37L27 37L27 36L25 36L25 33L27 33L27 32L28 32L28 33L30 33L30 35L31 35L31 36L32 36L32 37L30 37L30 36L29 36L29 37L28 37L28 38L26 38L26 39L27 39L27 40L28 40L28 41L32 41L32 40L33 40L33 41L35 41L35 40L34 40L34 39L35 39L35 38L36 38L36 39L37 39L37 40L36 40L36 41L37 41L37 40L38 40L38 41L39 41L39 40L40 40L40 39L39 39L39 40L38 40L38 37L40 37L40 38L41 38L41 37L40 37L40 36L41 36L41 35L40 35L40 36L38 36L38 37L37 37L37 35L38 35L38 33L39 33L39 34L41 34L41 33L39 33L39 32L40 32L40 31L39 31L39 30L38 30L38 31L37 31L37 29L34 29L34 28L35 28L35 25L30 25L30 24L29 24L29 23L28 23L28 22L30 22L30 23L31 23L31 22L33 22L33 23L32 23L32 24L34 24L34 22L35 22L35 23L36 23L36 24L37 24L37 22L39 22L39 23L40 23L40 24L38 24L38 25L39 25L39 26L41 26L41 23L40 23L40 22L41 22L41 21L39 21L39 20L38 20L38 18L39 18L39 17L40 17L40 18L41 18L41 17L40 17L40 16L41 16L41 15L39 15L39 14L38 14L38 15L39 15L39 16L38 16L38 18L37 18L37 17L34 17L34 18L33 18L33 17L32 17L32 16L33 16L33 14L34 14L34 15L37 15L37 13L40 13L40 14L41 14L41 11L40 11L40 10L41 10L41 9L40 9L40 8L39 8L39 12L38 12L38 11L37 11L37 10L38 10L38 8L37 8L37 9L36 9L36 8L35 8L35 9L34 9L34 8L33 8L33 10L32 10L32 8L31 8L31 6L30 6L30 8L29 8L29 5L32 5L32 7L33 7L33 4L28 4L28 3L29 3L29 2L30 2L30 3L32 3L32 2L30 2L30 1L32 1L32 0L28 0L28 1L26 1L26 0L22 0L22 1L21 1L21 3L20 3L20 2L19 2L19 3L18 3L18 4L16 4L16 3L15 3L15 2L16 2L16 1L20 1L20 0ZM23 1L23 4L22 4L22 3L21 3L21 4L22 4L22 5L15 5L15 10L16 10L16 11L14 11L14 12L17 12L17 13L16 13L16 14L18 14L18 13L20 13L20 14L19 14L19 15L20 15L20 16L18 16L18 15L16 15L16 17L12 17L12 18L11 18L11 19L12 19L12 20L13 20L13 21L9 21L9 23L10 23L10 22L13 22L13 21L18 21L18 23L17 23L17 22L15 22L15 26L16 26L16 27L14 27L14 28L17 28L17 25L16 25L16 23L17 23L17 24L18 24L18 25L19 25L19 24L21 24L21 25L20 25L20 26L21 26L21 25L24 25L24 23L25 23L25 24L26 24L26 23L25 23L25 20L26 20L26 22L28 22L28 21L29 21L29 20L30 20L30 21L33 21L33 22L34 22L34 21L37 21L37 20L36 20L36 19L37 19L37 18L34 18L34 19L35 19L35 20L34 20L34 21L33 21L33 20L32 20L32 18L30 18L30 17L31 17L31 16L32 16L32 14L31 14L31 16L30 16L30 15L27 15L27 14L28 14L28 13L29 13L29 14L30 14L30 13L33 13L33 12L32 12L32 10L31 10L31 12L30 12L30 9L29 9L29 8L28 8L28 6L27 6L27 10L26 10L26 9L25 9L25 8L26 8L26 5L28 5L28 4L27 4L27 3L26 3L26 1L25 1L25 3L26 3L26 5L25 5L25 4L24 4L24 1ZM10 3L10 4L11 4L11 3ZM19 3L19 4L20 4L20 3ZM23 4L23 5L24 5L24 7L25 7L25 5L24 5L24 4ZM12 6L12 7L13 7L13 6ZM16 6L16 10L17 10L17 12L19 12L19 11L18 11L18 10L20 10L20 12L22 12L22 13L21 13L21 14L20 14L20 15L21 15L21 16L20 16L20 17L18 17L18 16L17 16L17 17L18 17L18 19L19 19L19 20L18 20L18 21L19 21L19 20L22 20L22 22L21 22L21 21L20 21L20 23L21 23L21 24L23 24L23 22L24 22L24 21L23 21L23 20L25 20L25 18L26 18L26 19L27 19L27 20L29 20L29 19L30 19L30 18L29 18L29 19L28 19L28 18L27 18L27 17L28 17L28 16L26 16L26 17L23 17L23 18L22 18L22 19L19 19L19 18L20 18L20 17L21 17L21 16L22 16L22 15L21 15L21 14L22 14L22 13L23 13L23 14L24 14L24 15L23 15L23 16L25 16L25 14L24 14L24 13L23 13L23 12L25 12L25 13L26 13L26 12L25 12L25 11L26 11L26 10L25 10L25 9L21 9L21 10L20 10L20 9L19 9L19 8L20 8L20 7L21 7L21 8L22 8L22 7L23 7L23 6L22 6L22 7L21 7L21 6L20 6L20 7L19 7L19 6L18 6L18 8L17 8L17 6ZM2 9L2 11L4 11L4 10L5 10L5 9ZM6 9L6 10L7 10L7 11L6 11L6 12L7 12L7 11L8 11L8 13L6 13L6 14L8 14L8 13L10 13L10 12L9 12L9 11L8 11L8 10L9 10L9 9L8 9L8 10L7 10L7 9ZM28 9L28 10L27 10L27 11L28 11L28 10L29 10L29 9ZM23 10L23 11L24 11L24 10ZM33 10L33 11L34 11L34 13L37 13L37 12L35 12L35 11L34 11L34 10ZM27 12L27 13L28 13L28 12ZM29 12L29 13L30 13L30 12ZM0 15L0 16L1 16L1 15ZM29 16L29 17L30 17L30 16ZM2 17L2 18L3 18L3 19L2 19L2 20L3 20L3 19L5 19L5 18L7 18L7 17ZM12 18L12 19L13 19L13 18ZM15 18L15 19L14 19L14 20L15 20L15 19L16 19L16 18ZM23 18L23 19L22 19L22 20L23 20L23 19L24 19L24 18ZM6 23L6 24L7 24L7 23ZM12 23L12 24L14 24L14 23ZM18 23L18 24L19 24L19 23ZM27 23L27 25L25 25L25 26L26 26L26 27L25 27L25 28L28 28L28 29L26 29L26 30L25 30L25 29L24 29L24 30L25 30L25 32L26 32L26 31L27 31L27 30L28 30L28 31L29 31L29 32L30 32L30 31L31 31L31 33L32 33L32 32L33 32L33 31L34 31L34 32L35 32L35 31L34 31L34 30L33 30L33 31L32 31L32 30L30 30L30 29L31 29L31 28L32 28L32 29L33 29L33 27L32 27L32 26L29 26L29 24L28 24L28 23ZM2 24L2 25L4 25L4 24ZM36 25L36 26L37 26L37 25ZM23 26L23 27L24 27L24 26ZM27 26L27 27L28 27L28 28L29 28L29 29L30 29L30 28L29 28L29 27L28 27L28 26ZM6 27L6 28L7 28L7 29L4 29L4 30L5 30L5 31L6 31L6 32L8 32L8 33L9 33L9 32L8 32L8 31L6 31L6 30L7 30L7 29L8 29L8 30L10 30L10 29L8 29L8 28L7 28L7 27ZM37 27L37 28L38 28L38 29L40 29L40 30L41 30L41 28L40 28L40 27L39 27L39 28L38 28L38 27ZM0 29L0 33L1 33L1 29ZM20 29L20 30L22 30L22 29ZM36 31L36 32L37 32L37 33L38 33L38 32L39 32L39 31L38 31L38 32L37 32L37 31ZM20 33L20 34L21 34L21 33ZM33 33L33 36L36 36L36 33ZM15 34L15 35L14 35L14 36L15 36L15 37L14 37L14 38L18 38L18 37L19 37L19 38L20 38L20 37L19 37L19 36L18 36L18 37L16 37L16 36L17 36L17 34ZM26 34L26 35L28 35L28 34ZM34 34L34 35L35 35L35 34ZM11 35L11 36L12 36L12 37L13 37L13 35ZM8 36L8 41L9 41L9 38L10 38L10 37L9 37L9 36ZM21 37L21 40L20 40L20 39L19 39L19 41L21 41L21 40L23 40L23 38L24 38L24 37ZM29 37L29 38L30 38L30 37ZM33 37L33 38L35 38L35 37ZM36 37L36 38L37 38L37 37ZM11 38L11 40L10 40L10 41L12 41L12 39L13 39L13 38ZM16 39L16 40L17 40L17 41L18 41L18 40L17 40L17 39ZM28 39L28 40L30 40L30 39ZM31 39L31 40L32 40L32 39ZM13 40L13 41L15 41L15 40ZM24 40L24 41L26 41L26 40ZM0 0L0 7L7 7L7 0ZM1 1L1 6L6 6L6 1ZM2 2L2 5L5 5L5 2ZM34 0L34 7L41 7L41 0ZM35 1L35 6L40 6L40 1ZM36 2L36 5L39 5L39 2ZM0 34L0 41L7 41L7 34ZM1 35L1 40L6 40L6 35ZM2 36L2 39L5 39L5 36Z" fill="#000000"/></g></g></svg>
