<?xml version="1.0" encoding="UTF-8"?>
<svg xmlns="http://www.w3.org/2000/svg" version="1.1" width="200" height="200" viewBox="0 0 200 200"><rect x="0" y="0" width="200" height="200" fill="#ffffff"/><g transform="scale(4.878)"><g transform="translate(0,0)"><path fill-rule="evenodd" d="M8 0L8 1L9 1L9 2L8 2L8 5L9 5L9 2L11 2L11 1L10 1L10 0ZM16 0L16 1L17 1L17 0ZM18 0L18 1L20 1L20 2L22 2L22 7L23 7L23 8L21 8L21 5L20 5L20 4L21 4L21 3L20 3L20 4L18 4L18 3L17 3L17 4L16 4L16 3L15 3L15 1L14 1L14 2L12 2L12 3L10 3L10 5L11 5L11 6L10 6L10 8L11 8L11 9L10 9L10 13L8 13L8 14L10 14L10 15L8 15L8 16L6 16L6 15L7 15L7 14L6 14L6 13L7 13L7 12L9 12L9 8L8 8L8 9L7 9L7 8L6 8L6 9L7 9L7 10L6 10L6 11L5 11L5 13L4 13L4 12L3 12L3 13L1 13L1 14L0 14L0 16L2 16L2 17L7 17L7 18L5 18L5 19L4 19L4 18L3 18L3 19L4 19L4 20L5 20L5 21L3 21L3 20L2 20L2 19L1 19L1 17L0 17L0 19L1 19L1 20L2 20L2 22L4 22L4 23L7 23L7 24L6 24L6 25L7 25L7 26L6 26L6 27L9 27L9 28L5 28L5 26L4 26L4 28L5 28L5 29L4 29L4 31L3 31L3 29L2 29L2 32L1 32L1 33L2 33L2 32L4 32L4 33L7 33L7 32L8 32L8 31L7 31L7 30L8 30L8 29L9 29L9 30L11 30L11 26L10 26L10 24L11 24L11 25L12 25L12 27L13 27L13 28L12 28L12 29L13 29L13 31L15 31L15 32L16 32L16 33L17 33L17 34L16 34L16 35L17 35L17 34L18 34L18 35L19 35L19 36L21 36L21 35L19 35L19 33L20 33L20 34L21 34L21 33L20 33L20 32L19 32L19 30L18 30L18 31L17 31L17 32L16 32L16 30L17 30L17 28L16 28L16 29L15 29L15 30L14 30L14 29L13 29L13 28L14 28L14 27L15 27L15 26L16 26L16 27L17 27L17 26L18 26L18 27L19 27L19 28L18 28L18 29L19 29L19 28L20 28L20 30L21 30L21 31L22 31L22 32L23 32L23 34L22 34L22 36L24 36L24 37L27 37L27 38L25 38L25 39L24 39L24 40L22 40L22 39L23 39L23 38L21 38L21 40L22 40L22 41L24 41L24 40L25 40L25 41L27 41L27 40L28 40L28 41L29 41L29 40L28 40L28 39L30 39L30 40L31 40L31 39L30 39L30 38L32 38L32 41L33 41L33 40L34 40L34 41L36 41L36 40L35 40L35 39L33 39L33 38L34 38L34 37L36 37L36 38L37 38L37 40L38 40L38 39L39 39L39 41L40 41L40 39L39 39L39 36L38 36L38 35L40 35L40 37L41 37L41 35L40 35L40 34L41 34L41 32L40 32L40 33L39 33L39 31L38 31L38 32L33 32L33 31L31 31L31 33L30 33L30 31L28 31L28 29L27 29L27 31L28 31L28 32L26 32L26 33L28 33L28 32L29 32L29 35L25 35L25 36L24 36L24 34L25 34L25 29L26 29L26 28L29 28L29 27L26 27L26 28L25 28L25 27L23 27L23 26L21 26L21 25L23 25L23 23L24 23L24 25L26 25L26 26L28 26L28 25L27 25L27 24L28 24L28 23L30 23L30 24L29 24L29 26L30 26L30 27L33 27L33 28L30 28L30 29L32 29L32 30L34 30L34 31L37 31L37 30L36 30L36 29L37 29L37 28L38 28L38 26L39 26L39 27L40 27L40 28L39 28L39 29L38 29L38 30L40 30L40 29L41 29L41 24L40 24L40 23L39 23L39 24L38 24L38 23L34 23L34 24L38 24L38 26L36 26L36 25L34 25L34 27L33 27L33 26L32 26L32 25L31 25L31 26L30 26L30 24L33 24L33 22L37 22L37 20L38 20L38 21L39 21L39 22L41 22L41 21L39 21L39 20L40 20L40 19L38 19L38 18L39 18L39 17L37 17L37 15L36 15L36 14L35 14L35 13L34 13L34 14L32 14L32 13L31 13L31 12L36 12L36 11L35 11L35 10L38 10L38 11L39 11L39 12L37 12L37 14L39 14L39 16L41 16L41 13L39 13L39 12L41 12L41 11L40 11L40 10L41 10L41 8L40 8L40 9L39 9L39 8L36 8L36 9L34 9L34 8L33 8L33 6L32 6L32 4L33 4L33 3L32 3L32 4L31 4L31 5L30 5L30 7L29 7L29 6L28 6L28 10L29 10L29 9L30 9L30 12L29 12L29 11L27 11L27 8L26 8L26 11L25 11L25 10L23 10L23 11L22 11L22 13L21 13L21 14L22 14L22 13L23 13L23 11L24 11L24 12L25 12L25 13L24 13L24 14L25 14L25 15L26 15L26 14L25 14L25 13L27 13L27 14L29 14L29 15L30 15L30 17L28 17L28 15L27 15L27 17L24 17L24 16L23 16L23 15L21 15L21 16L22 16L22 17L21 17L21 19L20 19L20 20L19 20L19 19L17 19L17 20L16 20L16 18L18 18L18 17L19 17L19 15L20 15L20 13L19 13L19 15L18 15L18 12L17 12L17 11L19 11L19 12L20 12L20 11L19 11L19 10L20 10L20 8L21 8L21 10L22 10L22 9L23 9L23 8L25 8L25 6L26 6L26 7L27 7L27 5L29 5L29 4L30 4L30 3L31 3L31 1L32 1L32 2L33 2L33 1L32 1L32 0L30 0L30 1L29 1L29 0L28 0L28 2L30 2L30 3L29 3L29 4L28 4L28 3L27 3L27 2L25 2L25 1L23 1L23 0L22 0L22 1L20 1L20 0ZM23 2L23 3L24 3L24 2ZM14 3L14 4L11 4L11 5L12 5L12 6L11 6L11 8L12 8L12 6L13 6L13 10L15 10L15 11L14 11L14 12L15 12L15 11L17 11L17 10L18 10L18 9L19 9L19 8L20 8L20 6L19 6L19 7L18 7L18 4L17 4L17 5L16 5L16 4L15 4L15 3ZM25 3L25 4L23 4L23 7L24 7L24 5L25 5L25 4L26 4L26 3ZM14 4L14 5L13 5L13 6L14 6L14 7L15 7L15 4ZM8 6L8 7L9 7L9 6ZM16 6L16 7L17 7L17 8L16 8L16 9L15 9L15 8L14 8L14 9L15 9L15 10L17 10L17 9L18 9L18 7L17 7L17 6ZM31 6L31 7L30 7L30 9L31 9L31 7L32 7L32 6ZM0 8L0 9L2 9L2 11L1 11L1 10L0 10L0 11L1 11L1 12L2 12L2 11L3 11L3 9L4 9L4 10L5 10L5 9L4 9L4 8ZM32 8L32 10L31 10L31 11L34 11L34 10L33 10L33 8ZM11 9L11 11L12 11L12 14L11 14L11 13L10 13L10 14L11 14L11 15L10 15L10 16L9 16L9 17L8 17L8 18L7 18L7 19L6 19L6 20L7 20L7 21L5 21L5 22L7 22L7 23L8 23L8 25L9 25L9 24L10 24L10 22L11 22L11 23L17 23L17 24L18 24L18 26L19 26L19 25L20 25L20 24L19 24L19 23L21 23L21 24L22 24L22 22L23 22L23 21L24 21L24 22L25 22L25 21L26 21L26 20L28 20L28 21L27 21L27 22L26 22L26 23L28 23L28 21L29 21L29 20L28 20L28 19L29 19L29 18L28 18L28 19L26 19L26 18L25 18L25 19L24 19L24 17L23 17L23 18L22 18L22 19L21 19L21 20L23 20L23 21L22 21L22 22L19 22L19 23L18 23L18 22L17 22L17 21L15 21L15 19L14 19L14 17L18 17L18 15L16 15L16 13L13 13L13 11L12 11L12 9ZM38 9L38 10L39 10L39 9ZM6 11L6 12L7 12L7 11ZM26 11L26 12L27 12L27 11ZM28 12L28 13L29 13L29 12ZM3 13L3 15L5 15L5 14L4 14L4 13ZM30 13L30 15L31 15L31 17L30 17L30 20L32 20L32 21L34 21L34 20L35 20L35 21L36 21L36 20L37 20L37 17L36 17L36 18L35 18L35 16L36 16L36 15L35 15L35 14L34 14L34 15L33 15L33 16L34 16L34 18L33 18L33 19L32 19L32 15L31 15L31 13ZM12 14L12 16L10 16L10 17L11 17L11 18L10 18L10 19L8 19L8 20L9 20L9 21L8 21L8 22L9 22L9 21L10 21L10 20L12 20L12 19L13 19L13 17L14 17L14 16L13 16L13 14ZM12 16L12 17L13 17L13 16ZM11 18L11 19L12 19L12 18ZM34 18L34 19L35 19L35 20L36 20L36 19L35 19L35 18ZM13 20L13 21L14 21L14 20ZM0 21L0 25L1 25L1 26L2 26L2 25L4 25L4 24L2 24L2 23L1 23L1 21ZM30 22L30 23L32 23L32 22ZM1 24L1 25L2 25L2 24ZM12 24L12 25L13 25L13 24ZM15 24L15 25L16 25L16 26L17 26L17 25L16 25L16 24ZM13 26L13 27L14 27L14 26ZM35 26L35 28L33 28L33 29L34 29L34 30L35 30L35 28L37 28L37 27L36 27L36 26ZM0 27L0 28L1 28L1 27ZM2 27L2 28L3 28L3 27ZM22 27L22 29L21 29L21 30L22 30L22 29L25 29L25 28L23 28L23 27ZM9 28L9 29L10 29L10 28ZM5 29L5 31L6 31L6 32L7 32L7 31L6 31L6 30L7 30L7 29ZM0 30L0 31L1 31L1 30ZM23 30L23 32L24 32L24 30ZM10 31L10 33L11 33L11 35L12 35L12 37L10 37L10 36L9 36L9 37L8 37L8 41L10 41L10 39L11 39L11 40L12 40L12 38L13 38L13 39L14 39L14 38L13 38L13 36L15 36L15 38L16 38L16 39L15 39L15 40L17 40L17 38L16 38L16 36L15 36L15 34L14 34L14 35L13 35L13 34L12 34L12 33L11 33L11 32L12 32L12 31ZM8 33L8 34L9 34L9 35L10 35L10 34L9 34L9 33ZM33 33L33 36L36 36L36 33ZM38 33L38 34L39 34L39 33ZM34 34L34 35L35 35L35 34ZM29 35L29 36L27 36L27 37L29 37L29 36L30 36L30 37L32 37L32 38L33 38L33 37L32 37L32 35L31 35L31 36L30 36L30 35ZM17 36L17 37L18 37L18 39L19 39L19 40L18 40L18 41L19 41L19 40L20 40L20 37L18 37L18 36ZM37 36L37 38L38 38L38 36ZM9 38L9 39L10 39L10 38ZM27 38L27 39L25 39L25 40L27 40L27 39L28 39L28 38ZM0 0L0 7L7 7L7 0ZM1 1L1 6L6 6L6 1ZM2 2L2 5L5 5L5 2ZM34 0L34 7L41 7L41 0ZM35 1L35 6L40 6L40 1ZM36 2L36 5L39 5L39 2ZM0 34L0 41L7 41L7 34ZM1 35L1 40L6 40L6 35ZM2 36L2 39L5 39L5 36Z" fill="#000000"/></g></g></svg>
