<?xml version="1.0" encoding="UTF-8"?>
<svg xmlns="http://www.w3.org/2000/svg" version="1.1" width="200" height="200" viewBox="0 0 200 200"><rect x="0" y="0" width="200" height="200" fill="#ffffff"/><g transform="scale(4.444)"><g transform="translate(0,0)"><path fill-rule="evenodd" d="M9 0L9 3L8 3L8 5L10 5L10 4L11 4L11 5L12 5L12 3L13 3L13 4L14 4L14 5L15 5L15 3L17 3L17 2L15 2L15 1L18 1L18 0L15 0L15 1L14 1L14 0L11 0L11 2L12 2L12 3L10 3L10 0ZM20 0L20 1L19 1L19 3L18 3L18 4L20 4L20 8L19 8L19 6L18 6L18 5L17 5L17 6L16 6L16 7L15 7L15 6L14 6L14 7L15 7L15 12L14 12L14 8L13 8L13 9L12 9L12 10L11 10L11 6L10 6L10 10L9 10L9 11L8 11L8 12L9 12L9 11L10 11L10 13L8 13L8 14L6 14L6 13L7 13L7 12L6 12L6 11L7 11L7 10L8 10L8 8L5 8L5 9L4 9L4 10L5 10L5 9L7 9L7 10L6 10L6 11L4 11L4 12L3 12L3 13L2 13L2 14L1 14L1 13L0 13L0 14L1 14L1 16L0 16L0 18L1 18L1 19L2 19L2 20L0 20L0 21L1 21L1 22L0 22L0 25L1 25L1 26L0 26L0 29L3 29L3 28L5 28L5 29L4 29L4 31L5 31L5 34L4 34L4 35L1 35L1 36L0 36L0 37L1 37L1 36L3 36L3 37L5 37L5 34L6 34L6 35L7 35L7 36L6 36L6 37L7 37L7 36L8 36L8 40L9 40L9 42L10 42L10 44L9 44L9 43L8 43L8 45L11 45L11 43L12 43L12 44L13 44L13 43L14 43L14 44L15 44L15 43L16 43L16 42L15 42L15 41L14 41L14 42L13 42L13 41L12 41L12 40L13 40L13 39L12 39L12 40L10 40L10 39L11 39L11 37L12 37L12 38L15 38L15 39L16 39L16 41L17 41L17 39L18 39L18 41L19 41L19 43L20 43L20 44L18 44L18 43L17 43L17 44L16 44L16 45L20 45L20 44L21 44L21 45L26 45L26 44L27 44L27 43L28 43L28 44L29 44L29 45L30 45L30 44L31 44L31 43L32 43L32 44L33 44L33 45L34 45L34 44L33 44L33 41L35 41L35 42L36 42L36 43L35 43L35 45L37 45L37 44L38 44L38 45L42 45L42 44L43 44L43 45L44 45L44 44L43 44L43 43L44 43L44 41L42 41L42 40L43 40L43 39L44 39L44 38L45 38L45 37L44 37L44 31L45 31L45 28L44 28L44 27L42 27L42 28L41 28L41 27L40 27L40 29L39 29L39 30L38 30L38 33L37 33L37 32L36 32L36 30L35 30L35 32L33 32L33 31L34 31L34 29L35 29L35 28L36 28L36 29L38 29L38 28L37 28L37 27L38 27L38 26L37 26L37 25L39 25L39 26L40 26L40 25L42 25L42 26L43 26L43 25L42 25L42 24L44 24L44 22L43 22L43 21L42 21L42 23L41 23L41 19L42 19L42 20L43 20L43 18L44 18L44 20L45 20L45 17L43 17L43 18L42 18L42 16L45 16L45 15L44 15L44 14L45 14L45 12L44 12L44 14L41 14L41 13L42 13L42 12L43 12L43 11L44 11L44 9L43 9L43 10L41 10L41 9L42 9L42 8L40 8L40 10L41 10L41 11L39 11L39 9L36 9L36 11L35 11L35 8L33 8L33 5L37 5L37 3L36 3L36 1L37 1L37 0L36 0L36 1L35 1L35 4L34 4L34 2L32 2L32 1L33 1L33 0L32 0L32 1L31 1L31 0L30 0L30 1L31 1L31 2L30 2L30 4L29 4L29 2L27 2L27 1L28 1L28 0L25 0L25 1L24 1L24 0ZM12 1L12 2L14 2L14 3L15 3L15 2L14 2L14 1ZM23 1L23 2L22 2L22 3L20 3L20 4L23 4L23 3L25 3L25 5L28 5L28 6L27 6L27 7L26 7L26 6L25 6L25 10L26 10L26 9L27 9L27 10L28 10L28 11L27 11L27 12L26 12L26 11L25 11L25 12L24 12L24 14L23 14L23 11L21 11L21 10L22 10L22 9L21 9L21 10L20 10L20 9L17 9L17 10L16 10L16 12L15 12L15 13L16 13L16 14L15 14L15 15L17 15L17 13L18 13L18 12L19 12L19 11L18 11L18 10L20 10L20 13L19 13L19 16L20 16L20 18L19 18L19 17L18 17L18 18L19 18L19 19L16 19L16 20L14 20L14 19L10 19L10 18L14 18L14 17L16 17L16 18L17 18L17 17L16 17L16 16L14 16L14 17L12 17L12 16L13 16L13 15L14 15L14 14L13 14L13 13L14 13L14 12L13 12L13 13L11 13L11 14L10 14L10 16L9 16L9 14L8 14L8 15L6 15L6 14L5 14L5 13L6 13L6 12L4 12L4 14L5 14L5 15L6 15L6 16L5 16L5 17L4 17L4 16L2 16L2 17L1 17L1 18L3 18L3 19L4 19L4 18L5 18L5 19L6 19L6 20L8 20L8 19L10 19L10 21L9 21L9 22L11 22L11 23L9 23L9 24L12 24L12 22L13 22L13 21L11 21L11 20L14 20L14 24L13 24L13 25L12 25L12 26L11 26L11 27L9 27L9 26L8 26L8 27L6 27L6 26L7 26L7 25L6 25L6 26L4 26L4 27L6 27L6 28L8 28L8 27L9 27L9 29L8 29L8 32L9 32L9 30L10 30L10 31L11 31L11 30L12 30L12 29L13 29L13 30L14 30L14 29L15 29L15 28L16 28L16 30L17 30L17 31L14 31L14 36L13 36L13 35L12 35L12 37L14 37L14 36L16 36L16 37L15 37L15 38L18 38L18 39L19 39L19 38L20 38L20 37L18 37L18 35L19 35L19 36L22 36L22 35L23 35L23 36L24 36L24 35L25 35L25 37L26 37L26 38L25 38L25 40L26 40L26 41L25 41L25 44L26 44L26 43L27 43L27 41L28 41L28 43L29 43L29 44L30 44L30 43L31 43L31 42L30 42L30 43L29 43L29 39L30 39L30 41L33 41L33 40L35 40L35 39L34 39L34 38L36 38L36 37L34 37L34 36L35 36L35 35L36 35L36 36L38 36L38 35L39 35L39 36L42 36L42 37L41 37L41 40L42 40L42 39L43 39L43 38L44 38L44 37L43 37L43 36L42 36L42 35L43 35L43 32L42 32L42 30L41 30L41 29L40 29L40 31L39 31L39 32L41 32L41 35L39 35L39 34L38 34L38 35L37 35L37 34L35 34L35 35L34 35L34 33L33 33L33 32L32 32L32 30L33 30L33 29L34 29L34 27L33 27L33 26L35 26L35 27L36 27L36 26L35 26L35 25L33 25L33 26L32 26L32 24L31 24L31 22L32 22L32 23L34 23L34 24L36 24L36 23L34 23L34 22L32 22L32 21L36 21L36 19L37 19L37 18L36 18L36 17L37 17L37 16L35 16L35 15L34 15L34 14L35 14L35 13L38 13L38 14L39 14L39 15L40 15L40 16L38 16L38 20L40 20L40 19L39 19L39 17L41 17L41 14L39 14L39 13L40 13L40 12L39 12L39 11L38 11L38 12L37 12L37 11L36 11L36 12L35 12L35 11L33 11L33 10L32 10L32 9L33 9L33 8L32 8L32 9L31 9L31 10L29 10L29 9L30 9L30 8L28 8L28 9L27 9L27 7L28 7L28 6L29 6L29 7L30 7L30 6L31 6L31 7L32 7L32 6L31 6L31 5L32 5L32 4L31 4L31 5L29 5L29 4L28 4L28 3L27 3L27 2L24 2L24 1ZM21 5L21 8L24 8L24 5ZM8 6L8 7L9 7L9 6ZM12 6L12 7L13 7L13 6ZM17 6L17 7L16 7L16 8L18 8L18 6ZM22 6L22 7L23 7L23 6ZM34 6L34 7L35 7L35 6ZM36 6L36 7L37 7L37 6ZM0 8L0 12L1 12L1 11L2 11L2 10L3 10L3 9L2 9L2 8ZM1 9L1 10L2 10L2 9ZM31 10L31 11L32 11L32 12L29 12L29 11L28 11L28 13L27 13L27 14L26 14L26 16L25 16L25 14L24 14L24 15L23 15L23 14L20 14L20 16L21 16L21 19L23 19L23 16L25 16L25 17L24 17L24 20L20 20L20 19L19 19L19 20L16 20L16 21L15 21L15 22L16 22L16 23L15 23L15 24L14 24L14 26L15 26L15 27L16 27L16 28L17 28L17 30L18 30L18 31L17 31L17 32L15 32L15 33L16 33L16 34L15 34L15 35L16 35L16 36L17 36L17 33L19 33L19 34L20 34L20 35L22 35L22 34L20 34L20 33L19 33L19 31L20 31L20 32L21 32L21 31L22 31L22 32L23 32L23 31L24 31L24 33L23 33L23 35L24 35L24 34L25 34L25 35L27 35L27 36L28 36L28 37L27 37L27 38L28 38L28 39L29 39L29 38L31 38L31 39L33 39L33 38L34 38L34 37L33 37L33 36L34 36L34 35L33 35L33 33L32 33L32 34L31 34L31 31L30 31L30 30L32 30L32 28L30 28L30 26L31 26L31 25L30 25L30 23L28 23L28 22L27 22L27 20L29 20L29 19L30 19L30 20L31 20L31 21L30 21L30 22L31 22L31 21L32 21L32 20L34 20L34 17L32 17L32 13L33 13L33 14L34 14L34 13L35 13L35 12L33 12L33 11L32 11L32 10ZM21 12L21 13L22 13L22 12ZM25 12L25 13L26 13L26 12ZM38 12L38 13L39 13L39 12ZM29 13L29 14L28 14L28 15L27 15L27 16L26 16L26 17L25 17L25 21L26 21L26 20L27 20L27 18L28 18L28 19L29 19L29 18L28 18L28 17L29 17L29 15L31 15L31 14L30 14L30 13ZM11 14L11 15L12 15L12 14ZM21 15L21 16L22 16L22 15ZM6 16L6 17L5 17L5 18L6 18L6 19L8 19L8 17L9 17L9 18L10 18L10 17L9 17L9 16ZM27 16L27 17L28 17L28 16ZM6 17L6 18L7 18L7 17ZM30 18L30 19L31 19L31 18ZM35 18L35 19L36 19L36 18ZM2 20L2 21L3 21L3 20ZM5 21L5 24L8 24L8 21ZM17 21L17 22L19 22L19 23L16 23L16 24L15 24L15 26L19 26L19 28L20 28L20 29L21 29L21 30L20 30L20 31L21 31L21 30L22 30L22 29L23 29L23 30L24 30L24 31L26 31L26 30L27 30L27 32L26 32L26 33L25 33L25 34L26 34L26 33L27 33L27 35L29 35L29 36L30 36L30 37L31 37L31 38L32 38L32 35L31 35L31 36L30 36L30 35L29 35L29 34L28 34L28 33L30 33L30 32L28 32L28 30L30 30L30 28L29 28L29 26L28 26L28 25L25 25L25 26L24 26L24 25L23 25L23 26L24 26L24 27L23 27L23 28L22 28L22 25L21 25L21 27L20 27L20 26L19 26L19 25L18 25L18 24L20 24L20 21ZM21 21L21 24L24 24L24 21ZM37 21L37 24L40 24L40 21ZM3 22L3 23L1 23L1 25L2 25L2 26L1 26L1 27L2 27L2 26L3 26L3 24L4 24L4 22ZM6 22L6 23L7 23L7 22ZM22 22L22 23L23 23L23 22ZM25 22L25 23L26 23L26 24L27 24L27 22ZM38 22L38 23L39 23L39 22ZM44 25L44 26L45 26L45 25ZM26 26L26 29L25 29L25 27L24 27L24 28L23 28L23 29L25 29L25 30L26 30L26 29L27 29L27 30L28 30L28 29L27 29L27 28L28 28L28 26ZM11 27L11 28L10 28L10 29L11 29L11 28L12 28L12 27ZM13 28L13 29L14 29L14 28ZM21 28L21 29L22 29L22 28ZM42 28L42 29L43 29L43 31L44 31L44 28ZM5 29L5 30L7 30L7 29ZM18 29L18 30L19 30L19 29ZM0 30L0 31L1 31L1 30ZM2 30L2 31L3 31L3 30ZM6 31L6 32L7 32L7 31ZM12 31L12 32L11 32L11 34L10 34L10 33L9 33L9 35L8 35L8 34L7 34L7 33L6 33L6 34L7 34L7 35L8 35L8 36L9 36L9 35L11 35L11 34L12 34L12 32L13 32L13 31ZM1 32L1 34L3 34L3 32ZM27 32L27 33L28 33L28 32ZM35 32L35 33L36 33L36 32ZM10 36L10 37L11 37L11 36ZM21 37L21 40L24 40L24 37ZM37 37L37 40L40 40L40 37ZM42 37L42 38L43 38L43 37ZM22 38L22 39L23 39L23 38ZM38 38L38 39L39 39L39 38ZM26 39L26 40L27 40L27 39ZM19 40L19 41L20 41L20 43L24 43L24 42L23 42L23 41L22 41L22 42L21 42L21 41L20 41L20 40ZM36 41L36 42L37 42L37 43L38 43L38 44L40 44L40 43L38 43L38 42L40 42L40 41L38 41L38 42L37 42L37 41ZM41 41L41 42L42 42L42 43L43 43L43 42L42 42L42 41ZM12 42L12 43L13 43L13 42ZM14 42L14 43L15 43L15 42ZM0 0L0 7L7 7L7 0ZM1 1L1 6L6 6L6 1ZM2 2L2 5L5 5L5 2ZM38 0L38 7L45 7L45 0ZM39 1L39 6L44 6L44 1ZM40 2L40 5L43 5L43 2ZM0 38L0 45L7 45L7 38ZM1 39L1 44L6 44L6 39ZM2 40L2 43L5 43L5 40Z" fill="#000000"/></g></g></svg>
