<?xml version="1.0" encoding="UTF-8"?>
<svg xmlns="http://www.w3.org/2000/svg" version="1.1" width="200" height="200" viewBox="0 0 200 200"><rect x="0" y="0" width="200" height="200" fill="#ffffff"/><g transform="scale(4.444)"><g transform="translate(0,0)"><path fill-rule="evenodd" d="M11 0L11 2L10 2L10 3L8 3L8 4L9 4L9 5L8 5L8 7L9 7L9 8L6 8L6 9L5 9L5 8L0 8L0 10L1 10L1 11L3 11L3 12L4 12L4 13L5 13L5 15L4 15L4 14L3 14L3 13L2 13L2 14L3 14L3 16L2 16L2 17L1 17L1 16L0 16L0 26L1 26L1 27L0 27L0 31L2 31L2 32L3 32L3 33L2 33L2 34L3 34L3 33L4 33L4 35L1 35L1 36L0 36L0 37L1 37L1 36L3 36L3 37L5 37L5 33L4 33L4 32L3 32L3 30L6 30L6 31L5 31L5 32L6 32L6 33L7 33L7 32L6 32L6 31L8 31L8 34L6 34L6 35L8 35L8 39L9 39L9 40L8 40L8 45L9 45L9 42L10 42L10 43L12 43L12 44L13 44L13 45L14 45L14 42L13 42L13 41L15 41L15 40L16 40L16 41L19 41L19 39L20 39L20 41L26 41L26 40L25 40L25 38L26 38L26 39L27 39L27 40L29 40L29 42L24 42L24 43L25 43L25 44L23 44L23 42L18 42L18 43L17 43L17 44L16 44L16 43L15 43L15 45L17 45L17 44L18 44L18 45L20 45L20 44L21 44L21 45L26 45L26 43L27 43L27 45L28 45L28 44L29 44L29 42L31 42L31 43L32 43L32 44L33 44L33 45L34 45L34 44L36 44L36 45L37 45L37 44L38 44L38 45L41 45L41 44L43 44L43 45L44 45L44 44L43 44L43 42L44 42L44 43L45 43L45 42L44 42L44 41L45 41L45 40L44 40L44 38L45 38L45 37L44 37L44 38L43 38L43 37L42 37L42 38L43 38L43 39L42 39L42 40L41 40L41 36L43 36L43 35L44 35L44 34L45 34L45 32L43 32L43 29L41 29L41 28L44 28L44 30L45 30L45 27L38 27L38 26L37 26L37 25L41 25L41 26L43 26L43 25L41 25L41 24L43 24L43 22L45 22L45 21L42 21L42 20L43 20L43 19L44 19L44 20L45 20L45 19L44 19L44 18L45 18L45 15L44 15L44 17L43 17L43 18L42 18L42 16L43 16L43 14L41 14L41 15L40 15L40 14L39 14L39 15L40 15L40 16L41 16L41 17L40 17L40 18L38 18L38 15L37 15L37 17L36 17L36 18L38 18L38 19L39 19L39 20L37 20L37 19L36 19L36 21L35 21L35 22L34 22L34 21L32 21L32 20L33 20L33 19L35 19L35 18L33 18L33 17L32 17L32 16L36 16L36 15L35 15L35 14L38 14L38 13L39 13L39 12L38 12L38 13L35 13L35 14L34 14L34 15L30 15L30 14L33 14L33 13L34 13L34 12L33 12L33 11L35 11L35 12L36 12L36 11L39 11L39 10L40 10L40 8L39 8L39 10L38 10L38 8L37 8L37 6L36 6L36 7L35 7L35 6L34 6L34 5L37 5L37 3L36 3L36 1L37 1L37 0L36 0L36 1L35 1L35 4L34 4L34 5L33 5L33 4L32 4L32 3L34 3L34 2L32 2L32 0L27 0L27 1L24 1L24 3L18 3L18 4L20 4L20 8L17 8L17 6L18 6L18 7L19 7L19 6L18 6L18 5L17 5L17 6L16 6L16 5L15 5L15 4L17 4L17 3L16 3L16 2L15 2L15 4L14 4L14 2L12 2L12 1L14 1L14 0ZM15 0L15 1L16 1L16 0ZM19 0L19 1L20 1L20 2L22 2L22 1L23 1L23 0L22 0L22 1L20 1L20 0ZM33 0L33 1L34 1L34 0ZM8 1L8 2L9 2L9 1ZM28 1L28 3L27 3L27 2L26 2L26 4L25 4L25 9L22 9L22 10L27 10L27 8L28 8L28 9L30 9L30 8L28 8L28 6L29 6L29 7L30 7L30 6L31 6L31 7L32 7L32 6L31 6L31 5L30 5L30 6L29 6L29 5L28 5L28 4L29 4L29 2L31 2L31 1ZM10 3L10 5L9 5L9 7L10 7L10 8L9 8L9 9L8 9L8 10L7 10L7 9L6 9L6 10L5 10L5 11L4 11L4 9L3 9L3 11L4 11L4 12L5 12L5 11L6 11L6 12L8 12L8 10L9 10L9 11L10 11L10 12L9 12L9 14L8 14L8 13L6 13L6 14L8 14L8 16L7 16L7 15L5 15L5 16L7 16L7 17L4 17L4 16L3 16L3 17L4 17L4 18L2 18L2 19L1 19L1 21L4 21L4 20L8 20L8 19L4 19L4 18L7 18L7 17L8 17L8 18L9 18L9 17L10 17L10 19L11 19L11 20L9 20L9 21L10 21L10 24L9 24L9 25L10 25L10 27L8 27L8 26L7 26L7 25L3 25L3 24L4 24L4 23L3 23L3 24L2 24L2 22L1 22L1 24L2 24L2 25L3 25L3 26L2 26L2 29L1 29L1 30L3 30L3 29L4 29L4 26L7 26L7 27L6 27L6 28L7 28L7 29L6 29L6 30L7 30L7 29L8 29L8 28L9 28L9 29L10 29L10 30L9 30L9 31L11 31L11 33L10 33L10 35L9 35L9 36L10 36L10 35L12 35L12 36L11 36L11 37L10 37L10 38L9 38L9 39L10 39L10 38L11 38L11 37L13 37L13 38L14 38L14 37L15 37L15 38L16 38L16 40L17 40L17 38L20 38L20 36L24 36L24 35L25 35L25 36L26 36L26 38L27 38L27 37L29 37L29 38L28 38L28 39L29 39L29 38L30 38L30 41L32 41L32 43L34 43L34 42L37 42L37 41L34 41L34 42L33 42L33 40L32 40L32 39L33 39L33 38L36 38L36 36L37 36L37 32L38 32L38 35L39 35L39 36L40 36L40 35L41 35L41 34L43 34L43 32L42 32L42 31L40 31L40 32L41 32L41 33L39 33L39 32L38 32L38 31L39 31L39 30L41 30L41 29L40 29L40 28L38 28L38 29L36 29L36 28L35 28L35 29L33 29L33 28L34 28L34 27L33 27L33 26L32 26L32 25L33 25L33 24L34 24L34 26L35 26L35 27L36 27L36 22L35 22L35 23L33 23L33 22L32 22L32 21L31 21L31 20L32 20L32 19L33 19L33 18L29 18L29 20L28 20L28 21L27 21L27 20L25 20L25 19L23 19L23 18L22 18L22 16L23 16L23 17L24 17L24 16L23 16L23 15L24 15L24 14L25 14L25 18L27 18L27 17L26 17L26 16L27 16L27 15L26 15L26 14L27 14L27 13L28 13L28 15L29 15L29 13L31 13L31 12L32 12L32 13L33 13L33 12L32 12L32 11L33 11L33 10L35 10L35 11L36 11L36 9L37 9L37 8L35 8L35 7L34 7L34 6L33 6L33 7L34 7L34 8L35 8L35 9L33 9L33 8L32 8L32 9L31 9L31 10L28 10L28 12L27 12L27 11L24 11L24 14L23 14L23 13L20 13L20 12L21 12L21 11L18 11L18 10L21 10L21 9L17 9L17 8L16 8L16 6L15 6L15 8L16 8L16 9L13 9L13 8L14 8L14 6L13 6L13 4L12 4L12 3ZM10 5L10 7L11 7L11 6L12 6L12 8L10 8L10 9L11 9L11 10L10 10L10 11L11 11L11 10L12 10L12 8L13 8L13 6L12 6L12 5ZM21 5L21 8L24 8L24 5ZM26 5L26 7L27 7L27 6L28 6L28 5ZM22 6L22 7L23 7L23 6ZM41 8L41 9L42 9L42 10L43 10L43 11L40 11L40 12L43 12L43 13L44 13L44 14L45 14L45 13L44 13L44 12L43 12L43 11L44 11L44 10L45 10L45 9L44 9L44 8L43 8L43 9L42 9L42 8ZM16 9L16 10L15 10L15 11L14 11L14 12L15 12L15 13L14 13L14 14L15 14L15 15L16 15L16 16L15 16L15 18L16 18L16 16L17 16L17 15L18 15L18 17L19 17L19 18L20 18L20 19L21 19L21 20L20 20L20 21L19 21L19 19L18 19L18 18L17 18L17 19L16 19L16 20L15 20L15 19L14 19L14 20L15 20L15 21L14 21L14 22L13 22L13 18L14 18L14 17L13 17L13 18L12 18L12 20L11 20L11 22L13 22L13 23L12 23L12 24L11 24L11 25L12 25L12 26L11 26L11 27L12 27L12 28L13 28L13 27L15 27L15 29L14 29L14 30L15 30L15 31L17 31L17 32L15 32L15 35L14 35L14 36L13 36L13 37L14 37L14 36L16 36L16 35L17 35L17 34L16 34L16 33L19 33L19 34L18 34L18 35L19 35L19 34L20 34L20 35L21 35L21 34L23 34L23 35L24 35L24 34L25 34L25 35L26 35L26 36L28 36L28 35L27 35L27 34L28 34L28 32L30 32L30 33L29 33L29 35L30 35L30 36L31 36L31 35L32 35L32 36L33 36L33 37L32 37L32 38L33 38L33 37L34 37L34 35L35 35L35 36L36 36L36 35L35 35L35 34L34 34L34 33L35 33L35 32L36 32L36 31L35 31L35 30L34 30L34 31L33 31L33 30L31 30L31 27L30 27L30 26L31 26L31 25L32 25L32 24L33 24L33 23L31 23L31 25L28 25L28 24L30 24L30 23L28 23L28 22L31 22L31 21L30 21L30 20L31 20L31 19L30 19L30 20L29 20L29 21L28 21L28 22L26 22L26 23L28 23L28 24L25 24L25 20L22 20L22 18L20 18L20 16L19 16L19 12L17 12L17 9ZM6 10L6 11L7 11L7 10ZM31 10L31 11L30 11L30 12L31 12L31 11L32 11L32 10ZM15 11L15 12L16 12L16 11ZM22 11L22 12L23 12L23 11ZM0 12L0 13L1 13L1 12ZM11 12L11 13L10 13L10 15L9 15L9 16L8 16L8 17L9 17L9 16L10 16L10 15L11 15L11 14L12 14L12 12ZM26 12L26 13L27 13L27 12ZM15 13L15 14L16 14L16 15L17 15L17 14L18 14L18 13ZM20 14L20 15L21 15L21 14ZM12 15L12 16L14 16L14 15ZM28 16L28 17L29 17L29 16ZM40 18L40 19L41 19L41 18ZM3 19L3 20L4 20L4 19ZM5 21L5 24L8 24L8 21ZM15 21L15 23L17 23L17 24L18 24L18 22L19 22L19 23L20 23L20 22L19 22L19 21ZM21 21L21 24L24 24L24 21ZM37 21L37 24L40 24L40 21ZM41 21L41 23L42 23L42 21ZM6 22L6 23L7 23L7 22ZM22 22L22 23L23 23L23 22ZM38 22L38 23L39 23L39 22ZM13 23L13 24L14 24L14 23ZM44 23L44 24L45 24L45 23ZM15 24L15 25L13 25L13 26L17 26L17 27L16 27L16 28L17 28L17 27L18 27L18 26L17 26L17 25L16 25L16 24ZM19 24L19 25L20 25L20 24ZM23 25L23 26L21 26L21 27L23 27L23 28L21 28L21 29L20 29L20 30L19 30L19 29L18 29L18 30L17 30L17 29L15 29L15 30L17 30L17 31L20 31L20 32L19 32L19 33L23 33L23 34L24 34L24 33L23 33L23 32L21 32L21 29L23 29L23 30L22 30L22 31L23 31L23 30L24 30L24 31L25 31L25 30L24 30L24 29L26 29L26 30L27 30L27 29L29 29L29 30L28 30L28 31L31 31L31 34L33 34L33 35L34 35L34 34L33 34L33 32L32 32L32 31L31 31L31 30L30 30L30 29L29 29L29 26L28 26L28 27L26 27L26 26L27 26L27 25L25 25L25 26L24 26L24 25ZM44 25L44 26L45 26L45 25ZM19 26L19 28L20 28L20 26ZM23 26L23 27L24 27L24 28L23 28L23 29L24 29L24 28L25 28L25 27L24 27L24 26ZM7 27L7 28L8 28L8 27ZM32 27L32 28L33 28L33 27ZM26 28L26 29L27 29L27 28ZM11 29L11 31L12 31L12 33L11 33L11 34L12 34L12 33L13 33L13 34L14 34L14 33L13 33L13 32L14 32L14 31L13 31L13 29ZM37 30L37 31L38 31L38 30ZM34 31L34 32L35 32L35 31ZM0 32L0 34L1 34L1 32ZM26 32L26 33L25 33L25 34L27 34L27 32ZM39 34L39 35L40 35L40 34ZM6 36L6 37L7 37L7 36ZM17 36L17 37L19 37L19 36ZM21 37L21 40L24 40L24 37ZM30 37L30 38L31 38L31 37ZM37 37L37 40L40 40L40 37ZM22 38L22 39L23 39L23 38ZM38 38L38 39L39 39L39 38ZM12 39L12 40L14 40L14 39ZM9 40L9 41L11 41L11 42L12 42L12 41L11 41L11 40ZM42 40L42 42L40 42L40 43L42 43L42 42L43 42L43 41L44 41L44 40ZM38 41L38 44L39 44L39 41ZM18 43L18 44L20 44L20 43ZM21 43L21 44L22 44L22 43ZM36 43L36 44L37 44L37 43ZM10 44L10 45L11 45L11 44ZM0 0L0 7L7 7L7 0ZM1 1L1 6L6 6L6 1ZM2 2L2 5L5 5L5 2ZM38 0L38 7L45 7L45 0ZM39 1L39 6L44 6L44 1ZM40 2L40 5L43 5L43 2ZM0 38L0 45L7 45L7 38ZM1 39L1 44L6 44L6 39ZM2 40L2 43L5 43L5 40Z" fill="#000000"/></g></g></svg>
