<?xml version="1.0" encoding="UTF-8"?>
<svg xmlns="http://www.w3.org/2000/svg" version="1.1" width="200" height="200" viewBox="0 0 200 200"><rect x="0" y="0" width="200" height="200" fill="#ffffff"/><g transform="scale(4.082)"><g transform="translate(0,0)"><path fill-rule="evenodd" d="M8 0L8 4L9 4L9 5L8 5L8 7L9 7L9 10L8 10L8 11L7 11L7 10L6 10L6 9L7 9L7 8L4 8L4 9L2 9L2 8L0 8L0 9L2 9L2 10L0 10L0 13L1 13L1 14L0 14L0 15L1 15L1 16L0 16L0 17L1 17L1 18L0 18L0 19L1 19L1 20L3 20L3 17L2 17L2 14L3 14L3 13L5 13L5 15L7 15L7 14L6 14L6 13L7 13L7 12L9 12L9 14L8 14L8 15L10 15L10 13L11 13L11 12L10 12L10 8L12 8L12 7L13 7L13 6L12 6L12 7L11 7L11 4L10 4L10 3L12 3L12 0L10 0L10 1L11 1L11 2L9 2L9 0ZM13 0L13 1L14 1L14 0ZM20 0L20 1L19 1L19 2L18 2L18 1L17 1L17 2L16 2L16 4L17 4L17 3L18 3L18 5L17 5L17 6L16 6L16 5L15 5L15 2L14 2L14 3L13 3L13 4L12 4L12 5L15 5L15 6L14 6L14 9L15 9L15 10L16 10L16 9L19 9L19 10L21 10L21 11L19 11L19 12L18 12L18 13L15 13L15 12L17 12L17 11L18 11L18 10L17 10L17 11L15 11L15 12L14 12L14 11L13 11L13 10L12 10L12 12L13 12L13 13L14 13L14 14L15 14L15 15L12 15L12 14L11 14L11 15L12 15L12 17L11 17L11 16L8 16L8 17L7 17L7 16L5 16L5 17L7 17L7 18L6 18L6 19L4 19L4 20L5 20L5 21L4 21L4 22L3 22L3 21L0 21L0 22L2 22L2 23L1 23L1 24L2 24L2 23L4 23L4 26L3 26L3 25L2 25L2 27L0 27L0 29L1 29L1 30L0 30L0 31L1 31L1 30L2 30L2 31L3 31L3 30L4 30L4 29L7 29L7 30L5 30L5 31L7 31L7 32L6 32L6 33L5 33L5 32L1 32L1 33L3 33L3 34L4 34L4 35L3 35L3 36L0 36L0 38L1 38L1 40L0 40L0 41L3 41L3 40L4 40L4 39L2 39L2 38L5 38L5 39L8 39L8 40L6 40L6 41L8 41L8 42L10 42L10 43L12 43L12 45L11 45L11 44L10 44L10 45L9 45L9 43L8 43L8 45L9 45L9 47L8 47L8 49L10 49L10 48L9 48L9 47L10 47L10 46L11 46L11 47L12 47L12 48L14 48L14 49L17 49L17 48L18 48L18 49L20 49L20 48L21 48L21 49L22 49L22 48L24 48L24 49L26 49L26 47L28 47L28 48L27 48L27 49L28 49L28 48L30 48L30 47L31 47L31 46L32 46L32 45L33 45L33 44L34 44L34 45L35 45L35 47L34 47L34 46L33 46L33 47L32 47L32 49L35 49L35 48L36 48L36 49L38 49L38 48L40 48L40 47L41 47L41 48L42 48L42 46L43 46L43 47L44 47L44 48L43 48L43 49L45 49L45 48L46 48L46 49L49 49L49 48L48 48L48 47L49 47L49 46L45 46L45 47L44 47L44 46L43 46L43 45L45 45L45 44L46 44L46 45L49 45L49 44L48 44L48 42L47 42L47 41L49 41L49 39L47 39L47 38L48 38L48 36L49 36L49 35L46 35L46 34L45 34L45 33L44 33L44 34L43 34L43 35L42 35L42 36L43 36L43 37L42 37L42 38L41 38L41 37L40 37L40 43L39 43L39 41L38 41L38 40L36 40L36 39L32 39L32 43L31 43L31 40L30 40L30 39L31 39L31 38L32 38L32 37L33 37L33 36L34 36L34 37L36 37L36 38L38 38L38 39L39 39L39 32L38 32L38 31L40 31L40 32L41 32L41 33L40 33L40 36L41 36L41 33L42 33L42 32L44 32L44 30L45 30L45 29L44 29L44 27L45 27L45 28L46 28L46 29L48 29L48 28L49 28L49 27L47 27L47 26L46 26L46 25L47 25L47 24L48 24L48 25L49 25L49 23L47 23L47 22L48 22L48 21L49 21L49 20L47 20L47 18L48 18L48 17L49 17L49 16L48 16L48 15L47 15L47 14L48 14L48 13L49 13L49 11L48 11L48 12L47 12L47 9L48 9L48 10L49 10L49 8L45 8L45 9L44 9L44 8L43 8L43 9L42 9L42 10L41 10L41 11L44 11L44 14L43 14L43 12L42 12L42 13L41 13L41 12L40 12L40 13L38 13L38 12L37 12L37 11L39 11L39 10L40 10L40 9L41 9L41 6L40 6L40 8L38 8L38 7L39 7L39 5L37 5L37 6L36 6L36 5L35 5L35 6L34 6L34 4L35 4L35 2L36 2L36 3L37 3L37 2L39 2L39 4L40 4L40 3L41 3L41 0L40 0L40 1L38 1L38 0L35 0L35 1L34 1L34 0L33 0L33 1L32 1L32 0L30 0L30 1L31 1L31 4L30 4L30 3L28 3L28 2L29 2L29 1L27 1L27 0L24 0L24 1L22 1L22 5L21 5L21 4L20 4L20 3L19 3L19 2L20 2L20 1L21 1L21 0ZM26 1L26 2L27 2L27 1ZM32 2L32 4L31 4L31 8L32 8L32 6L33 6L33 9L34 9L34 11L33 11L33 10L32 10L32 9L31 9L31 10L32 10L32 11L28 11L28 10L30 10L30 5L29 5L29 4L28 4L28 3L26 3L26 4L28 4L28 5L27 5L27 7L28 7L28 10L27 10L27 11L26 11L26 9L25 9L25 12L26 12L26 13L27 13L27 15L26 15L26 16L25 16L25 13L24 13L24 15L23 15L23 16L25 16L25 17L26 17L26 16L27 16L27 15L28 15L28 17L27 17L27 19L28 19L28 21L27 21L27 20L26 20L26 18L24 18L24 17L21 17L21 16L22 16L22 14L23 14L23 12L24 12L24 11L23 11L23 12L22 12L22 11L21 11L21 12L22 12L22 13L19 13L19 15L18 15L18 14L16 14L16 15L15 15L15 16L19 16L19 15L20 15L20 14L21 14L21 16L20 16L20 17L21 17L21 19L20 19L20 18L19 18L19 17L16 17L16 18L15 18L15 17L14 17L14 16L13 16L13 17L12 17L12 18L11 18L11 17L10 17L10 19L9 19L9 17L8 17L8 18L7 18L7 19L6 19L6 20L7 20L7 21L5 21L5 22L7 22L7 21L9 21L9 22L10 22L10 23L9 23L9 24L10 24L10 26L9 26L9 28L8 28L8 29L11 29L11 27L12 27L12 26L11 26L11 24L13 24L13 27L14 27L14 28L15 28L15 29L18 29L18 28L19 28L19 27L20 27L20 28L21 28L21 29L19 29L19 31L17 31L17 30L16 30L16 31L15 31L15 30L14 30L14 29L13 29L13 28L12 28L12 30L11 30L11 31L8 31L8 30L7 30L7 31L8 31L8 32L7 32L7 33L6 33L6 34L5 34L5 33L4 33L4 34L5 34L5 35L4 35L4 36L3 36L3 37L5 37L5 38L7 38L7 37L8 37L8 38L9 38L9 40L8 40L8 41L9 41L9 40L11 40L11 39L12 39L12 41L14 41L14 42L13 42L13 43L14 43L14 44L15 44L15 45L18 45L18 44L19 44L19 42L20 42L20 44L21 44L21 45L19 45L19 46L18 46L18 47L20 47L20 46L21 46L21 47L22 47L22 46L23 46L23 47L26 47L26 46L23 46L23 45L22 45L22 44L21 44L21 43L22 43L22 41L21 41L21 40L22 40L22 39L23 39L23 40L24 40L24 39L23 39L23 38L22 38L22 36L23 36L23 37L25 37L25 35L28 35L28 36L26 36L26 38L25 38L25 40L26 40L26 39L27 39L27 38L28 38L28 37L29 37L29 39L28 39L28 41L29 41L29 39L30 39L30 36L31 36L31 35L30 35L30 36L29 36L29 32L31 32L31 34L32 34L32 35L34 35L34 34L35 34L35 32L33 32L33 33L34 33L34 34L32 34L32 31L33 31L33 30L34 30L34 31L38 31L38 30L35 30L35 28L34 28L34 27L36 27L36 26L37 26L37 29L38 29L38 28L39 28L39 29L40 29L40 30L41 30L41 31L43 31L43 30L44 30L44 29L43 29L43 30L42 30L42 28L41 28L41 27L38 27L38 25L39 25L39 26L40 26L40 23L37 23L37 22L36 22L36 21L35 21L35 19L36 19L36 18L35 18L35 16L36 16L36 15L37 15L37 16L38 16L38 17L37 17L37 18L38 18L38 17L40 17L40 18L39 18L39 19L41 19L41 20L43 20L43 21L44 21L44 20L43 20L43 19L42 19L42 18L41 18L41 17L44 17L44 16L42 16L42 15L40 15L40 14L41 14L41 13L40 13L40 14L39 14L39 15L37 15L37 14L35 14L35 13L34 13L34 15L33 15L33 14L32 14L32 15L31 15L31 14L28 14L28 13L29 13L29 12L32 12L32 11L33 11L33 12L35 12L35 10L36 10L36 11L37 11L37 10L38 10L38 8L37 8L37 10L36 10L36 9L35 9L35 8L36 8L36 6L35 6L35 8L34 8L34 6L33 6L33 5L32 5L32 4L33 4L33 3L34 3L34 2ZM23 3L23 4L25 4L25 3ZM9 5L9 7L10 7L10 5ZM19 5L19 7L18 7L18 6L17 6L17 8L20 8L20 9L21 9L21 10L23 10L23 9L22 9L22 6L21 6L21 7L20 7L20 5ZM23 5L23 8L26 8L26 5ZM15 6L15 7L16 7L16 6ZM24 6L24 7L25 7L25 6ZM28 6L28 7L29 7L29 6ZM37 6L37 7L38 7L38 6ZM4 9L4 10L3 10L3 11L5 11L5 9ZM43 9L43 10L44 10L44 11L45 11L45 12L46 12L46 9L45 9L45 10L44 10L44 9ZM1 11L1 12L2 12L2 13L3 13L3 12L2 12L2 11ZM6 11L6 12L7 12L7 11ZM27 11L27 13L28 13L28 11ZM45 13L45 14L44 14L44 15L45 15L45 16L46 16L46 15L45 15L45 14L47 14L47 13ZM29 15L29 16L30 16L30 15ZM32 15L32 17L33 17L33 18L34 18L34 16L35 16L35 15L34 15L34 16L33 16L33 15ZM39 15L39 16L40 16L40 17L41 17L41 16L40 16L40 15ZM28 17L28 19L29 19L29 21L28 21L28 22L27 22L27 21L26 21L26 20L25 20L25 19L24 19L24 18L23 18L23 19L22 19L22 20L20 20L20 21L18 21L18 20L19 20L19 18L18 18L18 19L17 19L17 18L16 18L16 20L15 20L15 18L13 18L13 19L12 19L12 20L13 20L13 19L14 19L14 20L15 20L15 21L12 21L12 22L13 22L13 23L14 23L14 22L15 22L15 21L16 21L16 20L17 20L17 21L18 21L18 22L16 22L16 23L15 23L15 24L14 24L14 25L15 25L15 27L16 27L16 28L17 28L17 27L18 27L18 26L16 26L16 25L19 25L19 26L21 26L21 25L20 25L20 24L17 24L17 23L18 23L18 22L19 22L19 23L20 23L20 22L21 22L21 21L23 21L23 22L22 22L22 23L21 23L21 24L22 24L22 27L21 27L21 28L22 28L22 29L23 29L23 27L26 27L26 28L25 28L25 29L24 29L24 30L23 30L23 31L24 31L24 30L26 30L26 29L27 29L27 28L28 28L28 27L31 27L31 28L30 28L30 31L31 31L31 30L33 30L33 27L34 27L34 26L32 26L32 25L33 25L33 24L34 24L34 25L35 25L35 26L36 26L36 25L37 25L37 23L34 23L34 19L31 19L31 17ZM45 17L45 18L44 18L44 19L45 19L45 21L46 21L46 22L45 22L45 24L46 24L46 22L47 22L47 21L46 21L46 19L45 19L45 18L47 18L47 17ZM29 18L29 19L30 19L30 21L31 21L31 19L30 19L30 18ZM8 19L8 20L9 20L9 19ZM23 19L23 20L24 20L24 19ZM37 19L37 20L38 20L38 21L40 21L40 22L41 22L41 21L40 21L40 20L38 20L38 19ZM32 21L32 22L29 22L29 23L27 23L27 24L28 24L28 26L27 26L27 27L28 27L28 26L29 26L29 23L31 23L31 25L32 25L32 23L33 23L33 21ZM5 23L5 26L8 26L8 23ZM23 23L23 26L26 26L26 23ZM41 23L41 26L44 26L44 23ZM6 24L6 25L7 25L7 24ZM15 24L15 25L16 25L16 24ZM24 24L24 25L25 25L25 24ZM42 24L42 25L43 25L43 24ZM0 25L0 26L1 26L1 25ZM45 26L45 27L46 27L46 26ZM4 27L4 28L5 28L5 27ZM6 27L6 28L7 28L7 27ZM2 28L2 30L3 30L3 28ZM13 30L13 32L14 32L14 33L10 33L10 34L8 34L8 33L9 33L9 32L8 32L8 33L7 33L7 34L6 34L6 35L5 35L5 36L6 36L6 37L7 37L7 36L10 36L10 37L12 37L12 38L13 38L13 39L14 39L14 38L15 38L15 37L16 37L16 36L17 36L17 37L18 37L18 39L17 39L17 38L16 38L16 39L15 39L15 40L14 40L14 41L15 41L15 40L16 40L16 41L17 41L17 40L18 40L18 41L20 41L20 42L21 42L21 41L20 41L20 40L18 40L18 39L20 39L20 38L21 38L21 36L22 36L22 35L21 35L21 33L22 33L22 31L21 31L21 30L20 30L20 31L19 31L19 32L14 32L14 30ZM47 30L47 31L46 31L46 33L47 33L47 31L48 31L48 32L49 32L49 31L48 31L48 30ZM11 31L11 32L12 32L12 31ZM25 31L25 33L23 33L23 35L24 35L24 34L26 34L26 33L28 33L28 31ZM19 32L19 33L16 33L16 35L18 35L18 34L19 34L19 35L20 35L20 33L21 33L21 32ZM37 32L37 33L36 33L36 35L35 35L35 36L36 36L36 35L38 35L38 34L37 34L37 33L38 33L38 32ZM14 33L14 34L15 34L15 33ZM1 34L1 35L2 35L2 34ZM7 34L7 35L6 35L6 36L7 36L7 35L8 35L8 34ZM11 34L11 35L10 35L10 36L12 36L12 34ZM13 35L13 37L15 37L15 36L14 36L14 35ZM43 35L43 36L44 36L44 37L43 37L43 38L42 38L42 39L44 39L44 37L45 37L45 35ZM18 36L18 37L20 37L20 36ZM1 37L1 38L2 38L2 37ZM46 37L46 38L45 38L45 40L46 40L46 38L47 38L47 37ZM10 38L10 39L11 39L11 38ZM23 41L23 44L26 44L26 41ZM34 41L34 44L36 44L36 43L37 43L37 44L38 44L38 45L36 45L36 47L37 47L37 48L38 48L38 47L37 47L37 46L38 46L38 45L39 45L39 46L40 46L40 44L39 44L39 43L37 43L37 41ZM41 41L41 44L44 44L44 41ZM45 41L45 42L46 42L46 43L47 43L47 42L46 42L46 41ZM15 42L15 44L16 44L16 42ZM17 42L17 43L18 43L18 42ZM24 42L24 43L25 43L25 42ZM27 42L27 43L28 43L28 44L27 44L27 46L28 46L28 45L29 45L29 47L30 47L30 44L31 44L31 43L30 43L30 42ZM35 42L35 43L36 43L36 42ZM42 42L42 43L43 43L43 42ZM29 43L29 44L30 44L30 43ZM12 45L12 46L14 46L14 48L17 48L17 46L16 46L16 47L15 47L15 46L14 46L14 45ZM0 0L0 7L7 7L7 0ZM1 1L1 6L6 6L6 1ZM2 2L2 5L5 5L5 2ZM42 0L42 7L49 7L49 0ZM43 1L43 6L48 6L48 1ZM44 2L44 5L47 5L47 2ZM0 42L0 49L7 49L7 42ZM1 43L1 48L6 48L6 43ZM2 44L2 47L5 47L5 44Z" fill="#000000"/></g></g></svg>
