<?xml version="1.0" encoding="UTF-8"?>
<svg xmlns="http://www.w3.org/2000/svg" version="1.1" width="200" height="200" viewBox="0 0 200 200"><rect x="0" y="0" width="200" height="200" fill="#ffffff"/><g transform="scale(4.444)"><g transform="translate(0,0)"><path fill-rule="evenodd" d="M9 0L9 1L8 1L8 3L10 3L10 4L8 4L8 8L6 8L6 9L8 9L8 11L7 11L7 10L5 10L5 9L4 9L4 8L3 8L3 9L2 9L2 8L0 8L0 9L2 9L2 10L3 10L3 9L4 9L4 10L5 10L5 11L7 11L7 12L6 12L6 13L9 13L9 14L8 14L8 15L7 15L7 14L6 14L6 15L7 15L7 16L6 16L6 17L5 17L5 18L4 18L4 22L2 22L2 23L1 23L1 22L0 22L0 23L1 23L1 24L0 24L0 25L1 25L1 26L0 26L0 27L1 27L1 28L2 28L2 27L3 27L3 28L4 28L4 29L3 29L3 30L2 30L2 29L0 29L0 32L1 32L1 34L3 34L3 32L4 32L4 33L5 33L5 32L6 32L6 33L7 33L7 32L8 32L8 33L10 33L10 32L11 32L11 33L12 33L12 34L13 34L13 35L11 35L11 36L14 36L14 38L12 38L12 37L10 37L10 34L8 34L8 35L7 35L7 34L6 34L6 35L7 35L7 36L6 36L6 37L8 37L8 39L9 39L9 40L10 40L10 41L13 41L13 42L10 42L10 43L8 43L8 45L9 45L9 44L10 44L10 43L11 43L11 45L12 45L12 43L13 43L13 42L14 42L14 44L15 44L15 42L16 42L16 44L17 44L17 42L16 42L16 41L18 41L18 42L19 42L19 43L20 43L20 44L18 44L18 45L20 45L20 44L23 44L23 45L25 45L25 43L26 43L26 42L27 42L27 41L28 41L28 40L29 40L29 42L30 42L30 40L31 40L31 41L33 41L33 42L31 42L31 43L32 43L32 44L31 44L31 45L32 45L32 44L34 44L34 45L35 45L35 43L37 43L37 44L36 44L36 45L37 45L37 44L38 44L38 45L39 45L39 44L40 44L40 43L42 43L42 42L41 42L41 41L42 41L42 35L41 35L41 34L42 34L42 31L43 31L43 33L44 33L44 35L43 35L43 37L44 37L44 38L43 38L43 39L44 39L44 38L45 38L45 32L44 32L44 31L45 31L45 30L44 30L44 28L45 28L45 27L44 27L44 28L43 28L43 30L42 30L42 29L41 29L41 28L42 28L42 26L43 26L43 25L41 25L41 24L42 24L42 23L43 23L43 22L44 22L44 26L45 26L45 21L43 21L43 22L42 22L42 21L41 21L41 20L42 20L42 19L41 19L41 17L42 17L42 16L41 16L41 15L40 15L40 16L38 16L38 18L39 18L39 17L40 17L40 19L41 19L41 20L39 20L39 19L37 19L37 20L36 20L36 19L34 19L34 21L35 21L35 20L36 20L36 22L33 22L33 23L36 23L36 24L34 24L34 25L33 25L33 24L31 24L31 23L30 23L30 22L29 22L29 21L30 21L30 19L28 19L28 20L26 20L26 21L27 21L27 22L26 22L26 23L25 23L25 19L26 19L26 18L30 18L30 17L31 17L31 16L29 16L29 14L28 14L28 15L27 15L27 16L29 16L29 17L26 17L26 15L25 15L25 14L26 14L26 13L32 13L32 14L33 14L33 13L34 13L34 14L35 14L35 15L32 15L32 17L34 17L34 16L36 16L36 15L37 15L37 14L38 14L38 15L39 15L39 14L38 14L38 13L40 13L40 14L42 14L42 15L44 15L44 14L45 14L45 9L44 9L44 8L42 8L42 11L43 11L43 13L41 13L41 11L40 11L40 9L41 9L41 8L38 8L38 9L39 9L39 11L37 11L37 10L36 10L36 8L37 8L37 6L36 6L36 8L35 8L35 6L34 6L34 5L37 5L37 3L36 3L36 1L37 1L37 0L36 0L36 1L35 1L35 4L33 4L33 5L31 5L31 3L30 3L30 4L29 4L29 5L28 5L28 4L26 4L26 2L27 2L27 3L29 3L29 2L32 2L32 3L33 3L33 2L34 2L34 0L29 0L29 1L27 1L27 0L26 0L26 1L25 1L25 2L24 2L24 0L20 0L20 1L22 1L22 2L19 2L19 6L18 6L18 7L17 7L17 6L16 6L16 7L15 7L15 5L16 5L16 4L17 4L17 5L18 5L18 1L17 1L17 0L16 0L16 1L13 1L13 0L12 0L12 1L11 1L11 0ZM10 1L10 3L11 3L11 4L10 4L10 5L11 5L11 4L12 4L12 2L11 2L11 1ZM16 1L16 2L15 2L15 3L14 3L14 2L13 2L13 4L14 4L14 5L15 5L15 3L16 3L16 2L17 2L17 1ZM32 1L32 2L33 2L33 1ZM23 2L23 4L25 4L25 3L24 3L24 2ZM12 5L12 6L11 6L11 7L10 7L10 6L9 6L9 7L10 7L10 8L8 8L8 9L10 9L10 8L11 8L11 7L12 7L12 6L13 6L13 8L14 8L14 9L13 9L13 10L10 10L10 11L8 11L8 12L10 12L10 14L11 14L11 16L10 16L10 15L9 15L9 16L10 16L10 18L9 18L9 17L8 17L8 18L7 18L7 17L6 17L6 18L5 18L5 19L6 19L6 20L8 20L8 18L9 18L9 21L10 21L10 22L9 22L9 25L10 25L10 24L11 24L11 23L12 23L12 24L13 24L13 23L14 23L14 25L12 25L12 26L8 26L8 25L6 25L6 26L8 26L8 27L12 27L12 28L10 28L10 30L9 30L9 29L4 29L4 30L3 30L3 31L4 31L4 32L5 32L5 31L6 31L6 32L7 32L7 31L6 31L6 30L8 30L8 31L12 31L12 32L13 32L13 34L14 34L14 36L15 36L15 38L16 38L16 37L17 37L17 38L18 38L18 37L17 37L17 36L18 36L18 30L17 30L17 29L16 29L16 28L15 28L15 26L16 26L16 25L17 25L17 26L18 26L18 22L17 22L17 21L18 21L18 20L16 20L16 19L15 19L15 18L17 18L17 19L18 19L18 16L17 16L17 14L16 14L16 13L18 13L18 11L19 11L19 12L20 12L20 11L22 11L22 12L21 12L21 13L20 13L20 14L18 14L18 15L19 15L19 19L20 19L20 20L19 20L19 23L20 23L20 20L21 20L21 19L23 19L23 17L22 17L22 18L21 18L21 17L20 17L20 16L23 16L23 15L20 15L20 14L21 14L21 13L23 13L23 14L24 14L24 13L26 13L26 12L25 12L25 11L28 11L28 12L29 12L29 11L30 11L30 12L31 12L31 11L32 11L32 12L35 12L35 13L36 13L36 14L37 14L37 12L35 12L35 11L36 11L36 10L35 10L35 8L32 8L32 10L31 10L31 9L29 9L29 10L27 10L27 9L28 9L28 8L31 8L31 7L32 7L32 6L31 6L31 7L30 7L30 6L29 6L29 7L28 7L28 6L27 6L27 5L26 5L26 6L25 6L25 9L26 9L26 10L25 10L25 11L24 11L24 12L23 12L23 11L22 11L22 10L23 10L23 9L20 9L20 8L19 8L19 10L18 10L18 9L17 9L17 8L16 8L16 9L15 9L15 8L14 8L14 6L13 6L13 5ZM21 5L21 8L24 8L24 5ZM19 6L19 7L20 7L20 6ZM22 6L22 7L23 7L23 6ZM26 6L26 7L27 7L27 6ZM33 6L33 7L34 7L34 6ZM14 9L14 10L13 10L13 11L15 11L15 12L13 12L13 13L14 13L14 14L12 14L12 16L13 16L13 17L12 17L12 18L11 18L11 19L12 19L12 20L10 20L10 21L12 21L12 22L15 22L15 21L16 21L16 20L15 20L15 21L14 21L14 20L13 20L13 18L15 18L15 16L16 16L16 17L17 17L17 16L16 16L16 14L15 14L15 12L16 12L16 10L15 10L15 9ZM43 9L43 11L44 11L44 9ZM0 10L0 12L1 12L1 13L0 13L0 14L1 14L1 13L3 13L3 14L4 14L4 15L3 15L3 16L2 16L2 15L0 15L0 16L2 16L2 17L4 17L4 16L5 16L5 12L3 12L3 11L2 11L2 12L1 12L1 10ZM19 10L19 11L20 11L20 10ZM32 10L32 11L33 11L33 10ZM34 10L34 11L35 11L35 10ZM10 11L10 12L11 12L11 13L12 13L12 12L11 12L11 11ZM43 13L43 14L44 14L44 13ZM13 15L13 16L15 16L15 15ZM40 16L40 17L41 17L41 16ZM43 16L43 17L44 17L44 16ZM0 17L0 18L1 18L1 19L0 19L0 20L3 20L3 18L1 18L1 17ZM6 18L6 19L7 19L7 18ZM32 18L32 20L33 20L33 18ZM43 18L43 19L44 19L44 20L45 20L45 18ZM5 21L5 24L8 24L8 21ZM21 21L21 24L24 24L24 21ZM31 21L31 22L32 22L32 21ZM37 21L37 24L40 24L40 21ZM6 22L6 23L7 23L7 22ZM22 22L22 23L23 23L23 22ZM27 22L27 24L26 24L26 25L24 25L24 26L23 26L23 25L22 25L22 26L21 26L21 27L20 27L20 26L19 26L19 27L20 27L20 29L19 29L19 34L20 34L20 33L22 33L22 32L20 32L20 31L21 31L21 30L22 30L22 31L24 31L24 32L25 32L25 31L26 31L26 29L24 29L24 30L23 30L23 28L22 28L22 29L21 29L21 27L22 27L22 26L23 26L23 27L24 27L24 28L27 28L27 27L28 27L28 29L29 29L29 27L30 27L30 30L29 30L29 31L28 31L28 30L27 30L27 31L28 31L28 32L26 32L26 34L24 34L24 33L23 33L23 34L24 34L24 35L23 35L23 36L27 36L27 37L25 37L25 39L26 39L26 41L27 41L27 39L29 39L29 40L30 40L30 39L32 39L32 38L34 38L34 39L35 39L35 40L36 40L36 38L34 38L34 37L36 37L36 36L34 36L34 35L33 35L33 33L34 33L34 34L35 34L35 35L37 35L37 36L39 36L39 35L40 35L40 36L41 36L41 35L40 35L40 34L41 34L41 32L40 32L40 33L39 33L39 32L38 32L38 31L37 31L37 32L36 32L36 28L37 28L37 29L38 29L38 28L39 28L39 27L40 27L40 28L41 28L41 26L40 26L40 25L39 25L39 26L38 26L38 25L37 25L37 26L38 26L38 28L37 28L37 27L35 27L35 26L32 26L32 25L31 25L31 24L29 24L29 25L28 25L28 23L29 23L29 22ZM38 22L38 23L39 23L39 22ZM41 22L41 23L42 23L42 22ZM15 23L15 24L16 24L16 23ZM1 24L1 25L2 25L2 26L3 26L3 27L4 27L4 26L5 26L5 25L4 25L4 26L3 26L3 24ZM19 24L19 25L20 25L20 24ZM27 25L27 26L26 26L26 27L27 27L27 26L28 26L28 27L29 27L29 26L28 26L28 25ZM12 26L12 27L14 27L14 26ZM6 27L6 28L7 28L7 27ZM31 27L31 30L32 30L32 32L35 32L35 33L36 33L36 32L35 32L35 31L33 31L33 30L34 30L34 28L33 28L33 27ZM14 28L14 29L15 29L15 30L14 30L14 31L13 31L13 32L14 32L14 31L15 31L15 30L16 30L16 29L15 29L15 28ZM11 29L11 30L12 30L12 29ZM32 29L32 30L33 30L33 29ZM39 29L39 31L41 31L41 29ZM1 30L1 32L2 32L2 30ZM4 30L4 31L5 31L5 30ZM15 32L15 33L17 33L17 32ZM28 32L28 33L27 33L27 36L28 36L28 37L27 37L27 38L26 38L26 39L27 39L27 38L28 38L28 37L29 37L29 39L30 39L30 37L31 37L31 36L32 36L32 37L33 37L33 36L32 36L32 35L31 35L31 34L32 34L32 33L31 33L31 32ZM28 33L28 35L29 35L29 34L31 34L31 33ZM37 33L37 34L38 34L38 35L39 35L39 34L38 34L38 33ZM4 34L4 35L1 35L1 36L0 36L0 37L1 37L1 36L3 36L3 37L5 37L5 34ZM8 35L8 37L9 37L9 38L10 38L10 40L12 40L12 39L11 39L11 38L10 38L10 37L9 37L9 35ZM15 35L15 36L16 36L16 35ZM19 35L19 36L22 36L22 35ZM30 35L30 36L31 36L31 35ZM19 37L19 38L20 38L20 37ZM21 37L21 40L24 40L24 37ZM37 37L37 40L40 40L40 37ZM22 38L22 39L23 39L23 38ZM38 38L38 39L39 39L39 38ZM16 39L16 40L13 40L13 41L16 41L16 40L17 40L17 39ZM19 39L19 40L20 40L20 39ZM33 40L33 41L34 41L34 43L35 43L35 41L34 41L34 40ZM44 40L44 42L45 42L45 40ZM8 41L8 42L9 42L9 41ZM21 41L21 42L20 42L20 43L23 43L23 41ZM24 41L24 42L25 42L25 41ZM37 41L37 42L38 42L38 41ZM39 42L39 43L38 43L38 44L39 44L39 43L40 43L40 42ZM29 43L29 44L28 44L28 45L30 45L30 43ZM26 44L26 45L27 45L27 44ZM41 44L41 45L42 45L42 44ZM43 44L43 45L44 45L44 44ZM0 0L0 7L7 7L7 0ZM1 1L1 6L6 6L6 1ZM2 2L2 5L5 5L5 2ZM38 0L38 7L45 7L45 0ZM39 1L39 6L44 6L44 1ZM40 2L40 5L43 5L43 2ZM0 38L0 45L7 45L7 38ZM1 39L1 44L6 44L6 39ZM2 40L2 43L5 43L5 40Z" fill="#000000"/></g></g></svg>
