<?xml version="1.0" encoding="UTF-8"?>
<svg xmlns="http://www.w3.org/2000/svg" version="1.1" width="200" height="200" viewBox="0 0 200 200"><rect x="0" y="0" width="200" height="200" fill="#ffffff"/><g transform="scale(4.082)"><g transform="translate(0,0)"><path fill-rule="evenodd" d="M10 0L10 1L11 1L11 2L10 2L10 3L8 3L8 4L9 4L9 5L8 5L8 7L9 7L9 8L6 8L6 9L5 9L5 8L0 8L0 10L1 10L1 9L2 9L2 12L3 12L3 11L4 11L4 12L5 12L5 11L4 11L4 10L6 10L6 11L8 11L8 12L9 12L9 14L12 14L12 15L11 15L11 17L13 17L13 18L8 18L8 17L10 17L10 15L9 15L9 16L8 16L8 17L7 17L7 16L6 16L6 17L7 17L7 18L5 18L5 20L6 20L6 21L7 21L7 22L5 22L5 21L4 21L4 20L3 20L3 19L4 19L4 17L5 17L5 16L3 16L3 15L4 15L4 14L5 14L5 13L4 13L4 14L3 14L3 13L1 13L1 12L0 12L0 16L1 16L1 20L0 20L0 22L1 22L1 23L2 23L2 22L1 22L1 21L2 21L2 20L3 20L3 21L4 21L4 23L3 23L3 24L0 24L0 27L1 27L1 26L4 26L4 27L2 27L2 29L1 29L1 32L0 32L0 38L1 38L1 40L0 40L0 41L3 41L3 40L4 40L4 39L2 39L2 38L1 38L1 36L2 36L2 35L3 35L3 36L5 36L5 35L7 35L7 36L6 36L6 37L3 37L3 38L5 38L5 39L7 39L7 40L6 40L6 41L8 41L8 43L9 43L9 42L10 42L10 43L11 43L11 44L12 44L12 45L10 45L10 44L8 44L8 49L9 49L9 48L10 48L10 49L12 49L12 47L11 47L11 48L10 48L10 46L12 46L12 45L13 45L13 46L14 46L14 45L13 45L13 44L14 44L14 43L13 43L13 42L15 42L15 43L17 43L17 44L18 44L18 45L16 45L16 44L15 44L15 45L16 45L16 46L15 46L15 47L13 47L13 49L14 49L14 48L15 48L15 49L21 49L21 47L22 47L22 48L23 48L23 47L25 47L25 48L24 48L24 49L27 49L27 48L26 48L26 47L25 47L25 46L26 46L26 45L28 45L28 44L29 44L29 43L30 43L30 46L29 46L29 47L30 47L30 48L31 48L31 49L32 49L32 48L34 48L34 49L35 49L35 48L34 48L34 47L35 47L35 46L36 46L36 47L38 47L38 49L40 49L40 48L41 48L41 47L40 47L40 46L42 46L42 48L43 48L43 47L44 47L44 48L45 48L45 49L49 49L49 47L48 47L48 48L46 48L46 45L49 45L49 42L47 42L47 41L49 41L49 40L46 40L46 41L45 41L45 38L44 38L44 37L45 37L45 36L46 36L46 37L47 37L47 39L49 39L49 38L48 38L48 37L49 37L49 34L46 34L46 33L47 33L47 32L48 32L48 31L49 31L49 30L48 30L48 31L47 31L47 30L46 30L46 29L49 29L49 26L47 26L47 28L46 28L46 27L45 27L45 22L43 22L43 21L44 21L44 20L45 20L45 21L47 21L47 23L49 23L49 22L48 22L48 20L45 20L45 19L46 19L46 17L47 17L47 19L49 19L49 18L48 18L48 17L49 17L49 14L48 14L48 13L49 13L49 9L48 9L48 8L47 8L47 9L46 9L46 8L45 8L45 10L47 10L47 11L48 11L48 12L46 12L46 13L45 13L45 15L44 15L44 12L45 12L45 11L44 11L44 8L43 8L43 9L42 9L42 8L40 8L40 9L42 9L42 10L43 10L43 11L41 11L41 10L40 10L40 12L38 12L38 13L41 13L41 14L43 14L43 17L41 17L41 16L42 16L42 15L39 15L39 14L37 14L37 12L35 12L35 10L33 10L33 11L32 11L32 9L31 9L31 8L30 8L30 7L31 7L31 6L32 6L32 8L33 8L33 9L34 9L34 8L33 8L33 5L32 5L32 3L31 3L31 2L29 2L29 1L28 1L28 0L27 0L27 1L26 1L26 2L25 2L25 0L23 0L23 1L21 1L21 2L20 2L20 0L19 0L19 4L18 4L18 3L17 3L17 2L18 2L18 1L15 1L15 0L12 0L12 1L11 1L11 0ZM30 0L30 1L31 1L31 0ZM32 0L32 1L33 1L33 0ZM35 0L35 1L34 1L34 2L35 2L35 4L37 4L37 5L38 5L38 7L37 7L37 6L36 6L36 5L35 5L35 6L34 6L34 7L35 7L35 9L36 9L36 11L39 11L39 10L38 10L38 7L39 7L39 5L38 5L38 4L37 4L37 3L36 3L36 2L37 2L37 0ZM40 0L40 1L38 1L38 2L39 2L39 4L40 4L40 3L41 3L41 0ZM8 1L8 2L9 2L9 1ZM12 1L12 3L14 3L14 2L13 2L13 1ZM23 1L23 2L21 2L21 3L20 3L20 4L19 4L19 5L20 5L20 6L19 6L19 9L16 9L16 11L15 11L15 10L14 10L14 9L15 9L15 7L16 7L16 8L17 8L17 7L18 7L18 4L17 4L17 3L16 3L16 2L15 2L15 4L12 4L12 5L11 5L11 8L10 8L10 9L9 9L9 11L10 11L10 9L11 9L11 11L14 11L14 12L13 12L13 13L12 13L12 14L13 14L13 13L14 13L14 17L15 17L15 19L16 19L16 20L15 20L15 21L13 21L13 20L14 20L14 19L12 19L12 20L11 20L11 21L10 21L10 20L9 20L9 19L8 19L8 18L7 18L7 19L6 19L6 20L7 20L7 21L8 21L8 20L9 20L9 21L10 21L10 22L9 22L9 23L10 23L10 24L9 24L9 25L11 25L11 24L13 24L13 23L16 23L16 24L17 24L17 25L15 25L15 24L14 24L14 25L15 25L15 26L13 26L13 27L12 27L12 26L10 26L10 28L9 28L9 29L6 29L6 28L8 28L8 27L4 27L4 28L3 28L3 29L2 29L2 30L3 30L3 31L4 31L4 32L3 32L3 33L2 33L2 32L1 32L1 35L2 35L2 34L3 34L3 33L5 33L5 32L7 32L7 33L6 33L6 34L7 34L7 35L9 35L9 36L10 36L10 37L8 37L8 36L7 36L7 37L6 37L6 38L7 38L7 39L9 39L9 40L8 40L8 41L9 41L9 40L12 40L12 41L13 41L13 40L14 40L14 41L15 41L15 42L17 42L17 43L18 43L18 42L19 42L19 43L20 43L20 44L19 44L19 45L21 45L21 43L22 43L22 42L21 42L21 41L22 41L22 38L21 38L21 35L22 35L22 34L23 34L23 35L28 35L28 34L29 34L29 35L30 35L30 36L28 36L28 37L29 37L29 38L28 38L28 39L29 39L29 40L27 40L27 43L28 43L28 41L29 41L29 40L30 40L30 39L31 39L31 40L32 40L32 42L30 42L30 43L32 43L32 42L35 42L35 43L36 43L36 44L37 44L37 45L36 45L36 46L37 46L37 45L38 45L38 46L39 46L39 45L38 45L38 44L39 44L39 43L40 43L40 42L39 42L39 41L38 41L38 40L43 40L43 39L44 39L44 38L43 38L43 39L42 39L42 37L44 37L44 36L45 36L45 35L42 35L42 36L41 36L41 34L43 34L43 31L41 31L41 30L42 30L42 28L43 28L43 29L44 29L44 32L47 32L47 31L46 31L46 30L45 30L45 29L44 29L44 28L45 28L45 27L44 27L44 28L43 28L43 27L41 27L41 28L40 28L40 27L38 27L38 26L39 26L39 25L38 25L38 26L37 26L37 25L36 25L36 27L33 27L33 28L31 28L31 32L32 32L32 35L34 35L34 36L35 36L35 35L36 35L36 36L37 36L37 41L34 41L34 40L36 40L36 39L34 39L34 38L36 38L36 37L34 37L34 38L32 38L32 37L33 37L33 36L31 36L31 34L29 34L29 32L25 32L25 31L28 31L28 30L29 30L29 31L30 31L30 30L29 30L29 28L30 28L30 27L31 27L31 26L32 26L32 25L33 25L33 24L32 24L32 23L33 23L33 22L36 22L36 21L35 21L35 20L37 20L37 22L41 22L41 21L38 21L38 19L37 19L37 18L36 18L36 19L35 19L35 20L31 20L31 19L34 19L34 18L35 18L35 15L33 15L33 14L35 14L35 13L34 13L34 11L33 11L33 12L32 12L32 11L31 11L31 10L30 10L30 8L27 8L27 9L26 9L26 10L22 10L22 9L20 9L20 8L22 8L22 5L21 5L21 4L23 4L23 3L25 3L25 2L24 2L24 1ZM27 1L27 2L28 2L28 1ZM26 3L26 4L27 4L27 5L28 5L28 6L27 6L27 7L28 7L28 6L29 6L29 7L30 7L30 5L29 5L29 4L31 4L31 3ZM33 3L33 4L34 4L34 3ZM15 4L15 5L16 5L16 4ZM13 5L13 6L12 6L12 9L14 9L14 8L13 8L13 6L14 6L14 7L15 7L15 6L14 6L14 5ZM23 5L23 8L26 8L26 5ZM9 6L9 7L10 7L10 6ZM16 6L16 7L17 7L17 6ZM20 6L20 7L21 7L21 6ZM24 6L24 7L25 7L25 6ZM35 6L35 7L36 7L36 8L37 8L37 7L36 7L36 6ZM40 6L40 7L41 7L41 6ZM6 9L6 10L8 10L8 9ZM19 9L19 10L18 10L18 11L16 11L16 12L15 12L15 13L16 13L16 14L15 14L15 15L16 15L16 16L15 16L15 17L19 17L19 18L20 18L20 19L22 19L22 17L24 17L24 19L25 19L25 17L26 17L26 15L27 15L27 16L29 16L29 14L30 14L30 16L31 16L31 17L27 17L27 18L26 18L26 21L27 21L27 22L25 22L25 20L23 20L23 22L22 22L22 21L21 21L21 22L22 22L22 23L21 23L21 24L20 24L20 25L21 25L21 26L22 26L22 27L19 27L19 26L18 26L18 27L17 27L17 26L15 26L15 27L16 27L16 28L15 28L15 29L16 29L16 30L15 30L15 31L16 31L16 32L15 32L15 33L14 33L14 34L13 34L13 35L14 35L14 36L11 36L11 35L12 35L12 34L11 34L11 33L10 33L10 32L9 32L9 34L10 34L10 36L11 36L11 37L10 37L10 38L9 38L9 39L10 39L10 38L11 38L11 39L12 39L12 40L13 40L13 39L14 39L14 40L15 40L15 41L17 41L17 40L16 40L16 39L15 39L15 38L16 38L16 37L15 37L15 36L17 36L17 37L18 37L18 38L19 38L19 39L20 39L20 38L19 38L19 37L20 37L20 36L19 36L19 37L18 37L18 36L17 36L17 35L18 35L18 33L19 33L19 32L20 32L20 33L21 33L21 34L20 34L20 35L21 35L21 34L22 34L22 33L21 33L21 32L22 32L22 31L23 31L23 30L22 30L22 29L23 29L23 28L22 28L22 27L26 27L26 28L27 28L27 29L26 29L26 30L28 30L28 28L29 28L29 27L27 27L27 23L28 23L28 24L29 24L29 26L31 26L31 25L32 25L32 24L29 24L29 23L28 23L28 22L30 22L30 23L31 23L31 21L27 21L27 20L30 20L30 18L33 18L33 17L32 17L32 16L33 16L33 15L32 15L32 14L31 14L31 12L29 12L29 11L27 11L27 10L26 10L26 11L27 11L27 12L26 12L26 13L27 13L27 14L25 14L25 15L24 15L24 14L23 14L23 16L22 16L22 17L21 17L21 14L22 14L22 13L25 13L25 12L22 12L22 10L21 10L21 13L19 13L19 12L20 12L20 9ZM47 9L47 10L48 10L48 9ZM43 11L43 12L44 12L44 11ZM6 12L6 13L7 13L7 12ZM16 12L16 13L18 13L18 12ZM27 12L27 13L29 13L29 12ZM41 12L41 13L42 13L42 12ZM46 13L46 15L45 15L45 16L44 16L44 17L43 17L43 18L42 18L42 19L43 19L43 18L44 18L44 19L45 19L45 17L46 17L46 16L48 16L48 15L47 15L47 13ZM2 14L2 15L3 15L3 14ZM6 14L6 15L8 15L8 14ZM17 14L17 15L20 15L20 14ZM27 14L27 15L28 15L28 14ZM12 15L12 16L13 16L13 15ZM31 15L31 16L32 16L32 15ZM36 15L36 16L37 16L37 17L38 17L38 18L39 18L39 19L40 19L40 20L41 20L41 19L40 19L40 18L41 18L41 17L38 17L38 16L39 16L39 15ZM2 16L2 17L3 17L3 16ZM19 16L19 17L20 17L20 18L21 18L21 17L20 17L20 16ZM17 18L17 19L18 19L18 18ZM27 18L27 19L29 19L29 18ZM17 20L17 21L18 21L18 22L17 22L17 23L18 23L18 25L19 25L19 23L20 23L20 22L19 22L19 21L20 21L20 20L19 20L19 21L18 21L18 20ZM15 21L15 22L16 22L16 21ZM32 21L32 22L33 22L33 21ZM10 22L10 23L11 23L11 22ZM12 22L12 23L13 23L13 22ZM18 22L18 23L19 23L19 22ZM5 23L5 26L8 26L8 23ZM23 23L23 26L26 26L26 23ZM34 23L34 24L40 24L40 23ZM41 23L41 26L44 26L44 23ZM6 24L6 25L7 25L7 24ZM24 24L24 25L25 25L25 24ZM42 24L42 25L43 25L43 24ZM46 24L46 25L47 25L47 24ZM48 24L48 25L49 25L49 24ZM34 25L34 26L35 26L35 25ZM13 27L13 28L14 28L14 27ZM37 27L37 28L35 28L35 30L34 30L34 28L33 28L33 31L32 31L32 32L33 32L33 33L34 33L34 31L37 31L37 32L35 32L35 34L36 34L36 35L37 35L37 36L39 36L39 38L38 38L38 39L39 39L39 38L41 38L41 37L40 37L40 36L39 36L39 34L41 34L41 33L42 33L42 32L41 32L41 33L40 33L40 32L39 32L39 34L38 34L38 35L37 35L37 34L36 34L36 33L38 33L38 31L40 31L40 30L38 30L38 31L37 31L37 28L38 28L38 27ZM4 28L4 31L7 31L7 30L6 30L6 29L5 29L5 28ZM16 28L16 29L18 29L18 28ZM19 28L19 29L21 29L21 28ZM39 28L39 29L40 29L40 28ZM10 29L10 30L11 30L11 32L12 32L12 33L13 33L13 31L14 31L14 29ZM24 29L24 31L25 31L25 29ZM8 30L8 31L9 31L9 30ZM17 30L17 33L15 33L15 35L17 35L17 33L18 33L18 32L19 32L19 31L20 31L20 30L19 30L19 31L18 31L18 30ZM21 30L21 31L22 31L22 30ZM7 33L7 34L8 34L8 33ZM23 33L23 34L25 34L25 33ZM26 33L26 34L28 34L28 33ZM44 33L44 34L45 34L45 33ZM46 35L46 36L48 36L48 35ZM23 36L23 37L25 37L25 40L26 40L26 39L27 39L27 38L26 38L26 36ZM30 36L30 38L29 38L29 39L30 39L30 38L31 38L31 36ZM11 37L11 38L12 38L12 37ZM13 37L13 38L15 38L15 37ZM23 38L23 39L24 39L24 38ZM32 39L32 40L34 40L34 39ZM18 40L18 41L19 41L19 40ZM20 40L20 41L21 41L21 40ZM23 41L23 44L26 44L26 41ZM41 41L41 44L44 44L44 41ZM11 42L11 43L12 43L12 42ZM24 42L24 43L25 43L25 42ZM36 42L36 43L39 43L39 42ZM42 42L42 43L43 43L43 42ZM46 43L46 44L47 44L47 43ZM31 44L31 46L30 46L30 47L31 47L31 48L32 48L32 47L33 47L33 46L32 46L32 45L33 45L33 44ZM9 45L9 46L10 46L10 45ZM22 45L22 47L23 47L23 46L24 46L24 45ZM34 45L34 46L35 46L35 45ZM17 46L17 48L19 48L19 47L20 47L20 46L19 46L19 47L18 47L18 46ZM27 46L27 47L28 47L28 46ZM44 46L44 47L45 47L45 46ZM15 47L15 48L16 48L16 47ZM36 48L36 49L37 49L37 48ZM0 0L0 7L7 7L7 0ZM1 1L1 6L6 6L6 1ZM2 2L2 5L5 5L5 2ZM42 0L42 7L49 7L49 0ZM43 1L43 6L48 6L48 1ZM44 2L44 5L47 5L47 2ZM0 42L0 49L7 49L7 42ZM1 43L1 48L6 48L6 43ZM2 44L2 47L5 47L5 44Z" fill="#000000"/></g></g></svg>
