<?xml version="1.0" encoding="UTF-8"?>
<svg xmlns="http://www.w3.org/2000/svg" version="1.1" width="200" height="200" viewBox="0 0 200 200"><rect x="0" y="0" width="200" height="200" fill="#ffffff"/><g transform="scale(4.082)"><g transform="translate(0,0)"><path fill-rule="evenodd" d="M8 0L8 1L9 1L9 2L8 2L8 5L9 5L9 6L8 6L8 7L9 7L9 6L10 6L10 7L11 7L11 8L12 8L12 9L13 9L13 8L12 8L12 7L13 7L13 4L14 4L14 5L15 5L15 6L14 6L14 8L15 8L15 9L14 9L14 11L15 11L15 13L13 13L13 10L12 10L12 12L11 12L11 11L10 11L10 10L11 10L11 9L10 9L10 8L8 8L8 10L5 10L5 11L7 11L7 12L6 12L6 13L7 13L7 14L5 14L5 15L7 15L7 14L9 14L9 13L10 13L10 14L11 14L11 13L13 13L13 14L17 14L17 15L16 15L16 16L14 16L14 15L10 15L10 16L8 16L8 17L7 17L7 16L6 16L6 17L7 17L7 18L6 18L6 19L4 19L4 18L5 18L5 17L4 17L4 18L3 18L3 16L4 16L4 14L1 14L1 16L0 16L0 17L1 17L1 18L3 18L3 19L2 19L2 20L1 20L1 21L2 21L2 22L1 22L1 23L0 23L0 25L1 25L1 26L0 26L0 28L1 28L1 30L2 30L2 29L3 29L3 28L4 28L4 29L7 29L7 30L6 30L6 31L7 31L7 30L10 30L10 31L12 31L12 32L8 32L8 33L7 33L7 32L6 32L6 33L7 33L7 34L6 34L6 35L5 35L5 30L3 30L3 31L2 31L2 32L1 32L1 31L0 31L0 32L1 32L1 33L0 33L0 34L2 34L2 32L4 32L4 35L5 35L5 36L3 36L3 37L2 37L2 38L1 38L1 37L0 37L0 38L1 38L1 40L0 40L0 41L3 41L3 40L4 40L4 39L2 39L2 38L3 38L3 37L5 37L5 39L7 39L7 38L8 38L8 37L10 37L10 38L11 38L11 39L10 39L10 40L11 40L11 44L12 44L12 41L14 41L14 42L16 42L16 43L17 43L17 40L16 40L16 39L18 39L18 40L19 40L19 39L18 39L18 36L19 36L19 37L20 37L20 38L21 38L21 40L22 40L22 45L27 45L27 47L30 47L30 48L31 48L31 49L32 49L32 48L33 48L33 49L38 49L38 48L37 48L37 47L38 47L38 45L39 45L39 46L41 46L41 47L39 47L39 48L41 48L41 47L42 47L42 46L43 46L43 48L45 48L45 49L49 49L49 48L47 48L47 47L49 47L49 45L48 45L48 44L47 44L47 46L46 46L46 45L45 45L45 43L49 43L49 40L48 40L48 41L47 41L47 40L46 40L46 39L48 39L48 38L49 38L49 36L48 36L48 38L47 38L47 35L48 35L48 34L46 34L46 33L45 33L45 32L46 32L46 30L47 30L47 28L46 28L46 27L48 27L48 26L49 26L49 23L48 23L48 25L47 25L47 22L48 22L48 20L47 20L47 21L46 21L46 23L45 23L45 22L43 22L43 21L42 21L42 20L41 20L41 22L40 22L40 23L39 23L39 25L37 25L37 24L38 24L38 22L37 22L37 21L39 21L39 20L37 20L37 19L42 19L42 17L39 17L39 16L43 16L43 17L44 17L44 18L45 18L45 20L46 20L46 18L47 18L47 19L49 19L49 17L48 17L48 18L47 18L47 16L46 16L46 15L48 15L48 16L49 16L49 15L48 15L48 14L49 14L49 12L47 12L47 11L46 11L46 10L48 10L48 9L49 9L49 8L48 8L48 9L47 9L47 8L44 8L44 9L42 9L42 8L41 8L41 10L39 10L39 11L40 11L40 12L38 12L38 11L37 11L37 10L38 10L38 9L39 9L39 8L40 8L40 7L41 7L41 6L40 6L40 7L39 7L39 5L38 5L38 4L37 4L37 3L38 3L38 2L39 2L39 4L40 4L40 3L41 3L41 0L40 0L40 1L38 1L38 2L35 2L35 1L37 1L37 0L35 0L35 1L34 1L34 2L33 2L33 4L32 4L32 3L30 3L30 2L32 2L32 1L31 1L31 0L29 0L29 1L28 1L28 2L29 2L29 4L31 4L31 5L32 5L32 7L33 7L33 8L35 8L35 10L34 10L34 11L32 11L32 10L33 10L33 9L30 9L30 8L28 8L28 7L29 7L29 5L28 5L28 3L26 3L26 2L25 2L25 3L26 3L26 4L24 4L24 3L23 3L23 2L24 2L24 0L23 0L23 1L21 1L21 2L19 2L19 1L18 1L18 3L17 3L17 2L16 2L16 1L15 1L15 0L14 0L14 1L13 1L13 2L12 2L12 0ZM25 0L25 1L26 1L26 0ZM14 1L14 2L15 2L15 1ZM10 2L10 3L9 3L9 5L10 5L10 6L11 6L11 7L12 7L12 3L11 3L11 2ZM21 2L21 3L20 3L20 4L19 4L19 3L18 3L18 5L17 5L17 3L15 3L15 5L17 5L17 7L16 7L16 6L15 6L15 8L16 8L16 9L15 9L15 11L17 11L17 7L18 7L18 6L19 6L19 8L18 8L18 12L16 12L16 13L17 13L17 14L18 14L18 15L19 15L19 13L20 13L20 14L21 14L21 16L17 16L17 18L18 18L18 19L20 19L20 20L19 20L19 22L21 22L21 23L20 23L20 24L19 24L19 23L18 23L18 24L17 24L17 25L16 25L16 23L17 23L17 22L18 22L18 21L16 21L16 23L15 23L15 21L14 21L14 20L17 20L17 19L16 19L16 18L15 18L15 19L13 19L13 17L12 17L12 16L10 16L10 17L9 17L9 21L8 21L8 20L7 20L7 19L8 19L8 18L7 18L7 19L6 19L6 20L7 20L7 21L5 21L5 20L3 20L3 22L2 22L2 23L1 23L1 25L2 25L2 23L3 23L3 27L4 27L4 23L3 23L3 22L4 22L4 21L5 21L5 22L10 22L10 23L9 23L9 24L10 24L10 26L9 26L9 28L7 28L7 27L6 27L6 28L7 28L7 29L9 29L9 28L10 28L10 30L11 30L11 29L12 29L12 28L13 28L13 30L14 30L14 31L13 31L13 33L11 33L11 34L10 34L10 35L9 35L9 36L10 36L10 37L11 37L11 36L13 36L13 35L12 35L12 34L14 34L14 35L17 35L17 36L15 36L15 38L14 38L14 37L12 37L12 39L11 39L11 40L12 40L12 39L13 39L13 40L15 40L15 38L17 38L17 36L18 36L18 34L19 34L19 32L18 32L18 34L17 34L17 32L14 32L14 31L15 31L15 29L16 29L16 30L17 30L17 28L16 28L16 27L19 27L19 28L18 28L18 31L20 31L20 32L21 32L21 31L22 31L22 33L20 33L20 34L21 34L21 35L20 35L20 37L21 37L21 38L22 38L22 40L23 40L23 37L24 37L24 40L27 40L27 42L28 42L28 43L27 43L27 45L28 45L28 46L30 46L30 44L31 44L31 43L32 43L32 45L31 45L31 48L32 48L32 45L34 45L34 46L33 46L33 48L34 48L34 46L35 46L35 44L36 44L36 47L37 47L37 44L38 44L38 42L39 42L39 45L40 45L40 40L43 40L43 38L44 38L44 39L46 39L46 34L45 34L45 33L44 33L44 30L46 30L46 28L45 28L45 27L44 27L44 28L43 28L43 27L40 27L40 25L39 25L39 27L38 27L38 26L36 26L36 25L35 25L35 24L36 24L36 23L37 23L37 22L36 22L36 21L37 21L37 20L36 20L36 21L33 21L33 20L34 20L34 19L33 19L33 18L31 18L31 17L30 17L30 18L28 18L28 17L29 17L29 16L26 16L26 15L25 15L25 13L23 13L23 14L21 14L21 12L22 12L22 11L24 11L24 10L26 10L26 11L25 11L25 12L26 12L26 13L28 13L28 15L29 15L29 12L30 12L30 10L29 10L29 9L28 9L28 10L27 10L27 9L20 9L20 6L21 6L21 8L22 8L22 4L23 4L23 3L22 3L22 2ZM10 3L10 5L11 5L11 3ZM34 3L34 5L35 5L35 3ZM20 4L20 5L21 5L21 4ZM23 5L23 8L26 8L26 5ZM24 6L24 7L25 7L25 6ZM27 6L27 7L28 7L28 6ZM30 6L30 7L31 7L31 6ZM33 6L33 7L34 7L34 6ZM35 6L35 7L36 7L36 6ZM37 6L37 7L38 7L38 8L36 8L36 9L38 9L38 8L39 8L39 7L38 7L38 6ZM0 8L0 9L1 9L1 10L2 10L2 9L3 9L3 12L2 12L2 11L1 11L1 12L0 12L0 13L3 13L3 12L4 12L4 8ZM6 8L6 9L7 9L7 8ZM41 10L41 11L42 11L42 12L41 12L41 13L40 13L40 14L41 14L41 15L42 15L42 14L43 14L43 16L44 16L44 15L45 15L45 14L43 14L43 13L42 13L42 12L43 12L43 11L42 11L42 10ZM44 10L44 11L45 11L45 10ZM9 11L9 12L8 12L8 13L9 13L9 12L10 12L10 13L11 13L11 12L10 12L10 11ZM19 11L19 12L18 12L18 13L19 13L19 12L20 12L20 11ZM34 11L34 12L31 12L31 13L30 13L30 14L31 14L31 15L32 15L32 16L33 16L33 15L34 15L34 16L35 16L35 17L37 17L37 18L39 18L39 17L37 17L37 15L38 15L38 12L37 12L37 13L34 13L34 12L36 12L36 11ZM44 12L44 13L46 13L46 14L48 14L48 13L46 13L46 12ZM32 13L32 14L34 14L34 13ZM23 14L23 15L22 15L22 16L23 16L23 17L22 17L22 18L21 18L21 19L23 19L23 21L24 21L24 22L22 22L22 21L21 21L21 22L22 22L22 23L21 23L21 24L20 24L20 25L19 25L19 24L18 24L18 25L17 25L17 26L21 26L21 25L22 25L22 30L25 30L25 31L24 31L24 32L23 32L23 34L22 34L22 36L23 36L23 35L24 35L24 34L25 34L25 33L26 33L26 35L25 35L25 36L24 36L24 37L25 37L25 38L27 38L27 37L26 37L26 36L27 36L27 33L29 33L29 31L30 31L30 32L31 32L31 31L30 31L30 30L28 30L28 31L26 31L26 30L27 30L27 29L28 29L28 28L29 28L29 29L30 29L30 28L32 28L32 29L31 29L31 30L32 30L32 29L33 29L33 27L32 27L32 26L33 26L33 25L32 25L32 24L35 24L35 22L34 22L34 23L33 23L33 21L32 21L32 19L31 19L31 21L30 21L30 23L29 23L29 25L27 25L27 24L28 24L28 23L27 23L27 22L26 22L26 21L24 21L24 20L25 20L25 18L26 18L26 20L27 20L27 21L29 21L29 20L30 20L30 19L28 19L28 20L27 20L27 18L26 18L26 17L25 17L25 18L24 18L24 16L25 16L25 15L24 15L24 14ZM35 14L35 15L36 15L36 14ZM1 16L1 17L2 17L2 16ZM45 16L45 18L46 18L46 16ZM10 17L10 22L11 22L11 21L12 21L12 23L10 23L10 24L12 24L12 23L13 23L13 28L14 28L14 29L15 29L15 28L14 28L14 24L15 24L15 23L14 23L14 22L13 22L13 19L12 19L12 20L11 20L11 18L12 18L12 17ZM18 17L18 18L20 18L20 17ZM23 18L23 19L24 19L24 18ZM35 18L35 19L36 19L36 18ZM43 19L43 20L44 20L44 19ZM31 21L31 23L30 23L30 24L32 24L32 21ZM5 23L5 26L8 26L8 23ZM23 23L23 26L26 26L26 23ZM41 23L41 26L44 26L44 23ZM6 24L6 25L7 25L7 24ZM24 24L24 25L25 25L25 24ZM42 24L42 25L43 25L43 24ZM45 24L45 25L46 25L46 26L47 26L47 25L46 25L46 24ZM15 25L15 26L16 26L16 25ZM29 25L29 28L30 28L30 26L31 26L31 25ZM1 26L1 28L2 28L2 26ZM11 26L11 27L10 27L10 28L12 28L12 26ZM27 26L27 27L28 27L28 26ZM20 27L20 31L21 31L21 27ZM37 27L37 28L38 28L38 27ZM24 28L24 29L26 29L26 28ZM41 28L41 29L39 29L39 30L38 30L38 29L37 29L37 30L36 30L36 29L34 29L34 30L33 30L33 31L37 31L37 32L40 32L40 33L39 33L39 35L38 35L38 33L36 33L36 32L35 32L35 33L36 33L36 34L34 34L34 33L33 33L33 34L32 34L32 33L30 33L30 34L29 34L29 35L32 35L32 36L33 36L33 37L35 37L35 39L34 39L34 38L33 38L33 39L32 39L32 38L30 38L30 37L31 37L31 36L29 36L29 37L28 37L28 40L29 40L29 41L33 41L33 39L34 39L34 40L35 40L35 41L34 41L34 42L32 42L32 43L34 43L34 44L35 44L35 41L36 41L36 44L37 44L37 41L36 41L36 40L35 40L35 39L36 39L36 37L37 37L37 35L38 35L38 36L39 36L39 37L38 37L38 38L37 38L37 40L38 40L38 41L39 41L39 40L38 40L38 39L39 39L39 38L40 38L40 39L42 39L42 38L43 38L43 36L44 36L44 38L45 38L45 36L44 36L44 33L43 33L43 29L42 29L42 28ZM48 28L48 33L49 33L49 28ZM41 29L41 30L39 30L39 31L40 31L40 32L42 32L42 31L41 31L41 30L42 30L42 29ZM37 30L37 31L38 31L38 30ZM24 32L24 33L25 33L25 32ZM26 32L26 33L27 33L27 32ZM8 33L8 34L7 34L7 35L6 35L6 36L5 36L5 37L6 37L6 38L7 38L7 37L8 37L8 36L7 36L7 35L8 35L8 34L9 34L9 33ZM15 33L15 34L16 34L16 33ZM41 33L41 35L43 35L43 33ZM33 34L33 36L34 36L34 34ZM36 34L36 35L37 35L37 34ZM6 36L6 37L7 37L7 36ZM40 36L40 38L42 38L42 36ZM13 38L13 39L14 39L14 38ZM29 38L29 40L30 40L30 38ZM8 39L8 40L6 40L6 41L8 41L8 42L9 42L9 43L10 43L10 41L9 41L9 39ZM31 39L31 40L32 40L32 39ZM45 40L45 42L47 42L47 41L46 41L46 40ZM18 41L18 43L19 43L19 45L17 45L17 44L16 44L16 47L15 47L15 46L14 46L14 44L15 44L15 43L13 43L13 46L12 46L12 45L10 45L10 44L9 44L9 45L8 45L8 49L9 49L9 46L11 46L11 48L10 48L10 49L12 49L12 48L13 48L13 49L14 49L14 48L13 48L13 47L15 47L15 48L16 48L16 49L19 49L19 48L18 48L18 47L17 47L17 46L21 46L21 47L20 47L20 49L21 49L21 48L24 48L24 46L23 46L23 47L22 47L22 46L21 46L21 45L20 45L20 42L19 42L19 41ZM23 41L23 44L26 44L26 41ZM41 41L41 44L44 44L44 41ZM24 42L24 43L25 43L25 42ZM29 42L29 43L28 43L28 45L29 45L29 44L30 44L30 42ZM42 42L42 43L43 43L43 42ZM45 46L45 48L46 48L46 46ZM16 47L16 48L17 48L17 47ZM25 48L25 49L28 49L28 48ZM0 0L0 7L7 7L7 0ZM1 1L1 6L6 6L6 1ZM2 2L2 5L5 5L5 2ZM42 0L42 7L49 7L49 0ZM43 1L43 6L48 6L48 1ZM44 2L44 5L47 5L47 2ZM0 42L0 49L7 49L7 42ZM1 43L1 48L6 48L6 43ZM2 44L2 47L5 47L5 44Z" fill="#000000"/></g></g></svg>
