<?xml version="1.0" encoding="UTF-8"?>
<svg xmlns="http://www.w3.org/2000/svg" version="1.1" width="200" height="200" viewBox="0 0 200 200"><rect x="0" y="0" width="200" height="200" fill="#ffffff"/><g transform="scale(4.082)"><g transform="translate(0,0)"><path fill-rule="evenodd" d="M9 0L9 1L8 1L8 3L10 3L10 5L12 5L12 7L11 7L11 6L10 6L10 7L9 7L9 4L8 4L8 8L6 8L6 9L5 9L5 10L6 10L6 11L5 11L5 12L3 12L3 13L2 13L2 11L4 11L4 10L2 10L2 8L0 8L0 9L1 9L1 10L0 10L0 11L1 11L1 12L0 12L0 13L2 13L2 16L1 16L1 15L0 15L0 16L1 16L1 17L2 17L2 16L3 16L3 17L4 17L4 15L5 15L5 17L7 17L7 18L6 18L6 19L7 19L7 18L8 18L8 17L9 17L9 16L11 16L11 17L10 17L10 18L9 18L9 19L8 19L8 20L4 20L4 22L3 22L3 20L2 20L2 21L1 21L1 20L0 20L0 22L3 22L3 24L2 24L2 23L0 23L0 25L1 25L1 24L2 24L2 26L1 26L1 28L0 28L0 29L1 29L1 30L0 30L0 31L1 31L1 32L2 32L2 31L3 31L3 30L5 30L5 27L8 27L8 28L6 28L6 29L7 29L7 30L6 30L6 31L7 31L7 30L8 30L8 32L6 32L6 33L9 33L9 32L10 32L10 33L12 33L12 34L11 34L11 35L10 35L10 34L9 34L9 35L7 35L7 34L6 34L6 35L5 35L5 36L6 36L6 37L3 37L3 36L4 36L4 33L5 33L5 32L3 32L3 33L0 33L0 35L2 35L2 37L3 37L3 38L5 38L5 39L7 39L7 40L6 40L6 41L8 41L8 43L9 43L9 45L8 45L8 46L10 46L10 47L8 47L8 49L9 49L9 48L10 48L10 47L11 47L11 49L12 49L12 48L13 48L13 49L15 49L15 46L14 46L14 48L13 48L13 47L11 47L11 45L12 45L12 46L13 46L13 44L14 44L14 43L15 43L15 42L14 42L14 43L13 43L13 44L12 44L12 41L11 41L11 40L12 40L12 39L13 39L13 40L14 40L14 41L15 41L15 40L16 40L16 41L17 41L17 40L18 40L18 43L19 43L19 44L17 44L17 42L16 42L16 48L17 48L17 49L20 49L20 48L19 48L19 47L20 47L20 46L21 46L21 45L20 45L20 46L18 46L18 48L17 48L17 45L19 45L19 44L20 44L20 43L21 43L21 44L22 44L22 45L23 45L23 47L22 47L22 48L21 48L21 49L23 49L23 47L24 47L24 49L26 49L26 48L28 48L28 49L29 49L29 47L30 47L30 48L31 48L31 49L33 49L33 48L34 48L34 47L35 47L35 49L41 49L41 48L39 48L39 47L38 47L38 48L37 48L37 41L38 41L38 42L39 42L39 44L38 44L38 45L39 45L39 46L41 46L41 45L44 45L44 47L43 47L43 46L42 46L42 47L43 47L43 48L44 48L44 49L45 49L45 48L46 48L46 47L47 47L47 46L46 46L46 45L45 45L45 44L47 44L47 43L49 43L49 41L48 41L48 40L49 40L49 36L48 36L48 39L47 39L47 38L46 38L46 35L47 35L47 34L48 34L48 35L49 35L49 33L48 33L48 32L49 32L49 29L48 29L48 28L49 28L49 20L48 20L48 22L47 22L47 21L46 21L46 23L48 23L48 25L46 25L46 24L45 24L45 22L44 22L44 20L45 20L45 18L46 18L46 20L47 20L47 19L49 19L49 16L48 16L48 15L49 15L49 12L47 12L47 13L46 13L46 12L44 12L44 11L43 11L43 12L42 12L42 10L39 10L39 11L38 11L38 10L37 10L37 11L36 11L36 12L35 12L35 10L34 10L34 12L32 12L32 11L31 11L31 12L30 12L30 10L29 10L29 11L26 11L26 10L25 10L25 9L27 9L27 10L28 10L28 9L29 9L29 6L28 6L28 4L25 4L25 3L27 3L27 2L28 2L28 1L29 1L29 2L30 2L30 3L29 3L29 5L31 5L31 4L30 4L30 3L31 3L31 2L33 2L33 4L32 4L32 5L34 5L34 3L35 3L35 2L34 2L34 1L37 1L37 0L32 0L32 1L31 1L31 0L19 0L19 1L18 1L18 2L17 2L17 3L18 3L18 5L20 5L20 7L21 7L21 8L20 8L20 9L23 9L23 10L20 10L20 13L19 13L19 12L18 12L18 11L19 11L19 8L18 8L18 9L17 9L17 10L16 10L16 9L14 9L14 8L13 8L13 10L12 10L12 7L13 7L13 5L14 5L14 7L15 7L15 8L17 8L17 6L16 6L16 7L15 7L15 3L16 3L16 1L17 1L17 0L15 0L15 1L14 1L14 0L12 0L12 1L11 1L11 2L12 2L12 3L10 3L10 2L9 2L9 1L10 1L10 0ZM40 0L40 1L38 1L38 2L39 2L39 4L40 4L40 3L41 3L41 0ZM12 1L12 2L13 2L13 3L12 3L12 5L13 5L13 4L14 4L14 2L13 2L13 1ZM20 1L20 2L21 2L21 3L19 3L19 2L18 2L18 3L19 3L19 4L21 4L21 5L22 5L22 4L24 4L24 3L22 3L22 2L26 2L26 1L22 1L22 2L21 2L21 1ZM37 3L37 4L38 4L38 3ZM23 5L23 8L26 8L26 5ZM35 5L35 6L34 6L34 7L35 7L35 8L36 8L36 9L39 9L39 5ZM18 6L18 7L19 7L19 6ZM21 6L21 7L22 7L22 6ZM24 6L24 7L25 7L25 6ZM27 6L27 8L28 8L28 6ZM30 6L30 7L31 7L31 6ZM32 6L32 8L30 8L30 9L32 9L32 10L33 10L33 9L32 9L32 8L33 8L33 6ZM35 6L35 7L36 7L36 6ZM37 6L37 7L38 7L38 6ZM40 6L40 8L41 8L41 6ZM10 7L10 8L8 8L8 9L9 9L9 10L10 10L10 12L9 12L9 11L8 11L8 10L7 10L7 9L6 9L6 10L7 10L7 11L6 11L6 12L7 12L7 13L5 13L5 15L6 15L6 16L7 16L7 15L8 15L8 16L9 16L9 15L10 15L10 14L13 14L13 13L14 13L14 15L11 15L11 16L13 16L13 17L11 17L11 18L10 18L10 20L8 20L8 21L6 21L6 22L8 22L8 21L9 21L9 22L10 22L10 20L11 20L11 21L12 21L12 24L11 24L11 23L9 23L9 28L8 28L8 30L9 30L9 31L10 31L10 32L12 32L12 31L10 31L10 29L11 29L11 28L10 28L10 27L13 27L13 28L12 28L12 29L13 29L13 30L14 30L14 29L13 29L13 28L15 28L15 31L13 31L13 32L14 32L14 34L13 34L13 35L12 35L12 36L13 36L13 35L14 35L14 37L12 37L12 38L11 38L11 37L10 37L10 36L7 36L7 35L6 35L6 36L7 36L7 37L6 37L6 38L7 38L7 37L10 37L10 38L8 38L8 39L9 39L9 40L10 40L10 39L12 39L12 38L13 38L13 39L14 39L14 40L15 40L15 36L18 36L18 39L19 39L19 38L20 38L20 41L22 41L22 40L21 40L21 37L22 37L22 39L23 39L23 40L24 40L24 38L25 38L25 39L27 39L27 41L29 41L29 42L30 42L30 44L31 44L31 45L30 45L30 47L31 47L31 48L33 48L33 47L34 47L34 46L35 46L35 47L36 47L36 40L34 40L34 39L36 39L36 38L37 38L37 40L39 40L39 41L40 41L40 40L41 40L41 39L42 39L42 36L41 36L41 35L39 35L39 33L40 33L40 31L39 31L39 30L42 30L42 28L41 28L41 27L40 27L40 26L39 26L39 25L40 25L40 22L43 22L43 21L42 21L42 20L43 20L43 19L44 19L44 18L45 18L45 17L46 17L46 18L48 18L48 17L46 17L46 16L47 16L47 15L48 15L48 13L47 13L47 15L46 15L46 16L45 16L45 17L44 17L44 16L43 16L43 13L42 13L42 12L41 12L41 11L40 11L40 12L37 12L37 13L35 13L35 12L34 12L34 13L32 13L32 12L31 12L31 13L28 13L28 15L29 15L29 16L27 16L27 15L26 15L26 14L27 14L27 13L26 13L26 14L25 14L25 15L23 15L23 11L22 11L22 12L21 12L21 16L20 16L20 14L19 14L19 13L18 13L18 12L17 12L17 11L18 11L18 10L17 10L17 11L15 11L15 13L14 13L14 11L11 11L11 7ZM3 8L3 9L4 9L4 8ZM42 8L42 9L44 9L44 10L45 10L45 11L46 11L46 10L47 10L47 11L49 11L49 9L48 9L48 8L46 8L46 9L45 9L45 8ZM47 9L47 10L48 10L48 9ZM24 10L24 11L25 11L25 12L26 12L26 11L25 11L25 10ZM7 11L7 12L8 12L8 13L7 13L7 14L6 14L6 15L7 15L7 14L8 14L8 13L9 13L9 14L10 14L10 13L13 13L13 12L10 12L10 13L9 13L9 12L8 12L8 11ZM16 12L16 13L17 13L17 12ZM34 13L34 14L35 14L35 13ZM40 13L40 14L36 14L36 15L35 15L35 16L34 16L34 15L33 15L33 16L32 16L32 17L31 17L31 18L32 18L32 19L31 19L31 20L33 20L33 21L31 21L31 22L29 22L29 21L30 21L30 19L29 19L29 18L30 18L30 17L29 17L29 18L28 18L28 17L27 17L27 16L26 16L26 17L25 17L25 16L24 16L24 17L23 17L23 18L22 18L22 17L20 17L20 16L17 16L17 15L18 15L18 14L17 14L17 15L16 15L16 17L18 17L18 18L15 18L15 19L14 19L14 18L13 18L13 19L12 19L12 18L11 18L11 19L12 19L12 20L13 20L13 23L15 23L15 24L13 24L13 26L15 26L15 25L16 25L16 26L17 26L17 27L19 27L19 24L21 24L21 22L22 22L22 25L21 25L21 26L22 26L22 27L20 27L20 28L18 28L18 29L16 29L16 30L18 30L18 31L17 31L17 33L18 33L18 34L17 34L17 35L18 35L18 36L19 36L19 37L21 37L21 36L22 36L22 35L23 35L23 36L24 36L24 37L23 37L23 38L24 38L24 37L25 37L25 36L26 36L26 35L27 35L27 36L28 36L28 37L26 37L26 38L28 38L28 40L30 40L30 39L29 39L29 38L30 38L30 35L27 35L27 33L29 33L29 34L30 34L30 33L32 33L32 32L35 32L35 31L37 31L37 32L36 32L36 33L35 33L35 34L34 34L34 33L33 33L33 34L32 34L32 35L33 35L33 36L32 36L32 38L33 38L33 39L31 39L31 40L32 40L32 42L34 42L34 41L33 41L33 39L34 39L34 38L36 38L36 37L37 37L37 34L36 34L36 33L38 33L38 31L37 31L37 30L39 30L39 29L38 29L38 27L39 27L39 26L38 26L38 25L39 25L39 23L37 23L37 22L38 22L38 21L39 21L39 20L41 20L41 19L42 19L42 17L43 17L43 16L41 16L41 15L42 15L42 14L41 14L41 13ZM44 13L44 15L45 15L45 14L46 14L46 13ZM29 14L29 15L32 15L32 14ZM22 15L22 16L23 16L23 15ZM37 15L37 18L38 18L38 19L37 19L37 21L36 21L36 20L35 20L35 19L36 19L36 18L35 18L35 17L32 17L32 18L33 18L33 19L34 19L34 20L35 20L35 21L33 21L33 23L30 23L30 24L36 24L36 23L34 23L34 22L35 22L35 21L36 21L36 22L37 22L37 21L38 21L38 19L41 19L41 16L39 16L39 18L38 18L38 15ZM14 16L14 17L15 17L15 16ZM19 17L19 18L18 18L18 19L19 19L19 20L17 20L17 21L16 21L16 25L18 25L18 24L19 24L19 23L20 23L20 22L21 22L21 20L22 20L22 18L20 18L20 17ZM24 17L24 18L23 18L23 19L24 19L24 18L25 18L25 20L26 20L26 21L24 21L24 20L23 20L23 21L22 21L22 22L27 22L27 24L28 24L28 23L29 23L29 22L27 22L27 18L25 18L25 17ZM2 18L2 19L3 19L3 18ZM4 18L4 19L5 19L5 18ZM13 19L13 20L14 20L14 19ZM15 19L15 20L16 20L16 19ZM28 19L28 20L29 20L29 19ZM19 20L19 22L20 22L20 20ZM14 21L14 22L15 22L15 21ZM17 21L17 23L18 23L18 21ZM5 23L5 26L8 26L8 23ZM23 23L23 26L26 26L26 23ZM41 23L41 26L44 26L44 23ZM6 24L6 25L7 25L7 24ZM24 24L24 25L25 25L25 24ZM37 24L37 25L38 25L38 24ZM42 24L42 25L43 25L43 24ZM3 25L3 26L4 26L4 25ZM11 25L11 26L12 26L12 25ZM27 25L27 27L28 27L28 26L30 26L30 27L29 27L29 28L27 28L27 29L26 29L26 30L23 30L23 29L24 29L24 28L26 28L26 27L23 27L23 29L22 29L22 28L21 28L21 29L18 29L18 30L19 30L19 31L21 31L21 32L22 32L22 33L20 33L20 32L19 32L19 33L20 33L20 35L22 35L22 34L23 34L23 35L24 35L24 36L25 36L25 35L24 35L24 34L25 34L25 33L27 33L27 32L30 32L30 30L31 30L31 32L32 32L32 30L31 30L31 29L30 29L30 30L29 30L29 28L32 28L32 27L33 27L33 29L34 29L34 30L33 30L33 31L35 31L35 26L36 26L36 25L35 25L35 26L33 26L33 25L32 25L32 26L31 26L31 25ZM45 25L45 26L46 26L46 25ZM47 26L47 27L46 27L46 28L45 28L45 27L43 27L43 28L44 28L44 29L43 29L43 32L42 32L42 31L41 31L41 33L43 33L43 35L46 35L46 34L47 34L47 32L48 32L48 29L46 29L46 28L47 28L47 27L48 27L48 26ZM15 27L15 28L16 28L16 27ZM1 28L1 29L2 29L2 28ZM3 28L3 29L4 29L4 28ZM9 28L9 29L10 29L10 28ZM21 29L21 31L22 31L22 32L23 32L23 33L24 33L24 32L27 32L27 31L28 31L28 29L27 29L27 30L26 30L26 31L24 31L24 32L23 32L23 31L22 31L22 29ZM36 29L36 30L37 30L37 29ZM44 29L44 30L46 30L46 32L47 32L47 30L46 30L46 29ZM1 30L1 31L2 31L2 30ZM43 32L43 33L45 33L45 34L46 34L46 33L45 33L45 32ZM15 34L15 35L16 35L16 34ZM18 34L18 35L19 35L19 34ZM33 34L33 35L34 35L34 36L33 36L33 37L35 37L35 35L36 35L36 34L35 34L35 35L34 35L34 34ZM38 36L38 37L39 37L39 36ZM40 36L40 39L41 39L41 36ZM43 36L43 40L44 40L44 39L46 39L46 40L45 40L45 41L46 41L46 40L47 40L47 39L46 39L46 38L45 38L45 36ZM0 37L0 38L1 38L1 40L0 40L0 41L3 41L3 40L4 40L4 39L2 39L2 38L1 38L1 37ZM28 37L28 38L29 38L29 37ZM38 38L38 39L39 39L39 38ZM16 39L16 40L17 40L17 39ZM9 41L9 43L10 43L10 42L11 42L11 41ZM23 41L23 44L26 44L26 41ZM41 41L41 44L44 44L44 41ZM19 42L19 43L20 43L20 42ZM24 42L24 43L25 43L25 42ZM27 42L27 43L28 43L28 44L27 44L27 45L26 45L26 47L25 47L25 48L26 48L26 47L29 47L29 45L28 45L28 44L29 44L29 43L28 43L28 42ZM42 42L42 43L43 43L43 42ZM45 42L45 43L47 43L47 42ZM31 43L31 44L34 44L34 43ZM10 44L10 45L11 45L11 44ZM39 44L39 45L40 45L40 44ZM48 44L48 45L49 45L49 44ZM24 45L24 46L25 46L25 45ZM31 45L31 47L33 47L33 46L34 46L34 45ZM45 46L45 47L44 47L44 48L45 48L45 47L46 47L46 46ZM47 48L47 49L49 49L49 48ZM0 0L0 7L7 7L7 0ZM1 1L1 6L6 6L6 1ZM2 2L2 5L5 5L5 2ZM42 0L42 7L49 7L49 0ZM43 1L43 6L48 6L48 1ZM44 2L44 5L47 5L47 2ZM0 42L0 49L7 49L7 42ZM1 43L1 48L6 48L6 43ZM2 44L2 47L5 47L5 44Z" fill="#000000"/></g></g></svg>
