<?xml version="1.0" encoding="UTF-8"?>
<svg xmlns="http://www.w3.org/2000/svg" version="1.1" width="300" height="300" viewBox="0 0 300 300"><rect x="0" y="0" width="300" height="300" fill="#ffffff"/><g transform="scale(6.667)"><g transform="translate(2,2)"><path fill-rule="evenodd" d="M8 0L8 1L9 1L9 2L8 2L8 5L9 5L9 2L10 2L10 1L11 1L11 4L10 4L10 5L11 5L11 6L10 6L10 7L9 7L9 6L8 6L8 7L9 7L9 8L8 8L8 9L7 9L7 8L6 8L6 9L7 9L7 10L5 10L5 12L3 12L3 11L4 11L4 8L0 8L0 11L2 11L2 12L3 12L3 14L2 14L2 15L1 15L1 16L0 16L0 17L1 17L1 18L0 18L0 19L1 19L1 18L2 18L2 20L1 20L1 21L2 21L2 20L3 20L3 21L4 21L4 20L3 20L3 16L5 16L5 15L7 15L7 16L6 16L6 17L4 17L4 18L6 18L6 19L5 19L5 20L6 20L6 21L5 21L5 22L6 22L6 23L5 23L5 25L4 25L4 23L2 23L2 22L0 22L0 24L1 24L1 23L2 23L2 25L1 25L1 29L2 29L2 31L5 31L5 30L3 30L3 28L4 28L4 29L7 29L7 28L6 28L6 27L9 27L9 26L8 26L8 25L9 25L9 23L10 23L10 24L12 24L12 21L13 21L13 20L12 20L12 19L11 19L11 20L10 20L10 21L8 21L8 20L9 20L9 17L11 17L11 18L13 18L13 19L14 19L14 20L16 20L16 22L17 22L17 21L18 21L18 22L20 22L20 23L18 23L18 24L17 24L17 26L16 26L16 24L15 24L15 26L16 26L16 27L15 27L15 28L13 28L13 27L11 27L11 29L10 29L10 28L9 28L9 29L8 29L8 30L6 30L6 31L8 31L8 32L6 32L6 33L8 33L8 34L9 34L9 37L8 37L8 41L10 41L10 40L9 40L9 39L10 39L10 38L12 38L12 40L13 40L13 41L14 41L14 40L13 40L13 36L14 36L14 38L18 38L18 36L17 36L17 35L18 35L18 34L17 34L17 35L15 35L15 34L13 34L13 36L12 36L12 33L13 33L13 32L12 32L12 33L10 33L10 32L11 32L11 30L12 30L12 28L13 28L13 29L15 29L15 31L14 31L14 30L13 30L13 31L14 31L14 32L16 32L16 33L18 33L18 32L20 32L20 33L19 33L19 34L20 34L20 33L21 33L21 34L22 34L22 38L23 38L23 36L24 36L24 34L25 34L25 37L24 37L24 39L21 39L21 37L19 37L19 39L20 39L20 40L21 40L21 41L22 41L22 40L23 40L23 41L24 41L24 40L25 40L25 41L27 41L27 40L28 40L28 41L29 41L29 40L28 40L28 39L27 39L27 38L29 38L29 39L30 39L30 40L31 40L31 41L33 41L33 40L34 40L34 41L36 41L36 40L34 40L34 39L33 39L33 38L34 38L34 37L36 37L36 38L39 38L39 37L40 37L40 36L41 36L41 35L40 35L40 34L41 34L41 31L40 31L40 32L39 32L39 31L38 31L38 30L40 30L40 29L41 29L41 24L40 24L40 23L39 23L39 22L41 22L41 20L40 20L40 21L39 21L39 19L38 19L38 18L39 18L39 17L38 17L38 15L36 15L36 14L35 14L35 13L36 13L36 11L35 11L35 10L38 10L38 11L39 11L39 12L37 12L37 14L39 14L39 16L41 16L41 13L39 13L39 12L40 12L40 10L41 10L41 8L40 8L40 10L38 10L38 9L39 9L39 8L36 8L36 9L34 9L34 8L33 8L33 5L32 5L32 4L31 4L31 3L29 3L29 4L28 4L28 3L27 3L27 2L25 2L25 3L24 3L24 7L25 7L25 6L26 6L26 7L27 7L27 5L29 5L29 4L31 4L31 5L30 5L30 7L29 7L29 6L28 6L28 7L29 7L29 8L26 8L26 10L25 10L25 8L24 8L24 9L23 9L23 8L21 8L21 6L22 6L22 7L23 7L23 3L22 3L22 5L21 5L21 4L19 4L19 3L17 3L17 2L19 2L19 1L20 1L20 2L21 2L21 1L22 1L22 2L24 2L24 1L25 1L25 0L21 0L21 1L20 1L20 0L19 0L19 1L18 1L18 0L16 0L16 3L14 3L14 0L13 0L13 5L11 5L11 4L12 4L12 0ZM28 0L28 2L31 2L31 1L32 1L32 2L33 2L33 1L32 1L32 0ZM16 3L16 4L17 4L17 3ZM14 4L14 5L15 5L15 7L14 7L14 6L13 6L13 8L12 8L12 6L11 6L11 7L10 7L10 8L9 8L9 9L8 9L8 11L6 11L6 12L5 12L5 13L4 13L4 14L3 14L3 15L5 15L5 13L6 13L6 14L7 14L7 13L8 13L8 17L9 17L9 15L10 15L10 13L12 13L12 14L11 14L11 17L13 17L13 16L14 16L14 15L12 15L12 14L14 14L14 13L17 13L17 12L18 12L18 15L17 15L17 14L15 14L15 15L17 15L17 16L16 16L16 20L17 20L17 19L18 19L18 20L20 20L20 21L21 21L21 23L20 23L20 24L19 24L19 25L20 25L20 24L21 24L21 26L20 26L20 27L25 27L25 28L23 28L23 30L22 30L22 29L21 29L21 28L19 28L19 27L18 27L18 26L17 26L17 29L16 29L16 32L17 32L17 30L18 30L18 28L19 28L19 31L20 31L20 32L25 32L25 34L27 34L27 35L26 35L26 37L25 37L25 38L27 38L27 37L29 37L29 36L30 36L30 39L31 39L31 40L32 40L32 38L33 38L33 37L32 37L32 35L31 35L31 34L30 34L30 33L31 33L31 32L35 32L35 31L36 31L36 32L37 32L37 29L39 29L39 27L40 27L40 25L39 25L39 26L38 26L38 24L39 24L39 23L38 23L38 22L39 22L39 21L38 21L38 20L37 20L37 17L36 17L36 18L35 18L35 14L34 14L34 13L35 13L35 11L34 11L34 10L33 10L33 8L32 8L32 6L31 6L31 7L30 7L30 9L29 9L29 10L28 10L28 9L27 9L27 11L26 11L26 12L27 12L27 11L29 11L29 12L28 12L28 13L29 13L29 12L31 12L31 13L32 13L32 14L34 14L34 15L31 15L31 14L30 14L30 15L29 15L29 16L27 16L27 15L28 15L28 14L27 14L27 13L25 13L25 10L24 10L24 12L22 12L22 11L23 11L23 10L21 10L21 9L20 9L20 10L19 10L19 7L20 7L20 6L21 6L21 5L20 5L20 6L19 6L19 4L18 4L18 6L17 6L17 5L15 5L15 4ZM26 4L26 5L27 5L27 4ZM16 6L16 10L17 10L17 9L18 9L18 7L19 7L19 6L18 6L18 7L17 7L17 6ZM10 8L10 9L11 9L11 10L10 10L10 11L9 11L9 12L8 12L8 13L9 13L9 12L12 12L12 13L14 13L14 11L12 11L12 8ZM14 8L14 9L15 9L15 8ZM2 9L2 11L3 11L3 9ZM30 9L30 10L32 10L32 9ZM20 10L20 12L21 12L21 10ZM15 11L15 12L16 12L16 11ZM31 11L31 12L33 12L33 13L34 13L34 12L33 12L33 11ZM0 12L0 14L1 14L1 12ZM6 12L6 13L7 13L7 12ZM19 13L19 15L20 15L20 14L21 14L21 18L20 18L20 19L21 19L21 18L22 18L22 19L23 19L23 18L24 18L24 19L26 19L26 21L25 21L25 20L24 20L24 21L23 21L23 22L22 22L22 23L24 23L24 21L25 21L25 24L24 24L24 25L26 25L26 26L25 26L25 27L26 27L26 28L25 28L25 29L24 29L24 31L25 31L25 29L26 29L26 30L27 30L27 32L26 32L26 33L27 33L27 32L29 32L29 33L30 33L30 31L29 31L29 30L28 30L28 29L29 29L29 27L30 27L30 30L31 30L31 29L32 29L32 31L33 31L33 28L34 28L34 26L36 26L36 27L37 27L37 28L36 28L36 29L35 29L35 30L34 30L34 31L35 31L35 30L36 30L36 29L37 29L37 28L38 28L38 26L36 26L36 25L34 25L34 26L32 26L32 24L33 24L33 23L30 23L30 22L35 22L35 23L34 23L34 24L35 24L35 23L37 23L37 22L38 22L38 21L37 21L37 20L36 20L36 19L34 19L34 16L32 16L32 19L34 19L34 21L32 21L32 20L31 20L31 21L30 21L30 19L31 19L31 18L30 18L30 17L31 17L31 15L30 15L30 17L25 17L25 16L23 16L23 14L21 14L21 13ZM24 13L24 15L26 15L26 14L25 14L25 13ZM19 16L19 17L18 17L18 18L19 18L19 17L20 17L20 16ZM22 16L22 17L23 17L23 16ZM6 17L6 18L7 18L7 17ZM14 17L14 19L15 19L15 17ZM24 17L24 18L25 18L25 17ZM40 17L40 18L41 18L41 17ZM26 18L26 19L27 19L27 20L28 20L28 21L26 21L26 23L27 23L27 24L28 24L28 26L27 26L27 29L28 29L28 26L29 26L29 24L30 24L30 27L31 27L31 28L33 28L33 27L31 27L31 24L30 24L30 23L28 23L28 21L29 21L29 20L28 20L28 19L29 19L29 18L28 18L28 19L27 19L27 18ZM6 19L6 20L8 20L8 19ZM21 20L21 21L22 21L22 20ZM35 20L35 21L36 21L36 20ZM6 21L6 22L7 22L7 23L6 23L6 24L8 24L8 23L9 23L9 22L8 22L8 21ZM10 21L10 23L11 23L11 21ZM14 21L14 22L13 22L13 25L12 25L12 26L14 26L14 23L15 23L15 21ZM2 25L2 28L3 28L3 27L4 27L4 28L5 28L5 26L7 26L7 25L5 25L5 26L4 26L4 25ZM10 25L10 26L11 26L11 25ZM22 25L22 26L23 26L23 25ZM20 29L20 30L21 30L21 29ZM0 30L0 31L1 31L1 30ZM8 30L8 31L10 31L10 30ZM1 32L1 33L5 33L5 32ZM8 32L8 33L9 33L9 32ZM33 33L33 36L36 36L36 33ZM38 33L38 34L39 34L39 33ZM10 34L10 35L11 35L11 34ZM34 34L34 35L35 35L35 34ZM14 35L14 36L15 36L15 35ZM19 35L19 36L21 36L21 35ZM27 35L27 36L29 36L29 35ZM38 35L38 36L37 36L37 37L38 37L38 36L39 36L39 35ZM11 36L11 37L12 37L12 36ZM9 37L9 38L10 38L10 37ZM31 37L31 38L32 38L32 37ZM15 39L15 40L16 40L16 39ZM25 39L25 40L27 40L27 39ZM37 39L37 41L38 41L38 39ZM39 39L39 41L40 41L40 39ZM0 0L0 7L7 7L7 0ZM1 1L1 6L6 6L6 1ZM2 2L2 5L5 5L5 2ZM34 0L34 7L41 7L41 0ZM35 1L35 6L40 6L40 1ZM36 2L36 5L39 5L39 2ZM0 34L0 41L7 41L7 34ZM1 35L1 40L6 40L6 35ZM2 36L2 39L5 39L5 36Z" fill="#000000"/></g></g></svg>
