<?xml version="1.0" encoding="UTF-8"?>
<svg xmlns="http://www.w3.org/2000/svg" version="1.1" width="200" height="200" viewBox="0 0 200 200"><rect x="0" y="0" width="200" height="200" fill="#ffffff"/><g transform="scale(4.444)"><g transform="translate(0,0)"><path fill-rule="evenodd" d="M11 0L11 1L12 1L12 0ZM15 0L15 1L14 1L14 2L15 2L15 5L14 5L14 4L13 4L13 2L12 2L12 3L10 3L10 1L8 1L8 3L10 3L10 5L9 5L9 4L8 4L8 8L6 8L6 9L7 9L7 10L6 10L6 11L5 11L5 10L4 10L4 8L3 8L3 9L2 9L2 8L0 8L0 10L1 10L1 12L0 12L0 14L1 14L1 13L2 13L2 14L3 14L3 12L2 12L2 11L5 11L5 12L4 12L4 13L8 13L8 14L4 14L4 15L3 15L3 16L1 16L1 15L0 15L0 17L2 17L2 18L1 18L1 19L0 19L0 20L1 20L1 21L0 21L0 25L1 25L1 26L2 26L2 27L1 27L1 28L0 28L0 30L1 30L1 31L2 31L2 32L0 32L0 33L1 33L1 34L2 34L2 32L4 32L4 35L1 35L1 36L0 36L0 37L1 37L1 36L3 36L3 37L5 37L5 34L6 34L6 35L7 35L7 34L6 34L6 33L8 33L8 32L6 32L6 31L7 31L7 30L5 30L5 32L4 32L4 29L2 29L2 30L1 30L1 28L4 28L4 27L8 27L8 30L10 30L10 31L12 31L12 32L11 32L11 33L12 33L12 34L14 34L14 33L13 33L13 32L14 32L14 29L15 29L15 27L13 27L13 26L16 26L16 27L17 27L17 28L16 28L16 29L18 29L18 30L19 30L19 29L21 29L21 31L16 31L16 30L15 30L15 32L17 32L17 34L16 34L16 35L10 35L10 32L9 32L9 34L8 34L8 35L10 35L10 36L9 36L9 37L8 37L8 36L6 36L6 37L8 37L8 39L10 39L10 41L8 41L8 42L9 42L9 43L8 43L8 45L12 45L12 43L13 43L13 42L14 42L14 44L13 44L13 45L14 45L14 44L17 44L17 45L20 45L20 44L21 44L21 45L23 45L23 44L24 44L24 45L29 45L29 44L24 44L24 43L26 43L26 42L27 42L27 43L28 43L28 42L29 42L29 43L30 43L30 44L31 44L31 45L32 45L32 44L33 44L33 43L34 43L34 41L35 41L35 43L37 43L37 44L36 44L36 45L37 45L37 44L38 44L38 45L39 45L39 44L40 44L40 43L42 43L42 37L41 37L41 36L42 36L42 35L43 35L43 37L44 37L44 38L43 38L43 39L44 39L44 38L45 38L45 36L44 36L44 35L45 35L45 32L44 32L44 31L45 31L45 30L44 30L44 28L45 28L45 27L44 27L44 28L43 28L43 30L42 30L42 29L41 29L41 28L39 28L39 27L38 27L38 26L39 26L39 25L40 25L40 27L42 27L42 25L41 25L41 24L42 24L42 23L43 23L43 25L44 25L44 26L45 26L45 25L44 25L44 24L45 24L45 21L43 21L43 22L42 22L42 21L41 21L41 20L40 20L40 19L41 19L41 17L42 17L42 16L41 16L41 15L40 15L40 16L38 16L38 18L39 18L39 17L40 17L40 19L39 19L39 20L36 20L36 19L33 19L33 18L32 18L32 17L34 17L34 16L36 16L36 15L34 15L34 14L35 14L35 12L36 12L36 13L37 13L37 15L39 15L39 14L38 14L38 13L40 13L40 14L42 14L42 15L43 15L43 17L45 17L45 15L43 15L43 14L45 14L45 9L44 9L44 8L42 8L42 9L41 9L41 8L38 8L38 9L39 9L39 11L38 11L38 12L37 12L37 10L36 10L36 7L37 7L37 6L36 6L36 7L35 7L35 6L34 6L34 7L33 7L33 5L37 5L37 3L36 3L36 1L37 1L37 0L36 0L36 1L35 1L35 4L30 4L30 2L32 2L32 3L33 3L33 2L34 2L34 1L33 1L33 0L32 0L32 1L31 1L31 0L29 0L29 1L27 1L27 0L26 0L26 1L25 1L25 2L26 2L26 3L25 3L25 4L24 4L24 1L23 1L23 0L22 0L22 1L21 1L21 0L19 0L19 1L20 1L20 2L19 2L19 6L18 6L18 4L17 4L17 3L18 3L18 1L17 1L17 0ZM15 1L15 2L16 2L16 1ZM22 1L22 2L23 2L23 1ZM29 1L29 2L28 2L28 4L27 4L27 5L26 5L26 6L25 6L25 9L26 9L26 10L25 10L25 11L24 11L24 10L22 10L22 9L21 9L21 10L19 10L19 12L20 12L20 11L22 11L22 12L21 12L21 13L20 13L20 14L21 14L21 13L22 13L22 14L23 14L23 12L24 12L24 13L26 13L26 14L25 14L25 15L26 15L26 16L27 16L27 17L30 17L30 18L29 18L29 19L28 19L28 18L26 18L26 19L25 19L25 23L26 23L26 22L27 22L27 23L30 23L30 24L31 24L31 25L29 25L29 26L30 26L30 28L28 28L28 27L26 27L26 28L25 28L25 26L27 26L27 25L28 25L28 24L25 24L25 25L24 25L24 26L23 26L23 25L22 25L22 26L23 26L23 27L21 27L21 28L22 28L22 29L23 29L23 30L22 30L22 32L23 32L23 34L20 34L20 33L21 33L21 32L20 32L20 33L19 33L19 34L18 34L18 35L19 35L19 34L20 34L20 36L25 36L25 37L26 37L26 38L25 38L25 41L20 41L20 42L19 42L19 44L20 44L20 42L22 42L22 43L24 43L24 42L25 42L25 41L26 41L26 39L27 39L27 38L28 38L28 37L26 37L26 36L25 36L25 33L24 33L24 32L25 32L25 31L26 31L26 35L27 35L27 36L28 36L28 34L30 34L30 35L29 35L29 36L30 36L30 37L29 37L29 38L30 38L30 39L29 39L29 40L28 40L28 41L27 41L27 42L28 42L28 41L30 41L30 42L31 42L31 44L32 44L32 41L30 41L30 40L32 40L32 39L35 39L35 40L36 40L36 38L33 38L33 37L34 37L34 36L35 36L35 37L36 37L36 36L35 36L35 35L34 35L34 36L33 36L33 33L34 33L34 34L36 34L36 35L38 35L38 36L41 36L41 32L40 32L40 33L39 33L39 32L38 32L38 31L37 31L37 30L36 30L36 28L37 28L37 29L38 29L38 27L35 27L35 26L38 26L38 25L36 25L36 20L34 20L34 21L33 21L33 20L32 20L32 18L31 18L31 17L32 17L32 15L31 15L31 14L32 14L32 13L31 13L31 12L35 12L35 11L36 11L36 10L35 10L35 8L32 8L32 9L30 9L30 8L31 8L31 7L32 7L32 6L31 6L31 7L30 7L30 4L29 4L29 2L30 2L30 1ZM32 1L32 2L33 2L33 1ZM20 2L20 3L21 3L21 4L22 4L22 3L21 3L21 2ZM16 4L16 5L15 5L15 7L14 7L14 6L13 6L13 5L12 5L12 6L11 6L11 7L10 7L10 6L9 6L9 8L8 8L8 11L9 11L9 12L8 12L8 13L9 13L9 17L10 17L10 18L9 18L9 19L8 19L8 18L7 18L7 17L8 17L8 15L5 15L5 16L4 16L4 18L3 18L3 19L1 19L1 20L2 20L2 21L4 21L4 20L7 20L7 19L8 19L8 20L9 20L9 19L11 19L11 20L10 20L10 23L11 23L11 24L13 24L13 23L11 23L11 21L12 21L12 19L13 19L13 21L15 21L15 22L16 22L16 24L15 24L15 23L14 23L14 24L15 24L15 25L17 25L17 26L18 26L18 28L19 28L19 27L20 27L20 26L21 26L21 25L20 25L20 22L19 22L19 25L20 25L20 26L18 26L18 20L19 20L19 21L20 21L20 20L22 20L22 19L24 19L24 16L23 16L23 15L20 15L20 17L22 17L22 18L19 18L19 19L17 19L17 20L14 20L14 19L16 19L16 18L18 18L18 16L19 16L19 14L16 14L16 13L17 13L17 12L18 12L18 10L17 10L17 9L18 9L18 8L20 8L20 6L19 6L19 7L18 7L18 6L17 6L17 8L15 8L15 7L16 7L16 5L17 5L17 4ZM28 4L28 5L27 5L27 6L26 6L26 7L27 7L27 8L26 8L26 9L27 9L27 10L28 10L28 11L25 11L25 12L28 12L28 14L27 14L27 15L28 15L28 16L29 16L29 15L30 15L30 13L29 13L29 8L28 8L28 7L29 7L29 6L28 6L28 5L29 5L29 4ZM21 5L21 8L24 8L24 5ZM12 6L12 7L13 7L13 8L11 8L11 9L10 9L10 10L9 10L9 11L10 11L10 12L9 12L9 13L10 13L10 15L11 15L11 16L10 16L10 17L12 17L12 18L11 18L11 19L12 19L12 18L14 18L14 17L16 17L16 16L18 16L18 15L16 15L16 16L15 16L15 15L12 15L12 14L15 14L15 12L17 12L17 11L16 11L16 10L15 10L15 9L14 9L14 7L13 7L13 6ZM22 6L22 7L23 7L23 6ZM27 6L27 7L28 7L28 6ZM27 8L27 9L28 9L28 8ZM1 9L1 10L2 10L2 9ZM13 9L13 10L12 10L12 12L11 12L11 14L12 14L12 12L14 12L14 9ZM32 9L32 10L31 10L31 11L33 11L33 9ZM40 9L40 11L41 11L41 13L43 13L43 11L44 11L44 9L43 9L43 10L41 10L41 9ZM10 10L10 11L11 11L11 10ZM34 10L34 11L35 11L35 10ZM6 11L6 12L7 12L7 11ZM33 13L33 14L34 14L34 13ZM6 16L6 17L7 17L7 16ZM22 16L22 17L23 17L23 16ZM30 16L30 17L31 17L31 16ZM40 16L40 17L41 17L41 16ZM5 18L5 19L7 19L7 18ZM43 18L43 19L44 19L44 20L45 20L45 18ZM19 19L19 20L20 20L20 19ZM27 19L27 20L26 20L26 21L28 21L28 22L30 22L30 21L31 21L31 19L30 19L30 20L28 20L28 19ZM5 21L5 24L8 24L8 21ZM21 21L21 24L24 24L24 21ZM37 21L37 24L40 24L40 21ZM2 22L2 23L3 23L3 24L2 24L2 26L3 26L3 25L4 25L4 23L3 23L3 22ZM6 22L6 23L7 23L7 22ZM22 22L22 23L23 23L23 22ZM32 22L32 23L31 23L31 24L32 24L32 25L33 25L33 26L31 26L31 27L32 27L32 29L31 29L31 31L30 31L30 32L28 32L28 31L29 31L29 30L30 30L30 29L28 29L28 28L27 28L27 29L25 29L25 28L24 28L24 27L23 27L23 29L25 29L25 30L28 30L28 31L27 31L27 33L30 33L30 32L31 32L31 31L32 31L32 32L35 32L35 33L37 33L37 34L38 34L38 35L40 35L40 34L39 34L39 33L37 33L37 32L35 32L35 31L34 31L34 30L33 30L33 29L34 29L34 28L33 28L33 26L35 26L35 24L34 24L34 25L33 25L33 24L32 24L32 23L33 23L33 22ZM34 22L34 23L35 23L35 22ZM38 22L38 23L39 23L39 22ZM41 22L41 23L42 23L42 22ZM9 24L9 25L5 25L5 26L10 26L10 24ZM12 25L12 26L11 26L11 27L10 27L10 28L9 28L9 29L10 29L10 30L11 30L11 29L12 29L12 30L13 30L13 27L12 27L12 26L13 26L13 25ZM11 27L11 28L10 28L10 29L11 29L11 28L12 28L12 27ZM5 28L5 29L7 29L7 28ZM39 29L39 31L41 31L41 29ZM23 31L23 32L24 32L24 31ZM42 31L42 34L43 34L43 35L44 35L44 32L43 32L43 31ZM23 34L23 35L24 35L24 34ZM31 34L31 39L32 39L32 37L33 37L33 36L32 36L32 34ZM16 35L16 37L15 37L15 39L16 39L16 40L17 40L17 41L15 41L15 40L13 40L13 39L12 39L12 38L14 38L14 36L11 36L11 38L10 38L10 39L11 39L11 40L13 40L13 41L11 41L11 42L10 42L10 43L9 43L9 44L10 44L10 43L11 43L11 42L13 42L13 41L15 41L15 42L16 42L16 43L18 43L18 42L17 42L17 41L18 41L18 40L17 40L17 39L16 39L16 37L17 37L17 38L18 38L18 37L17 37L17 35ZM21 37L21 40L24 40L24 37ZM37 37L37 40L40 40L40 37ZM19 38L19 40L20 40L20 38ZM22 38L22 39L23 39L23 38ZM38 38L38 39L39 39L39 38ZM33 40L33 41L34 41L34 40ZM43 40L43 41L44 41L44 42L45 42L45 40ZM37 41L37 42L38 42L38 41ZM39 42L39 43L38 43L38 44L39 44L39 43L40 43L40 42ZM43 44L43 45L44 45L44 44ZM0 0L0 7L7 7L7 0ZM1 1L1 6L6 6L6 1ZM2 2L2 5L5 5L5 2ZM38 0L38 7L45 7L45 0ZM39 1L39 6L44 6L44 1ZM40 2L40 5L43 5L43 2ZM0 38L0 45L7 45L7 38ZM1 39L1 44L6 44L6 39ZM2 40L2 43L5 43L5 40Z" fill="#000000"/></g></g></svg>
