<?xml version="1.0" encoding="UTF-8"?>
<svg xmlns="http://www.w3.org/2000/svg" version="1.1" width="200" height="200" viewBox="0 0 200 200"><rect x="0" y="0" width="200" height="200" fill="#ffffff"/><g transform="scale(4.082)"><g transform="translate(0,0)"><path fill-rule="evenodd" d="M8 0L8 1L9 1L9 2L8 2L8 5L9 5L9 2L10 2L10 1L11 1L11 0L10 0L10 1L9 1L9 0ZM13 0L13 1L12 1L12 2L13 2L13 1L14 1L14 2L15 2L15 0ZM17 0L17 1L16 1L16 3L15 3L15 4L13 4L13 3L12 3L12 8L8 8L8 9L7 9L7 8L6 8L6 9L7 9L7 10L6 10L6 11L5 11L5 12L3 12L3 11L4 11L4 10L5 10L5 9L4 9L4 8L0 8L0 9L2 9L2 12L1 12L1 13L0 13L0 14L1 14L1 15L0 15L0 19L3 19L3 20L2 20L2 21L4 21L4 19L5 19L5 21L7 21L7 22L0 22L0 24L2 24L2 27L3 27L3 29L2 29L2 28L1 28L1 27L0 27L0 29L1 29L1 30L0 30L0 33L1 33L1 34L2 34L2 35L1 35L1 37L2 37L2 36L3 36L3 38L4 38L4 37L5 37L5 39L9 39L9 40L10 40L10 39L11 39L11 40L12 40L12 41L10 41L10 42L9 42L9 41L8 41L8 40L6 40L6 41L8 41L8 42L9 42L9 43L10 43L10 46L9 46L9 45L8 45L8 49L11 49L11 48L9 48L9 47L10 47L10 46L11 46L11 45L12 45L12 46L13 46L13 45L12 45L12 44L11 44L11 43L15 43L15 42L17 42L17 44L14 44L14 45L15 45L15 47L16 47L16 48L15 48L15 49L19 49L19 48L20 48L20 49L21 49L21 48L23 48L23 47L24 47L24 48L26 48L26 47L27 47L27 49L28 49L28 46L29 46L29 45L30 45L30 47L31 47L31 49L32 49L32 48L33 48L33 47L36 47L36 49L38 49L38 48L37 48L37 47L36 47L36 46L34 46L34 45L32 45L32 44L31 44L31 45L30 45L30 44L29 44L29 43L28 43L28 40L29 40L29 41L33 41L33 42L34 42L34 43L35 43L35 41L36 41L36 44L35 44L35 45L36 45L36 44L37 44L37 45L38 45L38 43L39 43L39 42L38 42L38 43L37 43L37 41L38 41L38 40L37 40L37 41L36 41L36 39L35 39L35 40L34 40L34 39L32 39L32 38L30 38L30 37L28 37L28 36L27 36L27 34L29 34L29 32L30 32L30 35L29 35L29 36L30 36L30 35L31 35L31 34L32 34L32 36L33 36L33 37L34 37L34 36L35 36L35 37L36 37L36 38L37 38L37 39L41 39L41 40L40 40L40 45L39 45L39 47L40 47L40 48L39 48L39 49L40 49L40 48L41 48L41 47L42 47L42 46L43 46L43 48L45 48L45 49L49 49L49 48L47 48L47 47L49 47L49 45L47 45L47 46L46 46L46 45L45 45L45 43L47 43L47 44L49 44L49 39L48 39L48 38L49 38L49 35L48 35L48 38L46 38L46 37L47 37L47 34L46 34L46 30L47 30L47 28L49 28L49 27L48 27L48 26L49 26L49 23L48 23L48 26L46 26L46 24L47 24L47 22L48 22L48 21L49 21L49 17L47 17L47 16L46 16L46 14L45 14L45 13L44 13L44 12L46 12L46 13L47 13L47 11L48 11L48 14L47 14L47 15L48 15L48 16L49 16L49 15L48 15L48 14L49 14L49 11L48 11L48 9L49 9L49 8L48 8L48 9L47 9L47 8L44 8L44 9L42 9L42 8L41 8L41 10L40 10L40 12L38 12L38 11L36 11L36 9L35 9L35 11L32 11L32 10L31 10L31 8L30 8L30 9L29 9L29 6L30 6L30 7L31 7L31 6L32 6L32 7L33 7L33 6L34 6L34 7L35 7L35 8L37 8L37 6L38 6L38 9L37 9L37 10L38 10L38 9L39 9L39 8L40 8L40 7L41 7L41 6L40 6L40 7L39 7L39 5L38 5L38 4L37 4L37 3L38 3L38 2L39 2L39 4L40 4L40 3L41 3L41 0L40 0L40 1L38 1L38 2L36 2L36 1L37 1L37 0L36 0L36 1L35 1L35 2L36 2L36 3L34 3L34 2L33 2L33 1L32 1L32 0L29 0L29 1L30 1L30 2L29 2L29 4L28 4L28 5L27 5L27 4L26 4L26 2L25 2L25 1L26 1L26 0L23 0L23 1L22 1L22 2L21 2L21 5L20 5L20 4L19 4L19 3L20 3L20 1L19 1L19 3L18 3L18 0ZM27 1L27 2L28 2L28 1ZM22 2L22 3L23 3L23 4L24 4L24 3L25 3L25 2L24 2L24 3L23 3L23 2ZM10 3L10 4L11 4L11 3ZM16 3L16 4L17 4L17 5L14 5L14 6L13 6L13 8L12 8L12 13L9 13L9 12L11 12L11 10L10 10L10 11L6 11L6 12L5 12L5 13L4 13L4 14L2 14L2 13L3 13L3 12L2 12L2 13L1 13L1 14L2 14L2 16L3 16L3 17L1 17L1 18L7 18L7 17L8 17L8 16L9 16L9 17L10 17L10 18L8 18L8 19L6 19L6 20L8 20L8 19L9 19L9 20L12 20L12 24L14 24L14 26L13 26L13 28L14 28L14 31L15 31L15 32L12 32L12 31L13 31L13 29L12 29L12 30L10 30L10 31L9 31L9 32L10 32L10 31L11 31L11 32L12 32L12 34L11 34L11 33L9 33L9 34L8 34L8 35L9 35L9 34L11 34L11 37L10 37L10 36L9 36L9 38L11 38L11 39L12 39L12 40L15 40L15 41L16 41L16 39L17 39L17 38L18 38L18 39L19 39L19 37L20 37L20 38L22 38L22 39L21 39L21 40L17 40L17 42L18 42L18 43L20 43L20 44L19 44L19 46L21 46L21 47L20 47L20 48L21 48L21 47L23 47L23 46L24 46L24 47L25 47L25 45L22 45L22 46L21 46L21 43L20 43L20 42L21 42L21 40L23 40L23 39L24 39L24 40L25 40L25 39L24 39L24 36L25 36L25 38L26 38L26 39L27 39L27 40L28 40L28 39L27 39L27 38L28 38L28 37L27 37L27 36L26 36L26 35L23 35L23 34L21 34L21 33L22 33L22 29L23 29L23 30L25 30L25 31L24 31L24 32L23 32L23 33L24 33L24 32L26 32L26 33L25 33L25 34L26 34L26 33L27 33L27 32L28 32L28 31L29 31L29 30L30 30L30 32L31 32L31 33L32 33L32 34L33 34L33 35L34 35L34 34L37 34L37 32L38 32L38 31L37 31L37 32L35 32L35 33L34 33L34 32L33 32L33 30L31 30L31 29L32 29L32 28L27 28L27 29L25 29L25 28L26 28L26 27L25 27L25 28L24 28L24 27L22 27L22 26L20 26L20 27L17 27L17 28L16 28L16 26L17 26L17 25L18 25L18 24L19 24L19 25L20 25L20 23L21 23L21 25L22 25L22 23L21 23L21 22L22 22L22 21L23 21L23 22L27 22L27 21L28 21L28 22L29 22L29 23L27 23L27 24L28 24L28 25L27 25L27 26L29 26L29 27L30 27L30 26L32 26L32 27L36 27L36 28L34 28L34 29L35 29L35 30L37 30L37 29L38 29L38 30L39 30L39 29L42 29L42 30L40 30L40 32L39 32L39 33L38 33L38 35L37 35L37 38L38 38L38 36L39 36L39 33L40 33L40 32L41 32L41 31L42 31L42 30L43 30L43 33L41 33L41 34L40 34L40 35L43 35L43 33L44 33L44 36L45 36L45 37L46 37L46 34L45 34L45 33L44 33L44 31L45 31L45 30L46 30L46 28L47 28L47 27L46 27L46 28L45 28L45 27L44 27L44 28L43 28L43 27L40 27L40 25L39 25L39 23L40 23L40 22L41 22L41 20L42 20L42 21L43 21L43 22L45 22L45 23L46 23L46 22L47 22L47 21L48 21L48 20L47 20L47 19L48 19L48 18L46 18L46 17L45 17L45 18L46 18L46 20L45 20L45 19L44 19L44 20L43 20L43 16L44 16L44 15L45 15L45 14L43 14L43 13L42 13L42 12L43 12L43 11L42 11L42 12L41 12L41 13L40 13L40 14L41 14L41 15L42 15L42 14L43 14L43 16L42 16L42 19L41 19L41 18L40 18L40 16L38 16L38 17L37 17L37 16L35 16L35 15L33 15L33 12L32 12L32 11L28 11L28 10L29 10L29 9L26 9L26 10L24 10L24 11L26 11L26 13L27 13L27 16L28 16L28 17L25 17L25 18L24 18L24 15L26 15L26 14L23 14L23 13L21 13L21 12L20 12L20 13L19 13L19 12L18 12L18 10L19 10L19 11L21 11L21 9L22 9L22 11L23 11L23 9L22 9L22 6L21 6L21 7L20 7L20 6L19 6L19 4L18 4L18 3ZM31 3L31 4L30 4L30 5L31 5L31 4L32 4L32 6L33 6L33 3ZM34 4L34 6L35 6L35 7L36 7L36 6L37 6L37 4ZM10 5L10 7L11 7L11 5ZM23 5L23 8L26 8L26 5ZM28 5L28 6L27 6L27 8L28 8L28 6L29 6L29 5ZM35 5L35 6L36 6L36 5ZM8 6L8 7L9 7L9 6ZM14 6L14 7L15 7L15 8L17 8L17 6L16 6L16 7L15 7L15 6ZM18 6L18 8L20 8L20 9L21 9L21 8L20 8L20 7L19 7L19 6ZM24 6L24 7L25 7L25 6ZM33 8L33 9L34 9L34 8ZM8 9L8 10L9 10L9 9ZM14 9L14 10L13 10L13 13L12 13L12 14L9 14L9 13L8 13L8 12L6 12L6 13L5 13L5 14L6 14L6 15L3 15L3 16L4 16L4 17L7 17L7 16L6 16L6 15L8 15L8 14L9 14L9 15L12 15L12 14L13 14L13 16L10 16L10 17L11 17L11 18L10 18L10 19L11 19L11 18L12 18L12 17L13 17L13 18L15 18L15 19L13 19L13 23L14 23L14 24L15 24L15 25L17 25L17 24L16 24L16 23L17 23L17 22L18 22L18 23L19 23L19 22L21 22L21 21L20 21L20 20L21 20L21 19L24 19L24 20L23 20L23 21L24 21L24 20L25 20L25 21L27 21L27 19L28 19L28 21L30 21L30 23L29 23L29 24L30 24L30 25L29 25L29 26L30 26L30 25L32 25L32 24L31 24L31 21L32 21L32 19L33 19L33 21L34 21L34 20L35 20L35 22L34 22L34 24L33 24L33 25L35 25L35 26L38 26L38 27L39 27L39 25L38 25L38 24L35 24L35 22L37 22L37 23L38 23L38 22L37 22L37 21L39 21L39 20L41 20L41 19L40 19L40 18L37 18L37 17L36 17L36 19L35 19L35 17L34 17L34 16L33 16L33 15L32 15L32 14L30 14L30 13L28 13L28 15L29 15L29 16L31 16L31 17L32 17L32 18L31 18L31 21L30 21L30 20L29 20L29 19L28 19L28 18L30 18L30 17L28 17L28 18L26 18L26 20L25 20L25 19L24 19L24 18L22 18L22 15L23 15L23 14L21 14L21 13L20 13L20 14L21 14L21 19L20 19L20 18L19 18L19 17L20 17L20 16L19 16L19 17L18 17L18 16L16 16L16 15L17 15L17 14L18 14L18 12L17 12L17 14L15 14L15 11L14 11L14 10L16 10L16 11L17 11L17 10L16 10L16 9ZM44 9L44 10L45 10L45 9ZM0 10L0 11L1 11L1 10ZM46 10L46 11L47 11L47 10ZM35 11L35 12L34 12L34 14L35 14L35 12L36 12L36 11ZM37 12L37 13L36 13L36 15L38 15L38 12ZM6 13L6 14L7 14L7 13ZM13 13L13 14L14 14L14 16L15 16L15 14L14 14L14 13ZM31 15L31 16L32 16L32 15ZM15 17L15 18L16 18L16 17ZM17 17L17 19L15 19L15 20L14 20L14 22L15 22L15 23L16 23L16 20L17 20L17 21L19 21L19 19L18 19L18 17ZM33 17L33 18L34 18L34 17ZM37 19L37 20L36 20L36 21L37 21L37 20L39 20L39 19ZM9 21L9 22L10 22L10 23L9 23L9 25L10 25L10 26L11 26L11 27L12 27L12 25L10 25L10 23L11 23L11 22L10 22L10 21ZM45 21L45 22L46 22L46 21ZM32 22L32 23L33 23L33 22ZM2 23L2 24L4 24L4 23ZM5 23L5 26L8 26L8 23ZM23 23L23 26L26 26L26 23ZM41 23L41 26L44 26L44 23ZM6 24L6 25L7 25L7 24ZM24 24L24 25L25 25L25 24ZM42 24L42 25L43 25L43 24ZM0 25L0 26L1 26L1 25ZM3 26L3 27L4 27L4 29L5 29L5 27L4 27L4 26ZM14 26L14 28L15 28L15 29L16 29L16 30L17 30L17 29L16 29L16 28L15 28L15 26ZM6 27L6 28L7 28L7 29L6 29L6 30L8 30L8 29L9 29L9 28L10 28L10 29L11 29L11 28L10 28L10 27ZM20 27L20 28L18 28L18 29L19 29L19 30L18 30L18 31L17 31L17 33L18 33L18 32L19 32L19 36L18 36L18 34L17 34L17 36L18 36L18 37L19 37L19 36L20 36L20 33L21 33L21 31L20 31L20 29L21 29L21 28L22 28L22 27ZM43 29L43 30L44 30L44 29ZM48 29L48 33L49 33L49 29ZM1 30L1 32L2 32L2 33L4 33L4 34L3 34L3 35L4 35L4 34L7 34L7 33L8 33L8 31L6 31L6 32L7 32L7 33L4 33L4 32L5 32L5 30L3 30L3 31L2 31L2 30ZM27 30L27 31L28 31L28 30ZM3 31L3 32L4 32L4 31ZM19 31L19 32L20 32L20 31ZM31 31L31 32L32 32L32 31ZM13 33L13 34L12 34L12 39L13 39L13 38L17 38L17 37L16 37L16 36L15 36L15 37L13 37L13 34L14 34L14 35L16 35L16 34L15 34L15 33ZM33 33L33 34L34 34L34 33ZM5 35L5 37L6 37L6 38L8 38L8 36L7 36L7 35ZM6 36L6 37L7 37L7 36ZM40 36L40 37L39 37L39 38L41 38L41 36ZM42 36L42 37L43 37L43 36ZM22 37L22 38L23 38L23 37ZM1 38L1 40L0 40L0 41L3 41L3 40L4 40L4 39L2 39L2 38ZM42 38L42 40L43 40L43 39L44 39L44 40L47 40L47 41L45 41L45 42L47 42L47 41L48 41L48 40L47 40L47 39L45 39L45 38ZM29 39L29 40L32 40L32 39ZM33 40L33 41L34 41L34 40ZM12 41L12 42L13 42L13 41ZM18 41L18 42L19 42L19 41ZM23 41L23 44L26 44L26 41ZM41 41L41 44L44 44L44 41ZM10 42L10 43L11 43L11 42ZM24 42L24 43L25 43L25 42ZM31 42L31 43L32 43L32 42ZM42 42L42 43L43 43L43 42ZM27 44L27 45L28 45L28 44ZM16 45L16 47L18 47L18 48L19 48L19 47L18 47L18 45ZM31 45L31 47L33 47L33 46L32 46L32 45ZM40 46L40 47L41 47L41 46ZM13 48L13 49L14 49L14 48ZM0 0L0 7L7 7L7 0ZM1 1L1 6L6 6L6 1ZM2 2L2 5L5 5L5 2ZM42 0L42 7L49 7L49 0ZM43 1L43 6L48 6L48 1ZM44 2L44 5L47 5L47 2ZM0 42L0 49L7 49L7 42ZM1 43L1 48L6 48L6 43ZM2 44L2 47L5 47L5 44Z" fill="#000000"/></g></g></svg>
