<?xml version="1.0" encoding="UTF-8"?>
<svg xmlns="http://www.w3.org/2000/svg" version="1.1" width="200" height="200" viewBox="0 0 200 200"><rect x="0" y="0" width="200" height="200" fill="#ffffff"/><g transform="scale(4.444)"><g transform="translate(0,0)"><path fill-rule="evenodd" d="M9 0L9 1L11 1L11 2L10 2L10 4L9 4L9 3L8 3L8 5L11 5L11 6L10 6L10 7L9 7L9 6L8 6L8 7L9 7L9 8L10 8L10 9L11 9L11 10L10 10L10 11L9 11L9 9L8 9L8 8L5 8L5 9L3 9L3 10L4 10L4 11L2 11L2 8L0 8L0 10L1 10L1 11L2 11L2 13L1 13L1 12L0 12L0 14L2 14L2 15L1 15L1 17L2 17L2 18L3 18L3 20L4 20L4 23L3 23L3 22L2 22L2 19L0 19L0 20L1 20L1 21L0 21L0 22L2 22L2 25L3 25L3 24L4 24L4 25L9 25L9 26L8 26L8 27L9 27L9 28L8 28L8 29L7 29L7 28L6 28L6 27L7 27L7 26L6 26L6 27L3 27L3 26L1 26L1 25L0 25L0 26L1 26L1 27L0 27L0 30L1 30L1 34L2 34L2 33L3 33L3 31L4 31L4 32L5 32L5 31L4 31L4 30L6 30L6 31L7 31L7 32L6 32L6 33L5 33L5 34L4 34L4 35L1 35L1 36L0 36L0 37L1 37L1 36L3 36L3 37L5 37L5 34L6 34L6 35L7 35L7 36L6 36L6 37L8 37L8 40L9 40L9 42L10 42L10 43L8 43L8 45L9 45L9 44L10 44L10 43L11 43L11 44L12 44L12 41L13 41L13 45L14 45L14 41L13 41L13 40L15 40L15 41L17 41L17 42L18 42L18 41L19 41L19 39L20 39L20 42L19 42L19 43L20 43L20 44L21 44L21 45L26 45L26 44L24 44L24 43L22 43L22 42L21 42L21 41L24 41L24 42L25 42L25 43L26 43L26 42L25 42L25 38L26 38L26 41L27 41L27 42L30 42L30 44L31 44L31 43L32 43L32 44L33 44L33 45L35 45L35 44L36 44L36 45L37 45L37 44L38 44L38 45L42 45L42 44L43 44L43 45L44 45L44 44L43 44L43 43L44 43L44 42L43 42L43 41L42 41L42 40L43 40L43 39L42 39L42 40L41 40L41 36L42 36L42 38L43 38L43 36L45 36L45 35L44 35L44 33L41 33L41 32L39 32L39 31L40 31L40 29L41 29L41 30L42 30L42 32L43 32L43 28L44 28L44 32L45 32L45 28L44 28L44 27L40 27L40 29L39 29L39 30L38 30L38 33L37 33L37 36L36 36L36 35L35 35L35 32L36 32L36 30L35 30L35 32L33 32L33 31L34 31L34 28L36 28L36 29L38 29L38 28L37 28L37 27L38 27L38 25L39 25L39 26L40 26L40 25L41 25L41 26L43 26L43 25L44 25L44 26L45 26L45 25L44 25L44 21L43 21L43 19L42 19L42 18L44 18L44 20L45 20L45 17L42 17L42 16L43 16L43 15L44 15L44 16L45 16L45 15L44 15L44 14L45 14L45 12L44 12L44 14L41 14L41 17L39 17L39 19L41 19L41 20L37 20L37 19L38 19L38 16L40 16L40 14L38 14L38 13L36 13L36 11L38 11L38 12L39 12L39 9L36 9L36 11L35 11L35 8L36 8L36 7L37 7L37 6L36 6L36 7L35 7L35 6L34 6L34 5L37 5L37 3L36 3L36 1L37 1L37 0L36 0L36 1L35 1L35 4L34 4L34 2L32 2L32 1L33 1L33 0L30 0L30 1L29 1L29 2L27 2L27 1L28 1L28 0L25 0L25 1L24 1L24 0L22 0L22 1L21 1L21 0L20 0L20 2L22 2L22 1L23 1L23 3L24 3L24 4L22 4L22 3L21 3L21 4L19 4L19 1L18 1L18 0L17 0L17 1L16 1L16 3L17 3L17 4L19 4L19 5L16 5L16 4L15 4L15 3L14 3L14 5L16 5L16 7L17 7L17 6L18 6L18 9L19 9L19 8L20 8L20 9L21 9L21 10L19 10L19 12L17 12L17 13L19 13L19 12L20 12L20 11L21 11L21 14L18 14L18 16L17 16L17 17L16 17L16 16L13 16L13 17L12 17L12 18L13 18L13 17L15 17L15 18L14 18L14 19L10 19L10 17L9 17L9 18L8 18L8 16L6 16L6 17L7 17L7 18L5 18L5 19L8 19L8 20L4 20L4 17L5 17L5 16L4 16L4 15L3 15L3 14L6 14L6 15L9 15L9 16L10 16L10 15L9 15L9 14L8 14L8 13L10 13L10 12L11 12L11 11L12 11L12 12L13 12L13 10L15 10L15 9L13 9L13 10L12 10L12 9L11 9L11 6L12 6L12 7L13 7L13 8L14 8L14 7L15 7L15 6L14 6L14 7L13 7L13 2L15 2L15 0L12 0L12 1L11 1L11 0ZM17 1L17 2L18 2L18 1ZM30 1L30 2L29 2L29 4L28 4L28 3L27 3L27 2L25 2L25 9L22 9L22 10L21 10L21 11L22 11L22 14L25 14L25 15L23 15L23 16L24 16L24 17L22 17L22 18L21 18L21 17L20 17L20 16L19 16L19 21L18 21L18 22L15 22L15 21L16 21L16 20L15 20L15 19L14 19L14 21L12 21L12 22L13 22L13 23L12 23L12 24L13 24L13 23L14 23L14 24L15 24L15 23L16 23L16 24L17 24L17 25L14 25L14 26L15 26L15 27L16 27L16 28L17 28L17 27L18 27L18 28L19 28L19 29L16 29L16 30L17 30L17 31L18 31L18 30L19 30L19 29L20 29L20 30L22 30L22 29L23 29L23 31L24 31L24 29L25 29L25 28L26 28L26 32L22 32L22 31L20 31L20 34L19 34L19 33L17 33L17 35L15 35L15 34L14 34L14 33L13 33L13 35L14 35L14 36L12 36L12 35L11 35L11 34L12 34L12 33L11 33L11 34L10 34L10 36L12 36L12 37L9 37L9 34L8 34L8 32L7 32L7 33L6 33L6 34L8 34L8 37L9 37L9 39L10 39L10 42L11 42L11 41L12 41L12 40L13 40L13 39L15 39L15 40L16 40L16 38L17 38L17 39L18 39L18 38L19 38L19 37L18 37L18 36L17 36L17 35L18 35L18 34L19 34L19 35L20 35L20 36L24 36L24 35L26 35L26 36L25 36L25 37L26 37L26 38L28 38L28 39L27 39L27 41L30 41L30 40L29 40L29 39L31 39L31 38L36 38L36 37L34 37L34 36L35 36L35 35L34 35L34 33L33 33L33 32L32 32L32 31L31 31L31 30L32 30L32 29L33 29L33 27L31 27L31 26L35 26L35 27L36 27L36 26L37 26L37 25L36 25L36 26L35 26L35 25L31 25L31 26L29 26L29 25L30 25L30 24L29 24L29 25L26 25L26 24L28 24L28 23L31 23L31 24L32 24L32 23L34 23L34 24L36 24L36 22L35 22L35 23L34 23L34 22L33 22L33 21L35 21L35 20L36 20L36 19L37 19L37 18L36 18L36 17L37 17L37 16L36 16L36 15L38 15L38 14L36 14L36 13L35 13L35 11L33 11L33 8L35 8L35 7L34 7L34 6L33 6L33 5L34 5L34 4L32 4L32 6L31 6L31 5L30 5L30 6L29 6L29 4L31 4L31 3L30 3L30 2L31 2L31 1ZM11 2L11 4L12 4L12 2ZM19 5L19 7L20 7L20 5ZM21 5L21 8L24 8L24 5ZM26 5L26 7L27 7L27 6L28 6L28 8L26 8L26 10L23 10L23 11L24 11L24 12L25 12L25 13L27 13L27 14L26 14L26 16L25 16L25 17L28 17L28 18L27 18L27 19L29 19L29 21L28 21L28 22L27 22L27 20L26 20L26 21L25 21L25 20L24 20L24 19L25 19L25 18L24 18L24 19L23 19L23 18L22 18L22 19L23 19L23 20L20 20L20 21L19 21L19 22L20 22L20 25L19 25L19 23L17 23L17 24L18 24L18 25L19 25L19 26L18 26L18 27L19 27L19 28L25 28L25 27L27 27L27 26L25 26L25 27L19 27L19 26L21 26L21 25L22 25L22 26L24 26L24 25L25 25L25 23L28 23L28 22L29 22L29 21L30 21L30 22L32 22L32 20L33 20L33 19L34 19L34 20L35 20L35 19L36 19L36 18L35 18L35 19L34 19L34 17L32 17L32 15L35 15L35 14L34 14L34 13L33 13L33 11L30 11L30 12L32 12L32 13L29 13L29 12L28 12L28 13L27 13L27 11L29 11L29 10L32 10L32 8L33 8L33 6L32 6L32 7L31 7L31 6L30 6L30 7L29 7L29 6L28 6L28 5ZM22 6L22 7L23 7L23 6ZM28 8L28 9L27 9L27 10L29 10L29 8ZM40 8L40 10L41 10L41 11L40 11L40 13L41 13L41 11L42 11L42 12L43 12L43 11L44 11L44 9L43 9L43 10L41 10L41 9L42 9L42 8ZM6 9L6 10L5 10L5 12L7 12L7 13L6 13L6 14L7 14L7 13L8 13L8 12L9 12L9 11L8 11L8 10L7 10L7 9ZM16 9L16 10L17 10L17 11L18 11L18 10L17 10L17 9ZM6 10L6 11L7 11L7 12L8 12L8 11L7 11L7 10ZM14 11L14 14L13 14L13 15L17 15L17 14L15 14L15 13L16 13L16 12L15 12L15 11ZM2 13L2 14L3 14L3 13ZM11 13L11 14L12 14L12 13ZM28 14L28 17L30 17L30 16L29 16L29 15L31 15L31 14ZM2 15L2 17L3 17L3 15ZM11 15L11 16L12 16L12 15ZM31 17L31 18L30 18L30 19L31 19L31 20L32 20L32 19L31 19L31 18L32 18L32 17ZM16 18L16 19L17 19L17 20L18 20L18 19L17 19L17 18ZM9 19L9 20L10 20L10 19ZM41 20L41 23L42 23L42 20ZM5 21L5 24L8 24L8 21ZM9 21L9 25L10 25L10 28L11 28L11 27L12 27L12 29L11 29L11 30L12 30L12 31L10 31L10 29L9 29L9 33L10 33L10 32L12 32L12 31L13 31L13 32L14 32L14 31L15 31L15 33L16 33L16 31L15 31L15 30L14 30L14 29L15 29L15 28L14 28L14 29L13 29L13 25L12 25L12 26L11 26L11 24L10 24L10 21ZM21 21L21 24L24 24L24 21ZM37 21L37 24L40 24L40 21ZM6 22L6 23L7 23L7 22ZM22 22L22 23L23 23L23 22ZM38 22L38 23L39 23L39 22ZM0 23L0 24L1 24L1 23ZM42 24L42 25L43 25L43 24ZM30 27L30 28L31 28L31 29L30 29L30 30L31 30L31 29L32 29L32 28L31 28L31 27ZM1 28L1 29L2 29L2 31L3 31L3 30L4 30L4 29L2 29L2 28ZM5 28L5 29L6 29L6 30L7 30L7 29L6 29L6 28ZM27 28L27 31L28 31L28 32L30 32L30 31L29 31L29 29L28 29L28 28ZM12 29L12 30L13 30L13 29ZM21 32L21 34L22 34L22 35L23 35L23 34L22 34L22 32ZM24 33L24 34L25 34L25 33ZM26 33L26 35L27 35L27 36L26 36L26 37L27 37L27 36L28 36L28 38L29 38L29 37L30 37L30 38L31 38L31 37L33 37L33 36L34 36L34 35L32 35L32 36L31 36L31 37L30 37L30 36L28 36L28 35L30 35L30 34L33 34L33 33ZM38 34L38 35L39 35L39 36L41 36L41 35L40 35L40 34ZM14 36L14 38L16 38L16 36ZM12 37L12 39L11 39L11 40L12 40L12 39L13 39L13 37ZM21 37L21 40L24 40L24 37ZM37 37L37 40L40 40L40 37ZM44 37L44 38L45 38L45 37ZM22 38L22 39L23 39L23 38ZM38 38L38 39L39 39L39 38ZM32 39L32 40L31 40L31 42L32 42L32 41L33 41L33 44L35 44L35 43L36 43L36 44L37 44L37 43L38 43L38 44L40 44L40 43L38 43L38 42L40 42L40 41L38 41L38 42L37 42L37 41L33 41L33 40L35 40L35 39ZM44 40L44 41L45 41L45 40ZM41 41L41 42L42 42L42 41ZM15 42L15 43L16 43L16 42ZM36 42L36 43L37 43L37 42ZM21 43L21 44L22 44L22 43ZM15 44L15 45L19 45L19 44ZM0 0L0 7L7 7L7 0ZM1 1L1 6L6 6L6 1ZM2 2L2 5L5 5L5 2ZM38 0L38 7L45 7L45 0ZM39 1L39 6L44 6L44 1ZM40 2L40 5L43 5L43 2ZM0 38L0 45L7 45L7 38ZM1 39L1 44L6 44L6 39ZM2 40L2 43L5 43L5 40Z" fill="#000000"/></g></g></svg>
