<?xml version="1.0" encoding="UTF-8"?>
<svg xmlns="http://www.w3.org/2000/svg" version="1.1" width="200" height="200" viewBox="0 0 200 200"><rect x="0" y="0" width="200" height="200" fill="#ffffff"/><g transform="scale(4.444)"><g transform="translate(0,0)"><path fill-rule="evenodd" d="M8 0L8 1L9 1L9 2L8 2L8 5L9 5L9 6L8 6L8 7L9 7L9 8L8 8L8 9L7 9L7 8L6 8L6 9L4 9L4 8L0 8L0 11L2 11L2 12L3 12L3 13L2 13L2 14L1 14L1 18L2 18L2 19L4 19L4 22L1 22L1 21L0 21L0 28L1 28L1 29L0 29L0 31L1 31L1 32L0 32L0 33L1 33L1 34L2 34L2 33L1 33L1 32L4 32L4 35L1 35L1 36L0 36L0 37L1 37L1 36L3 36L3 37L5 37L5 32L6 32L6 33L7 33L7 34L6 34L6 35L7 35L7 36L6 36L6 37L7 37L7 36L8 36L8 38L9 38L9 39L10 39L10 41L11 41L11 42L13 42L13 41L12 41L12 39L11 39L11 38L12 38L12 37L11 37L11 38L10 38L10 36L11 36L11 33L12 33L12 34L13 34L13 33L12 33L12 31L9 31L9 35L8 35L8 32L6 32L6 31L7 31L7 30L11 30L11 29L9 29L9 28L10 28L10 27L11 27L11 28L12 28L12 29L13 29L13 31L15 31L15 30L16 30L16 31L19 31L19 32L20 32L20 33L19 33L19 34L20 34L20 35L22 35L22 36L20 36L20 37L19 37L19 36L17 36L17 35L18 35L18 34L16 34L16 36L17 36L17 37L19 37L19 38L20 38L20 41L17 41L17 40L19 40L19 39L17 39L17 38L16 38L16 37L15 37L15 39L17 39L17 40L16 40L16 42L14 42L14 43L12 43L12 45L13 45L13 44L15 44L15 43L17 43L17 44L16 44L16 45L18 45L18 43L19 43L19 42L21 42L21 45L24 45L24 44L25 44L25 43L26 43L26 44L27 44L27 45L29 45L29 44L30 44L30 45L32 45L32 44L30 44L30 43L31 43L31 42L33 42L33 40L34 40L34 43L37 43L37 45L39 45L39 43L40 43L40 44L41 44L41 43L40 43L40 42L39 42L39 43L38 43L38 42L37 42L37 41L41 41L41 38L42 38L42 41L43 41L43 42L42 42L42 43L43 43L43 42L44 42L44 44L45 44L45 42L44 42L44 41L43 41L43 39L44 39L44 40L45 40L45 39L44 39L44 38L42 38L42 37L45 37L45 33L44 33L44 32L42 32L42 31L44 31L44 30L45 30L45 29L43 29L43 30L42 30L42 29L41 29L41 28L45 28L45 27L44 27L44 26L42 26L42 27L41 27L41 26L40 26L40 25L41 25L41 24L42 24L42 22L43 22L43 23L45 23L45 21L44 21L44 20L43 20L43 21L42 21L42 22L41 22L41 19L40 19L40 16L42 16L42 17L41 17L41 18L42 18L42 17L43 17L43 15L42 15L42 14L43 14L43 13L44 13L44 11L45 11L45 8L44 8L44 9L43 9L43 8L40 8L40 9L39 9L39 11L40 11L40 9L43 9L43 13L42 13L42 12L41 12L41 13L38 13L38 8L36 8L36 7L37 7L37 6L36 6L36 7L35 7L35 6L34 6L34 7L35 7L35 8L36 8L36 10L34 10L34 11L35 11L35 13L36 13L36 12L37 12L37 14L36 14L36 15L34 15L34 13L33 13L33 14L32 14L32 12L33 12L33 9L30 9L30 8L29 8L29 6L30 6L30 7L31 7L31 8L32 8L32 7L33 7L33 6L32 6L32 7L31 7L31 5L37 5L37 3L36 3L36 1L37 1L37 0L36 0L36 1L35 1L35 4L32 4L32 3L33 3L33 2L34 2L34 1L31 1L31 0L27 0L27 1L30 1L30 2L32 2L32 3L31 3L31 5L28 5L28 3L26 3L26 1L25 1L25 2L24 2L24 4L23 4L23 2L22 2L22 1L21 1L21 2L20 2L20 3L22 3L22 4L19 4L19 3L18 3L18 2L17 2L17 0L16 0L16 2L15 2L15 4L19 4L19 6L18 6L18 5L17 5L17 6L16 6L16 7L17 7L17 8L15 8L15 6L14 6L14 5L13 5L13 6L12 6L12 4L13 4L13 3L14 3L14 1L13 1L13 0L11 0L11 1L9 1L9 0ZM19 0L19 1L20 1L20 0ZM11 1L11 2L13 2L13 1ZM9 2L9 3L10 3L10 4L9 4L9 5L11 5L11 3L10 3L10 2ZM16 2L16 3L17 3L17 2ZM25 3L25 5L26 5L26 3ZM21 5L21 8L24 8L24 5ZM9 6L9 7L10 7L10 8L9 8L9 9L8 9L8 11L5 11L5 10L4 10L4 12L5 12L5 13L4 13L4 16L8 16L8 14L10 14L10 15L9 15L9 16L10 16L10 18L9 18L9 17L8 17L8 18L7 18L7 17L5 17L5 20L7 20L7 19L8 19L8 18L9 18L9 19L10 19L10 20L9 20L9 21L10 21L10 22L9 22L9 25L10 25L10 26L9 26L9 27L10 27L10 26L11 26L11 27L12 27L12 28L13 28L13 27L14 27L14 28L15 28L15 29L17 29L17 30L18 30L18 29L19 29L19 31L22 31L22 32L23 32L23 34L24 34L24 32L25 32L25 34L26 34L26 35L23 35L23 36L26 36L26 37L27 37L27 39L26 39L26 40L25 40L25 41L24 41L24 42L23 42L23 43L22 43L22 44L24 44L24 42L25 42L25 41L26 41L26 42L27 42L27 44L29 44L29 43L28 43L28 42L29 42L29 40L28 40L28 42L27 42L27 41L26 41L26 40L27 40L27 39L28 39L28 37L30 37L30 38L29 38L29 39L30 39L30 38L31 38L31 39L32 39L32 37L33 37L33 39L35 39L35 37L36 37L36 36L35 36L35 37L34 37L34 35L33 35L33 36L30 36L30 34L29 34L29 33L30 33L30 31L31 31L31 32L32 32L32 33L31 33L31 35L32 35L32 33L34 33L34 34L35 34L35 33L36 33L36 34L37 34L37 32L38 32L38 33L39 33L39 34L40 34L40 35L39 35L39 36L40 36L40 35L42 35L42 36L44 36L44 35L43 35L43 34L41 34L41 33L42 33L42 32L41 32L41 31L39 31L39 29L38 29L38 31L37 31L37 30L36 30L36 29L37 29L37 28L36 28L36 29L35 29L35 27L40 27L40 28L41 28L41 27L40 27L40 26L37 26L37 25L36 25L36 23L35 23L35 24L34 24L34 25L33 25L33 24L31 24L31 23L32 23L32 22L31 22L31 23L30 23L30 24L31 24L31 25L29 25L29 22L30 22L30 21L33 21L33 23L34 23L34 22L35 22L35 21L36 21L36 20L40 20L40 19L38 19L38 18L39 18L39 17L35 17L35 16L34 16L34 17L35 17L35 19L34 19L34 20L33 20L33 18L31 18L31 16L30 16L30 18L29 18L29 16L28 16L28 14L27 14L27 15L25 15L25 14L26 14L26 13L29 13L29 15L30 15L30 14L31 14L31 15L32 15L32 14L31 14L31 12L32 12L32 10L31 10L31 11L29 11L29 12L28 12L28 10L27 10L27 9L28 9L28 6L27 6L27 9L23 9L23 12L24 12L24 13L25 13L25 14L23 14L23 13L22 13L22 14L20 14L20 12L21 12L21 11L22 11L22 9L20 9L20 10L19 10L19 8L20 8L20 6L19 6L19 7L18 7L18 6L17 6L17 7L18 7L18 8L17 8L17 9L16 9L16 11L15 11L15 12L14 12L14 13L13 13L13 14L12 14L12 11L11 11L11 12L9 12L9 11L10 11L10 10L11 10L11 9L12 9L12 8L13 8L13 7L14 7L14 6L13 6L13 7L12 7L12 6L11 6L11 7L10 7L10 6ZM22 6L22 7L23 7L23 6ZM25 6L25 8L26 8L26 6ZM11 7L11 8L10 8L10 9L9 9L9 10L10 10L10 9L11 9L11 8L12 8L12 7ZM14 8L14 10L13 10L13 11L14 11L14 10L15 10L15 8ZM6 9L6 10L7 10L7 9ZM17 10L17 11L16 11L16 12L15 12L15 13L17 13L17 14L16 14L16 15L17 15L17 14L18 14L18 13L19 13L19 11L18 11L18 10ZM25 10L25 11L26 11L26 12L27 12L27 11L26 11L26 10ZM36 10L36 11L37 11L37 10ZM6 12L6 13L7 13L7 14L5 14L5 15L7 15L7 14L8 14L8 13L9 13L9 12ZM29 12L29 13L30 13L30 12ZM10 13L10 14L11 14L11 18L12 18L12 19L11 19L11 23L10 23L10 24L12 24L12 27L13 27L13 26L14 26L14 27L16 27L16 28L17 28L17 29L18 29L18 28L19 28L19 29L22 29L22 28L20 28L20 26L21 26L21 27L23 27L23 25L24 25L24 28L23 28L23 29L27 29L27 30L26 30L26 32L27 32L27 33L29 33L29 31L30 31L30 30L29 30L29 31L28 31L28 29L27 29L27 28L29 28L29 29L31 29L31 30L34 30L34 31L35 31L35 29L34 29L34 28L33 28L33 25L32 25L32 28L31 28L31 26L30 26L30 28L29 28L29 26L27 26L27 25L28 25L28 24L27 24L27 25L26 25L26 28L25 28L25 23L26 23L26 21L27 21L27 22L28 22L28 21L30 21L30 20L27 20L27 19L28 19L28 18L26 18L26 16L25 16L25 15L24 15L24 18L23 18L23 16L22 16L22 18L23 18L23 19L24 19L24 20L22 20L22 19L21 19L21 18L20 18L20 17L19 17L19 18L18 18L18 17L17 17L17 18L16 18L16 17L15 17L15 19L14 19L14 16L15 16L15 14L14 14L14 16L13 16L13 15L12 15L12 14L11 14L11 13ZM2 14L2 15L3 15L3 14ZM39 14L39 15L38 15L38 16L40 16L40 15L41 15L41 14ZM18 15L18 16L20 16L20 15ZM36 15L36 16L37 16L37 15ZM2 16L2 18L4 18L4 17L3 17L3 16ZM12 16L12 17L13 17L13 16ZM44 16L44 18L43 18L43 19L44 19L44 18L45 18L45 16ZM6 18L6 19L7 19L7 18ZM18 19L18 21L19 21L19 20L20 20L20 19ZM25 19L25 20L26 20L26 19ZM35 19L35 20L34 20L34 21L35 21L35 20L36 20L36 19ZM2 20L2 21L3 21L3 20ZM12 20L12 22L13 22L13 25L15 25L15 26L17 26L17 24L16 24L16 25L15 25L15 23L17 23L17 21L15 21L15 20ZM5 21L5 24L8 24L8 21ZM14 21L14 23L15 23L15 21ZM21 21L21 24L24 24L24 21ZM37 21L37 24L40 24L40 21ZM6 22L6 23L7 23L7 22ZM19 22L19 23L18 23L18 24L19 24L19 25L20 25L20 24L19 24L19 23L20 23L20 22ZM22 22L22 23L23 23L23 22ZM38 22L38 23L39 23L39 22ZM2 23L2 25L1 25L1 27L2 27L2 25L3 25L3 27L4 27L4 29L3 29L3 30L2 30L2 31L4 31L4 32L5 32L5 30L7 30L7 29L6 29L6 28L7 28L7 27L8 27L8 26L7 26L7 25L6 25L6 26L7 26L7 27L6 27L6 28L5 28L5 25L4 25L4 23ZM44 24L44 25L45 25L45 24ZM21 25L21 26L22 26L22 25ZM18 26L18 27L17 27L17 28L18 28L18 27L19 27L19 26ZM4 29L4 30L5 30L5 29ZM22 30L22 31L25 31L25 30ZM27 31L27 32L28 32L28 31ZM10 32L10 33L11 33L11 32ZM14 32L14 33L16 33L16 32ZM17 32L17 33L18 33L18 32ZM40 32L40 33L41 33L41 32ZM20 33L20 34L21 34L21 33ZM14 34L14 35L15 35L15 34ZM28 34L28 35L27 35L27 36L29 36L29 34ZM9 35L9 36L10 36L10 35ZM13 36L13 37L14 37L14 36ZM21 37L21 40L24 40L24 37ZM37 37L37 40L40 40L40 37ZM13 38L13 40L14 40L14 41L15 41L15 40L14 40L14 38ZM22 38L22 39L23 39L23 38ZM38 38L38 39L39 39L39 38ZM30 40L30 42L31 42L31 41L32 41L32 40ZM35 40L35 41L36 41L36 40ZM8 41L8 45L9 45L9 44L10 44L10 43L9 43L9 41ZM21 41L21 42L22 42L22 41ZM19 44L19 45L20 45L20 44ZM35 44L35 45L36 45L36 44ZM42 44L42 45L43 45L43 44ZM0 0L0 7L7 7L7 0ZM1 1L1 6L6 6L6 1ZM2 2L2 5L5 5L5 2ZM38 0L38 7L45 7L45 0ZM39 1L39 6L44 6L44 1ZM40 2L40 5L43 5L43 2ZM0 38L0 45L7 45L7 38ZM1 39L1 44L6 44L6 39ZM2 40L2 43L5 43L5 40Z" fill="#000000"/></g></g></svg>
