<?xml version="1.0" encoding="UTF-8"?>
<svg xmlns="http://www.w3.org/2000/svg" version="1.1" width="200" height="200" viewBox="0 0 200 200"><rect x="0" y="0" width="200" height="200" fill="#ffffff"/><g transform="scale(4.444)"><g transform="translate(0,0)"><path fill-rule="evenodd" d="M10 0L10 2L11 2L11 4L13 4L13 5L10 5L10 3L9 3L9 1L8 1L8 3L9 3L9 4L8 4L8 8L6 8L6 9L4 9L4 8L3 8L3 9L2 9L2 8L0 8L0 10L1 10L1 11L0 11L0 12L1 12L1 11L2 11L2 10L3 10L3 11L4 11L4 12L3 12L3 13L1 13L1 14L0 14L0 15L1 15L1 14L3 14L3 15L4 15L4 17L3 17L3 16L2 16L2 18L1 18L1 16L0 16L0 18L1 18L1 19L0 19L0 22L1 22L1 21L2 21L2 22L3 22L3 23L0 23L0 24L1 24L1 26L0 26L0 28L1 28L1 29L0 29L0 30L4 30L4 29L2 29L2 28L3 28L3 27L4 27L4 28L5 28L5 27L7 27L7 28L6 28L6 29L5 29L5 31L7 31L7 30L6 30L6 29L8 29L8 28L10 28L10 29L9 29L9 30L8 30L8 32L9 32L9 34L10 34L10 38L9 38L9 37L8 37L8 39L9 39L9 40L10 40L10 38L11 38L11 40L13 40L13 39L12 39L12 37L11 37L11 34L10 34L10 33L11 33L11 32L12 32L12 31L11 31L11 28L10 28L10 26L9 26L9 25L11 25L11 26L12 26L12 28L13 28L13 26L12 26L12 25L14 25L14 26L17 26L17 27L14 27L14 29L13 29L13 37L14 37L14 38L15 38L15 37L16 37L16 38L18 38L18 39L20 39L20 40L16 40L16 39L15 39L15 40L14 40L14 41L15 41L15 42L13 42L13 45L14 45L14 43L15 43L15 42L16 42L16 43L17 43L17 44L18 44L18 45L19 45L19 42L20 42L20 44L24 44L24 45L25 45L25 44L24 44L24 43L26 43L26 42L27 42L27 44L26 44L26 45L27 45L27 44L28 44L28 45L30 45L30 43L31 43L31 45L32 45L32 44L33 44L33 45L35 45L35 44L38 44L38 45L39 45L39 44L40 44L40 43L41 43L41 45L42 45L42 43L41 43L41 41L42 41L42 42L43 42L43 41L42 41L42 36L40 36L40 35L41 35L41 34L42 34L42 31L44 31L44 32L45 32L45 30L44 30L44 28L45 28L45 27L44 27L44 28L43 28L43 30L42 30L42 29L41 29L41 28L42 28L42 27L43 27L43 25L44 25L44 26L45 26L45 21L43 21L43 22L42 22L42 20L40 20L40 19L44 19L44 20L45 20L45 18L43 18L43 17L42 17L42 16L41 16L41 15L40 15L40 14L42 14L42 15L44 15L44 14L45 14L45 9L44 9L44 8L42 8L42 9L41 9L41 8L38 8L38 9L39 9L39 12L38 12L38 11L37 11L37 10L36 10L36 8L37 8L37 6L36 6L36 8L35 8L35 6L34 6L34 7L33 7L33 5L37 5L37 3L36 3L36 1L37 1L37 0L36 0L36 1L35 1L35 4L32 4L32 7L31 7L31 4L30 4L30 3L31 3L31 2L32 2L32 3L33 3L33 2L34 2L34 0L32 0L32 1L31 1L31 0L29 0L29 1L27 1L27 0L25 0L25 1L27 1L27 3L25 3L25 2L24 2L24 0L22 0L22 1L23 1L23 2L21 2L21 0L15 0L15 2L13 2L13 0L12 0L12 1L11 1L11 0ZM16 1L16 3L13 3L13 4L14 4L14 5L13 5L13 7L12 7L12 6L11 6L11 7L12 7L12 8L10 8L10 10L9 10L9 11L8 11L8 12L9 12L9 13L10 13L10 12L9 12L9 11L10 11L10 10L11 10L11 14L12 14L12 12L14 12L14 11L13 11L13 10L11 10L11 9L12 9L12 8L13 8L13 9L15 9L15 11L16 11L16 12L15 12L15 13L18 13L18 12L20 12L20 11L22 11L22 13L19 13L19 14L14 14L14 13L13 13L13 15L11 15L11 16L10 16L10 14L8 14L8 15L5 15L5 14L4 14L4 13L6 13L6 14L7 14L7 13L6 13L6 12L7 12L7 11L6 11L6 10L7 10L7 9L6 9L6 10L5 10L5 12L4 12L4 13L3 13L3 14L4 14L4 15L5 15L5 17L4 17L4 18L5 18L5 17L6 17L6 18L10 18L10 19L5 19L5 20L9 20L9 21L10 21L10 19L11 19L11 17L12 17L12 18L14 18L14 19L12 19L12 21L11 21L11 22L10 22L10 24L11 24L11 25L12 25L12 24L14 24L14 23L15 23L15 22L16 22L16 24L15 24L15 25L17 25L17 26L18 26L18 27L19 27L19 28L21 28L21 29L19 29L19 32L20 32L20 33L19 33L19 34L21 34L21 33L22 33L22 32L24 32L24 35L22 35L22 36L25 36L25 39L26 39L26 41L27 41L27 42L28 42L28 44L29 44L29 42L28 42L28 41L30 41L30 42L31 42L31 43L32 43L32 42L33 42L33 41L34 41L34 43L33 43L33 44L34 44L34 43L35 43L35 42L36 42L36 41L34 41L34 40L33 40L33 41L32 41L32 42L31 42L31 41L30 41L30 40L32 40L32 39L33 39L33 38L34 38L34 39L35 39L35 40L36 40L36 38L34 38L34 36L35 36L35 37L36 37L36 36L35 36L35 35L34 35L34 36L33 36L33 35L32 35L32 34L33 34L33 33L34 33L34 34L36 34L36 35L37 35L37 34L39 34L39 35L38 35L38 36L39 36L39 35L40 35L40 34L41 34L41 32L38 32L38 31L37 31L37 32L38 32L38 33L35 33L35 32L36 32L36 28L37 28L37 29L38 29L38 28L37 28L37 27L36 27L36 25L35 25L35 26L33 26L33 25L34 25L34 24L36 24L36 23L34 23L34 22L36 22L36 21L35 21L35 19L36 19L36 20L39 20L39 19L40 19L40 17L41 17L41 18L42 18L42 17L41 17L41 16L40 16L40 15L38 15L38 14L39 14L39 13L38 13L38 14L37 14L37 12L35 12L35 11L36 11L36 10L35 10L35 8L32 8L32 9L30 9L30 8L31 8L31 7L30 7L30 6L29 6L29 3L30 3L30 1L29 1L29 2L28 2L28 3L27 3L27 4L28 4L28 5L26 5L26 4L25 4L25 3L24 3L24 4L25 4L25 7L26 7L26 9L24 9L24 10L27 10L27 12L26 12L26 14L25 14L25 15L24 15L24 16L25 16L25 18L26 18L26 14L28 14L28 15L27 15L27 17L30 17L30 18L29 18L29 19L28 19L28 18L27 18L27 19L26 19L26 23L29 23L29 22L30 22L30 24L31 24L31 25L29 25L29 26L30 26L30 28L28 28L28 29L30 29L30 30L29 30L29 31L28 31L28 30L26 30L26 31L28 31L28 32L30 32L30 33L27 33L27 32L26 32L26 34L25 34L25 31L22 31L22 30L21 30L21 29L23 29L23 30L25 30L25 27L26 27L26 29L27 29L27 27L26 27L26 26L27 26L27 25L28 25L28 24L27 24L27 25L26 25L26 24L25 24L25 25L24 25L24 26L23 26L23 25L21 25L21 26L18 26L18 25L17 25L17 22L18 22L18 21L17 21L17 20L14 20L14 19L18 19L18 17L16 17L16 18L14 18L14 16L16 16L16 15L18 15L18 16L20 16L20 17L19 17L19 19L20 19L20 20L21 20L21 19L22 19L22 18L23 18L23 20L24 20L24 17L22 17L22 16L23 16L23 15L22 15L22 16L21 16L21 15L20 15L20 14L22 14L22 13L23 13L23 14L24 14L24 12L25 12L25 11L23 11L23 9L22 9L22 10L21 10L21 9L20 9L20 8L19 8L19 9L20 9L20 10L19 10L19 11L18 11L18 12L17 12L17 11L16 11L16 10L17 10L17 9L18 9L18 6L17 6L17 5L20 5L20 4L19 4L19 3L21 3L21 2L20 2L20 1L19 1L19 3L18 3L18 1ZM32 1L32 2L33 2L33 1ZM16 3L16 4L15 4L15 5L14 5L14 7L15 7L15 8L17 8L17 6L16 6L16 4L17 4L17 3ZM22 3L22 4L23 4L23 3ZM9 5L9 7L10 7L10 5ZM21 5L21 8L24 8L24 5ZM15 6L15 7L16 7L16 6ZM19 6L19 7L20 7L20 6ZM22 6L22 7L23 7L23 6ZM26 6L26 7L27 7L27 8L28 8L28 9L27 9L27 10L28 10L28 12L27 12L27 13L29 13L29 15L28 15L28 16L29 16L29 15L30 15L30 13L32 13L32 14L31 14L31 15L32 15L32 17L31 17L31 16L30 16L30 17L31 17L31 18L32 18L32 20L33 20L33 21L34 21L34 20L33 20L33 18L32 18L32 17L34 17L34 16L37 16L37 14L35 14L35 13L34 13L34 11L35 11L35 10L34 10L34 11L33 11L33 9L32 9L32 10L31 10L31 12L30 12L30 11L29 11L29 8L28 8L28 7L29 7L29 6L28 6L28 7L27 7L27 6ZM8 8L8 9L9 9L9 8ZM40 9L40 11L41 11L41 9ZM42 9L42 10L43 10L43 11L42 11L42 12L41 12L41 13L43 13L43 14L44 14L44 13L43 13L43 11L44 11L44 9ZM32 11L32 12L33 12L33 11ZM33 13L33 15L35 15L35 14L34 14L34 13ZM13 15L13 16L12 16L12 17L13 17L13 16L14 16L14 15ZM6 16L6 17L8 17L8 16ZM9 16L9 17L10 17L10 16ZM38 16L38 18L39 18L39 17L40 17L40 16ZM21 17L21 18L22 18L22 17ZM2 18L2 19L1 19L1 20L2 20L2 21L3 21L3 22L4 22L4 20L3 20L3 18ZM27 19L27 21L28 21L28 22L29 22L29 21L30 21L30 20L31 20L31 19L30 19L30 20L28 20L28 19ZM13 20L13 21L12 21L12 22L11 22L11 23L14 23L14 22L15 22L15 21L14 21L14 20ZM5 21L5 24L8 24L8 21ZM21 21L21 24L24 24L24 21ZM31 21L31 24L32 24L32 25L33 25L33 24L32 24L32 23L33 23L33 22L32 22L32 21ZM37 21L37 24L40 24L40 21ZM6 22L6 23L7 23L7 22ZM19 22L19 23L18 23L18 24L19 24L19 25L20 25L20 24L19 24L19 23L20 23L20 22ZM22 22L22 23L23 23L23 22ZM38 22L38 23L39 23L39 22ZM41 22L41 23L42 23L42 24L41 24L41 26L42 26L42 25L43 25L43 24L44 24L44 22L43 22L43 23L42 23L42 22ZM2 24L2 26L7 26L7 25L3 25L3 24ZM39 25L39 26L38 26L38 27L39 27L39 26L40 26L40 25ZM22 26L22 27L21 27L21 28L24 28L24 27L23 27L23 26ZM31 26L31 27L32 27L32 30L31 30L31 31L30 31L30 32L31 32L31 31L32 31L32 32L35 32L35 30L34 30L34 31L33 31L33 26ZM1 27L1 28L2 28L2 27ZM34 27L34 29L35 29L35 27ZM40 27L40 28L41 28L41 27ZM15 28L15 29L14 29L14 30L18 30L18 28L17 28L17 29L16 29L16 28ZM30 28L30 29L31 29L31 28ZM39 29L39 31L41 31L41 29ZM2 31L2 34L4 34L4 35L1 35L1 36L0 36L0 37L1 37L1 36L3 36L3 37L5 37L5 34L4 34L4 33L7 33L7 34L6 34L6 35L7 35L7 34L8 34L8 33L7 33L7 32L4 32L4 31ZM9 31L9 32L11 32L11 31ZM14 31L14 33L15 33L15 31ZM16 31L16 34L14 34L14 35L16 35L16 37L17 37L17 36L18 36L18 34L17 34L17 33L18 33L18 32L17 32L17 31ZM0 32L0 33L1 33L1 32ZM3 32L3 33L4 33L4 32ZM44 33L44 35L43 35L43 36L44 36L44 35L45 35L45 33ZM16 34L16 35L17 35L17 34ZM28 34L28 35L27 35L27 36L28 36L28 37L27 37L27 38L26 38L26 39L27 39L27 41L28 41L28 40L29 40L29 39L30 39L30 37L31 37L31 38L33 38L33 36L32 36L32 35L30 35L30 34ZM8 35L8 36L9 36L9 35ZM20 35L20 36L21 36L21 35ZM25 35L25 36L26 36L26 35ZM29 35L29 37L30 37L30 35ZM6 36L6 37L7 37L7 36ZM21 37L21 40L24 40L24 37ZM37 37L37 40L40 40L40 37ZM44 37L44 38L45 38L45 37ZM22 38L22 39L23 39L23 38ZM28 38L28 39L29 39L29 38ZM38 38L38 39L39 39L39 38ZM43 39L43 40L44 40L44 39ZM15 40L15 41L16 41L16 42L17 42L17 43L18 43L18 41L16 41L16 40ZM8 41L8 42L9 42L9 43L8 43L8 45L9 45L9 43L10 43L10 45L11 45L11 44L12 44L12 43L10 43L10 42L11 42L11 41ZM20 41L20 42L21 42L21 43L24 43L24 42L25 42L25 41L22 41L22 42L21 42L21 41ZM37 41L37 42L38 42L38 41ZM44 41L44 42L45 42L45 41ZM39 42L39 43L38 43L38 44L39 44L39 43L40 43L40 42ZM15 44L15 45L16 45L16 44ZM43 44L43 45L44 45L44 44ZM0 0L0 7L7 7L7 0ZM1 1L1 6L6 6L6 1ZM2 2L2 5L5 5L5 2ZM38 0L38 7L45 7L45 0ZM39 1L39 6L44 6L44 1ZM40 2L40 5L43 5L43 2ZM0 38L0 45L7 45L7 38ZM1 39L1 44L6 44L6 39ZM2 40L2 43L5 43L5 40Z" fill="#000000"/></g></g></svg>
