<?xml version="1.0" encoding="UTF-8"?>
<svg xmlns="http://www.w3.org/2000/svg" version="1.1" width="200" height="200" viewBox="0 0 200 200"><rect x="0" y="0" width="200" height="200" fill="#ffffff"/><g transform="scale(4.444)"><g transform="translate(0,0)"><path fill-rule="evenodd" d="M10 0L10 1L11 1L11 2L9 2L9 1L8 1L8 3L9 3L9 4L8 4L8 8L6 8L6 9L5 9L5 10L3 10L3 9L4 9L4 8L3 8L3 9L2 9L2 8L0 8L0 9L1 9L1 10L0 10L0 11L1 11L1 12L0 12L0 14L1 14L1 15L0 15L0 16L1 16L1 18L0 18L0 19L2 19L2 22L0 22L0 24L1 24L1 25L0 25L0 26L1 26L1 27L2 27L2 26L3 26L3 30L2 30L2 28L1 28L1 30L0 30L0 31L1 31L1 32L2 32L2 33L0 33L0 34L4 34L4 35L1 35L1 36L0 36L0 37L1 37L1 36L3 36L3 37L5 37L5 34L6 34L6 35L8 35L8 32L9 32L9 34L10 34L10 32L11 32L11 33L12 33L12 34L13 34L13 32L14 32L14 31L15 31L15 32L17 32L17 37L16 37L16 36L15 36L15 35L16 35L16 34L15 34L15 35L9 35L9 37L8 37L8 39L9 39L9 37L11 37L11 36L14 36L14 38L12 38L12 39L13 39L13 40L11 40L11 41L10 41L10 40L9 40L9 41L8 41L8 42L9 42L9 43L8 43L8 45L10 45L10 44L9 44L9 43L11 43L11 45L12 45L12 43L13 43L13 42L14 42L14 44L13 44L13 45L14 45L14 44L16 44L16 43L17 43L17 45L20 45L20 44L21 44L21 45L23 45L23 43L22 43L22 42L20 42L20 41L25 41L25 42L24 42L24 45L25 45L25 43L26 43L26 42L27 42L27 44L26 44L26 45L27 45L27 44L28 44L28 45L29 45L29 44L28 44L28 42L29 42L29 43L31 43L31 44L30 44L30 45L32 45L32 44L33 44L33 45L36 45L36 44L38 44L38 45L39 45L39 44L40 44L40 43L41 43L41 44L42 44L42 43L43 43L43 41L44 41L44 42L45 42L45 40L43 40L43 41L42 41L42 37L41 37L41 36L42 36L42 35L43 35L43 36L44 36L44 38L43 38L43 39L44 39L44 38L45 38L45 36L44 36L44 35L45 35L45 32L44 32L44 31L45 31L45 30L44 30L44 28L45 28L45 27L44 27L44 28L43 28L43 30L42 30L42 28L38 28L38 25L40 25L40 26L42 26L42 27L43 27L43 25L44 25L44 26L45 26L45 25L44 25L44 24L45 24L45 21L43 21L43 22L42 22L42 20L41 20L41 17L42 17L42 16L41 16L41 14L42 14L42 15L43 15L43 17L45 17L45 15L43 15L43 14L45 14L45 9L44 9L44 8L42 8L42 9L41 9L41 8L38 8L38 9L39 9L39 11L37 11L37 10L36 10L36 8L35 8L35 6L34 6L34 7L33 7L33 5L37 5L37 3L36 3L36 1L37 1L37 0L36 0L36 1L35 1L35 4L33 4L33 5L32 5L32 4L31 4L31 2L32 2L32 3L33 3L33 2L32 2L32 1L33 1L33 0L32 0L32 1L31 1L31 0L29 0L29 1L27 1L27 0L26 0L26 1L25 1L25 2L29 2L29 3L30 3L30 4L28 4L28 3L27 3L27 4L26 4L26 3L25 3L25 4L24 4L24 1L23 1L23 0L22 0L22 1L21 1L21 0L20 0L20 3L19 3L19 6L18 6L18 7L17 7L17 5L18 5L18 4L17 4L17 3L18 3L18 1L17 1L17 0L16 0L16 2L15 2L15 0L14 0L14 2L15 2L15 5L16 5L16 7L15 7L15 6L14 6L14 8L11 8L11 6L12 6L12 7L13 7L13 5L14 5L14 4L13 4L13 3L11 3L11 2L12 2L12 0ZM22 1L22 2L23 2L23 1ZM29 1L29 2L30 2L30 1ZM16 2L16 3L17 3L17 2ZM10 3L10 5L9 5L9 8L8 8L8 9L10 9L10 10L11 10L11 8L10 8L10 6L11 6L11 3ZM21 3L21 4L23 4L23 3ZM12 4L12 5L13 5L13 4ZM16 4L16 5L17 5L17 4ZM25 4L25 5L26 5L26 4ZM21 5L21 8L24 8L24 5ZM28 5L28 6L27 6L27 7L26 7L26 6L25 6L25 9L26 9L26 10L25 10L25 11L24 11L24 12L23 12L23 10L24 10L24 9L23 9L23 10L22 10L22 9L21 9L21 10L19 10L19 11L22 11L22 12L19 12L19 14L22 14L22 15L20 15L20 17L22 17L22 18L19 18L19 19L17 19L17 17L16 17L16 15L17 15L17 16L18 16L18 15L17 15L17 14L16 14L16 13L17 13L17 12L18 12L18 9L17 9L17 8L16 8L16 9L14 9L14 10L13 10L13 9L12 9L12 10L13 10L13 12L12 12L12 13L11 13L11 12L8 12L8 11L5 11L5 12L8 12L8 13L6 13L6 14L3 14L3 13L2 13L2 12L4 12L4 11L3 11L3 10L2 10L2 12L1 12L1 14L2 14L2 15L1 15L1 16L3 16L3 17L4 17L4 18L5 18L5 19L4 19L4 20L10 20L10 21L11 21L11 22L9 22L9 23L10 23L10 25L5 25L5 27L4 27L4 28L5 28L5 29L4 29L4 30L3 30L3 31L2 31L2 32L3 32L3 33L4 33L4 34L5 34L5 32L8 32L8 30L9 30L9 29L6 29L6 28L7 28L7 27L6 27L6 26L8 26L8 27L9 27L9 28L11 28L11 29L10 29L10 30L11 30L11 29L12 29L12 30L13 30L13 31L14 31L14 30L16 30L16 31L17 31L17 30L18 30L18 29L16 29L16 28L17 28L17 27L16 27L16 28L15 28L15 29L14 29L14 30L13 30L13 27L15 27L15 26L16 26L16 25L17 25L17 24L18 24L18 20L19 20L19 21L20 21L20 20L22 20L22 19L23 19L23 20L25 20L25 19L23 19L23 18L24 18L24 15L23 15L23 13L24 13L24 12L25 12L25 11L27 11L27 12L26 12L26 14L25 14L25 15L26 15L26 16L27 16L27 17L30 17L30 18L29 18L29 22L27 22L27 19L28 19L28 18L26 18L26 23L29 23L29 22L30 22L30 24L31 24L31 25L29 25L29 26L30 26L30 28L27 28L27 27L26 27L26 29L30 29L30 31L29 31L29 30L25 30L25 29L23 29L23 27L24 27L24 28L25 28L25 26L27 26L27 25L28 25L28 24L25 24L25 25L22 25L22 29L23 29L23 30L22 30L22 32L23 32L23 33L24 33L24 32L25 32L25 31L26 31L26 35L25 35L25 34L24 34L24 35L23 35L23 34L22 34L22 35L21 35L21 34L20 34L20 33L21 33L21 32L20 32L20 31L21 31L21 29L19 29L19 31L18 31L18 32L19 32L19 34L18 34L18 35L19 35L19 34L20 34L20 36L25 36L25 41L26 41L26 38L27 38L27 39L28 39L28 38L30 38L30 39L29 39L29 40L28 40L28 41L27 41L27 42L28 42L28 41L30 41L30 42L31 42L31 43L32 43L32 42L33 42L33 41L34 41L34 44L36 44L36 43L35 43L35 42L36 42L36 41L34 41L34 40L33 40L33 41L32 41L32 42L31 42L31 41L30 41L30 40L32 40L32 39L35 39L35 40L36 40L36 38L34 38L34 37L36 37L36 36L35 36L35 35L38 35L38 36L41 36L41 35L42 35L42 34L43 34L43 35L44 35L44 32L43 32L43 31L42 31L42 34L41 34L41 33L40 33L40 32L38 32L38 31L37 31L37 32L36 32L36 28L37 28L37 29L38 29L38 28L37 28L37 27L36 27L36 26L37 26L37 25L36 25L36 26L33 26L33 25L34 25L34 24L36 24L36 23L34 23L34 22L36 22L36 20L40 20L40 17L41 17L41 16L40 16L40 15L38 15L38 14L40 14L40 13L38 13L38 12L35 12L35 11L36 11L36 10L35 10L35 8L32 8L32 9L30 9L30 8L31 8L31 7L32 7L32 6L31 6L31 7L30 7L30 5ZM19 6L19 8L20 8L20 6ZM22 6L22 7L23 7L23 6ZM28 6L28 7L27 7L27 8L26 8L26 9L27 9L27 10L28 10L28 11L29 11L29 12L27 12L27 14L28 14L28 16L29 16L29 14L28 14L28 13L30 13L30 12L32 12L32 13L33 13L33 14L31 14L31 15L32 15L32 17L31 17L31 16L30 16L30 17L31 17L31 18L32 18L32 20L36 20L36 19L33 19L33 18L32 18L32 17L34 17L34 16L36 16L36 15L34 15L34 14L35 14L35 13L33 13L33 12L32 12L32 11L33 11L33 9L32 9L32 10L31 10L31 11L29 11L29 8L28 8L28 7L29 7L29 6ZM36 6L36 7L37 7L37 6ZM27 8L27 9L28 9L28 8ZM6 9L6 10L7 10L7 9ZM40 9L40 11L39 11L39 12L41 12L41 13L43 13L43 11L44 11L44 9L43 9L43 10L41 10L41 9ZM14 10L14 12L13 12L13 13L12 13L12 14L11 14L11 13L10 13L10 14L11 14L11 15L12 15L12 16L10 16L10 18L9 18L9 17L8 17L8 16L9 16L9 15L8 15L8 14L9 14L9 13L8 13L8 14L6 14L6 15L7 15L7 16L4 16L4 15L3 15L3 16L4 16L4 17L7 17L7 18L6 18L6 19L8 19L8 18L9 18L9 19L10 19L10 20L11 20L11 21L13 21L13 22L12 22L12 24L11 24L11 26L10 26L10 27L11 27L11 28L12 28L12 27L13 27L13 26L12 26L12 25L14 25L14 23L13 23L13 22L15 22L15 25L16 25L16 22L15 22L15 21L13 21L13 19L12 19L12 18L13 18L13 17L14 17L14 18L16 18L16 17L15 17L15 16L13 16L13 14L15 14L15 12L16 12L16 11L17 11L17 10L16 10L16 11L15 11L15 10ZM34 10L34 11L35 11L35 10ZM37 13L37 14L38 14L38 13ZM22 16L22 17L23 17L23 16ZM38 16L38 18L39 18L39 17L40 17L40 16ZM11 17L11 18L12 18L12 17ZM43 18L43 19L44 19L44 20L45 20L45 18ZM11 19L11 20L12 20L12 19ZM14 19L14 20L17 20L17 19ZM30 20L30 21L31 21L31 24L32 24L32 25L33 25L33 24L32 24L32 23L33 23L33 22L34 22L34 21L31 21L31 20ZM5 21L5 24L8 24L8 21ZM21 21L21 24L24 24L24 21ZM37 21L37 24L40 24L40 21ZM2 22L2 23L1 23L1 24L2 24L2 25L3 25L3 24L4 24L4 23L3 23L3 22ZM6 22L6 23L7 23L7 22ZM19 22L19 25L20 25L20 26L18 26L18 28L19 28L19 27L20 27L20 26L21 26L21 25L20 25L20 22ZM22 22L22 23L23 23L23 22ZM38 22L38 23L39 23L39 22ZM41 22L41 23L42 23L42 24L41 24L41 25L43 25L43 23L42 23L42 22ZM2 23L2 24L3 24L3 23ZM11 26L11 27L12 27L12 26ZM31 26L31 29L32 29L32 30L31 30L31 31L30 31L30 32L28 32L28 31L27 31L27 33L30 33L30 32L31 32L31 31L32 31L32 32L35 32L35 34L34 34L34 33L33 33L33 34L32 34L32 33L31 33L31 37L34 37L34 35L35 35L35 34L36 34L36 32L35 32L35 31L34 31L34 30L33 30L33 26ZM34 27L34 29L35 29L35 27ZM39 29L39 31L41 31L41 29ZM5 30L5 31L3 31L3 32L5 32L5 31L7 31L7 30ZM11 31L11 32L12 32L12 31ZM6 33L6 34L7 34L7 33ZM37 33L37 34L38 34L38 35L39 35L39 34L38 34L38 33ZM28 34L28 37L27 37L27 36L26 36L26 37L27 37L27 38L28 38L28 37L30 37L30 36L29 36L29 35L30 35L30 34ZM40 34L40 35L41 35L41 34ZM32 35L32 36L33 36L33 35ZM6 36L6 37L7 37L7 36ZM15 37L15 39L16 39L16 40L13 40L13 41L11 41L11 42L13 42L13 41L15 41L15 42L17 42L17 43L18 43L18 42L19 42L19 41L18 41L18 42L17 42L17 41L16 41L16 40L17 40L17 39L16 39L16 37ZM17 37L17 38L18 38L18 37ZM19 37L19 38L20 38L20 37ZM21 37L21 40L24 40L24 37ZM37 37L37 40L40 40L40 37ZM10 38L10 39L11 39L11 38ZM22 38L22 39L23 39L23 38ZM31 38L31 39L32 39L32 38ZM38 38L38 39L39 39L39 38ZM18 39L18 40L20 40L20 39ZM9 41L9 42L10 42L10 41ZM37 41L37 42L38 42L38 41ZM41 41L41 42L42 42L42 41ZM39 42L39 43L38 43L38 44L39 44L39 43L40 43L40 42ZM19 43L19 44L20 44L20 43ZM43 44L43 45L44 45L44 44ZM0 0L0 7L7 7L7 0ZM1 1L1 6L6 6L6 1ZM2 2L2 5L5 5L5 2ZM38 0L38 7L45 7L45 0ZM39 1L39 6L44 6L44 1ZM40 2L40 5L43 5L43 2ZM0 38L0 45L7 45L7 38ZM1 39L1 44L6 44L6 39ZM2 40L2 43L5 43L5 40Z" fill="#000000"/></g></g></svg>
